<svg width="25" height="26" viewBox="0 0 25 26" fill="none" xmlns="http://www.w3.org/2000/svg">
<path d="M8.12501 2.94922H16.875C20.2083 2.94922 22.9167 5.65755 22.9167 8.99089V17.7409C22.9167 19.3432 22.2801 20.88 21.1471 22.013C20.0141 23.146 18.4774 23.7826 16.875 23.7826H8.12501C4.79168 23.7826 2.08334 21.0742 2.08334 17.7409V8.99089C2.08334 7.38854 2.71987 5.85181 3.85291 4.71878C4.98594 3.58575 6.52266 2.94922 8.12501 2.94922ZM7.91668 5.03255C6.92212 5.03255 5.96829 5.42764 5.26503 6.1309C4.56177 6.83416 4.16668 7.78799 4.16668 8.78255V17.9492C4.16668 20.0221 5.84376 21.6992 7.91668 21.6992H17.0833C18.0779 21.6992 19.0317 21.3041 19.735 20.6009C20.4383 19.8976 20.8333 18.9438 20.8333 17.9492V8.78255C20.8333 6.70964 19.1563 5.03255 17.0833 5.03255H7.91668ZM17.9688 6.59505C18.3141 6.59505 18.6453 6.73224 18.8895 6.97642C19.1337 7.22061 19.2708 7.5518 19.2708 7.89714C19.2708 8.24247 19.1337 8.57366 18.8895 8.81785C18.6453 9.06204 18.3141 9.19922 17.9688 9.19922C17.6234 9.19922 17.2922 9.06204 17.048 8.81785C16.8039 8.57366 16.6667 8.24247 16.6667 7.89714C16.6667 7.5518 16.8039 7.22061 17.048 6.97642C17.2922 6.73224 17.6234 6.59505 17.9688 6.59505ZM12.5 8.15755C13.8813 8.15755 15.2061 8.70629 16.1829 9.68304C17.1596 10.6598 17.7083 11.9846 17.7083 13.3659C17.7083 14.7472 17.1596 16.072 16.1829 17.0487C15.2061 18.0255 13.8813 18.5742 12.5 18.5742C11.1187 18.5742 9.79391 18.0255 8.81716 17.0487C7.84041 16.072 7.29168 14.7472 7.29168 13.3659C7.29168 11.9846 7.84041 10.6598 8.81716 9.68304C9.79391 8.70629 11.1187 8.15755 12.5 8.15755ZM12.5 10.2409C11.6712 10.2409 10.8764 10.5701 10.2903 11.1562C9.70425 11.7422 9.37501 12.5371 9.37501 13.3659C9.37501 14.1947 9.70425 14.9895 10.2903 15.5756C10.8764 16.1616 11.6712 16.4909 12.5 16.4909C13.3288 16.4909 14.1237 16.1616 14.7097 15.5756C15.2958 14.9895 15.625 14.1947 15.625 13.3659C15.625 12.5371 15.2958 11.7422 14.7097 11.1562C14.1237 10.5701 13.3288 10.2409 12.5 10.2409Z" fill="white"/>
</svg>
