<svg width="25" height="26" viewBox="0 0 25 26" fill="none" xmlns="http://www.w3.org/2000/svg">
<path d="M20.8333 19.6156H18.75V10.501L12.5 14.4072L6.25 10.501V19.6156H4.16666V7.11556H5.41666L12.5 11.5426L19.5833 7.11556H20.8333M20.8333 5.03223H4.16666C3.01041 5.03223 2.08333 5.95931 2.08333 7.11556V19.6156C2.08333 20.1681 2.30282 20.698 2.69352 21.0887C3.08422 21.4794 3.61413 21.6989 4.16666 21.6989H20.8333C21.3859 21.6989 21.9158 21.4794 22.3065 21.0887C22.6972 20.698 22.9167 20.1681 22.9167 19.6156V7.11556C22.9167 6.56303 22.6972 6.03312 22.3065 5.64242C21.9158 5.25172 21.3859 5.03223 20.8333 5.03223Z" fill="white"/>
</svg>
