<svg width="25" height="26" viewBox="0 0 25 26" fill="none" xmlns="http://www.w3.org/2000/svg">
<path d="M12.5 2.94922C6.75001 2.94922 2.08334 7.61589 2.08334 13.3659C2.08334 19.1159 6.75001 23.7826 12.5 23.7826C18.25 23.7826 22.9167 19.1159 22.9167 13.3659C22.9167 7.61589 18.25 2.94922 12.5 2.94922ZM17.3333 10.0326C17.1771 11.6784 16.5 15.6784 16.1563 17.5221C16.0104 18.3034 15.7188 18.5638 15.4479 18.5951C14.8438 18.6471 14.3854 18.1992 13.8021 17.8138C12.8854 17.2096 12.3646 16.8346 11.4792 16.2513C10.4479 15.5742 11.1146 15.1992 11.7083 14.5951C11.8646 14.4388 14.5313 12.0117 14.5833 11.793C14.5906 11.7598 14.5896 11.7254 14.5805 11.6928C14.5715 11.6601 14.5545 11.6301 14.5313 11.6055C14.4688 11.5534 14.3854 11.5742 14.3125 11.5846C14.2188 11.6055 12.7604 12.5742 9.91668 14.4909C9.50001 14.7721 9.12501 14.918 8.79168 14.9076C8.41668 14.8971 7.70834 14.6992 7.17709 14.5221C6.52084 14.3138 6.01043 14.1992 6.05209 13.8346C6.07293 13.6471 6.33334 13.4596 6.82293 13.2617C9.86459 11.9388 11.8854 11.0638 12.8958 10.6471C15.7917 9.4388 16.3854 9.23047 16.7813 9.23047C16.8646 9.23047 17.0625 9.2513 17.1875 9.35547C17.2917 9.4388 17.3229 9.55339 17.3333 9.63672C17.3229 9.69922 17.3438 9.88672 17.3333 10.0326Z" fill="white"/>
</svg>
