<svg width="99" height="45" viewBox="0 0 99 45" fill="none" xmlns="http://www.w3.org/2000/svg">
<path d="M0 1.93942C0.736843 0.34203 1.76786 -0.265964 3.11143 0.10981C3.9501 0.34203 4.46631 0.919061 4.80857 1.68187C5.58219 3.40874 6.5736 4.97658 7.94263 6.31501C15.0324 13.2422 27.0708 11.0875 31.2557 2.10972C31.3844 1.82824 31.506 1.54676 31.656 1.28921C32.151 0.408178 32.9288 -0.0351507 33.9188 0.0225524C34.9088 0.0802555 35.6513 0.59536 36.0516 1.51861C38.1023 6.23619 41.6719 9.11854 46.7096 10.1516C53.0739 11.4633 59.714 8.13477 62.5072 2.29127C62.6599 1.9732 62.79 1.64668 62.9598 1.33846C63.4406 0.450399 64.2114 -0.0112257 65.2071 0.019737C66.2338 0.0521071 66.9876 0.582695 67.4034 1.53128C69.6889 6.73019 73.7182 9.59564 79.3188 10.3542C79.7841 10.4176 80.2607 10.3908 80.7331 10.4204C82.228 10.5104 83.2788 11.566 83.2392 12.9283C83.1968 14.3442 82.095 15.3491 80.5521 15.3068C74.4838 15.137 69.5074 12.7238 65.6229 8.06721C65.4616 7.8744 65.3061 7.67455 65.1307 7.4564C61.1155 12.5385 55.9251 15.2843 49.4519 15.2857C42.9787 15.2871 37.7911 12.5413 33.8127 7.51974C27.6903 14.7467 20.1338 16.8958 11.0668 14.0965C11.1003 14.2309 11.1438 14.3626 11.1969 14.4906C15.1748 22.4855 19.1574 30.4795 23.1448 38.4725C23.6638 39.5126 24.6369 39.9165 25.7315 40.0742C25.9665 40.0963 26.2029 40.1015 26.4387 40.0896C42.0175 40.0896 57.5958 40.0817 73.1737 40.0657C73.9587 40.0657 74.7846 39.7842 75.5116 39.4605C75.9358 39.2719 76.3007 38.7822 76.5143 38.3346C82.3807 26.2019 88.2307 14.0608 94.0641 1.91127C94.5917 0.810692 95.279 -0.0210767 96.5872 0.00284897C97.8601 0.0253673 98.5899 0.80084 99.0014 1.93238V3.0583C98.8317 3.38481 98.6535 3.70851 98.4937 4.04347C92.6272 16.2315 86.7565 28.4172 80.8816 40.6005C80.5607 41.2527 80.1415 41.8521 79.6384 42.3781C77.8847 44.2077 75.6869 44.9972 73.1582 44.9958C57.601 44.9874 42.0439 44.9874 26.4867 44.9958C26.2279 44.9958 25.9663 45.0057 25.7089 44.9831C22.671 44.7242 20.2243 43.4575 18.7775 40.6934C17.151 37.576 15.6406 34.3995 14.0707 31.2526C9.3819 21.8559 4.69166 12.4602 0 3.06534V1.93942Z" fill="white"/>
</svg>
