<svg width="80" height="69" viewBox="0 0 80 69" fill="none" xmlns="http://www.w3.org/2000/svg">
<g clip-path="url(#clip0_38_1714)">
<path d="M21.4158 56.3852C16.5997 56.5975 13.6454 52.0656 15.393 47.7915C13.4123 47.4882 11.8156 46.5781 10.7902 44.8203C10.1609 43.7449 9.83792 42.5756 10.0009 41.341C10.458 37.9011 12.3595 36.3358 16.618 35.8641C15.492 32.6396 16.298 30.0309 19.2081 28.047C18.492 26.7927 19.1243 25.9782 20.1009 25.1167C22.0252 23.4226 22.1791 20.4407 20.5702 18.4584C19.796 17.4883 18.6853 16.8415 17.4564 16.645C16.2275 16.4486 14.9692 16.7167 13.9288 17.3967C13.7384 17.5211 13.5616 17.6682 13.3727 17.7956C12.5728 18.334 11.6175 18.2173 11.0538 17.5165C10.4687 16.7855 10.5814 15.8118 11.3752 15.1656C13.1472 13.7202 15.1949 13.0559 17.4697 13.3137C20.7424 13.6853 23.1192 15.4038 24.3625 18.4387C25.6194 21.5055 25.0664 24.3781 22.9912 26.958L22.6865 27.3387H34.6559C34.1806 26.8958 33.6945 26.5318 33.3197 26.0768C32.4523 24.9912 31.9958 23.6366 32.0299 22.2499C32.064 20.8632 32.5866 19.5325 33.5063 18.4904C34.426 17.4483 35.6844 16.7612 37.0615 16.5491C38.4386 16.337 39.8467 16.6134 41.0399 17.33C43.3009 18.6768 45.5711 20.01 47.861 21.3053C51.5177 23.3756 55.2033 25.411 58.8798 27.4525C59.2337 27.6482 59.605 27.8112 59.9889 27.9393C62.6842 28.8494 64.9376 30.3661 66.5999 32.6927C66.8756 33.0764 67.1758 33.1735 67.6161 33.1705C70.9924 33.1568 74.3703 33.1629 77.7481 33.1705C79.4424 33.1705 80.0046 33.721 80.0061 35.3773V59.1895C80.0061 60.8276 79.4622 61.3645 77.809 61.3691C76.8949 61.3691 75.9807 61.3797 75.0666 61.3691C73.9391 61.3524 73.1864 60.6759 73.1925 59.7143C73.1986 58.7527 73.9543 58.0945 75.0864 58.0687C75.5861 58.0566 76.0874 58.0687 76.6206 58.0687V36.4708H75.7598C72.6364 36.4708 69.513 36.4511 66.3896 36.4829C65.416 36.4936 64.7868 36.1432 64.3053 35.2863C63.0941 33.128 61.1713 31.8312 58.8569 31.0501C58.3759 30.8959 57.9099 30.6989 57.4643 30.4616C51.9712 27.41 46.4862 24.3498 41.0094 21.281C40.4872 20.9733 39.9812 20.6392 39.4934 20.28C39.2152 20.0779 38.8996 19.9326 38.5648 19.8526C38.2299 19.7726 37.8825 19.7595 37.5425 19.8139C37.2025 19.8683 36.8767 19.9893 36.5839 20.1698C36.2911 20.3502 36.0372 20.5867 35.8367 20.8654C34.9744 22.05 35.2532 23.5955 36.4858 24.4479C37.9637 25.4732 39.4462 26.4924 40.9225 27.5222C41.8047 28.138 42.0759 28.7766 41.8154 29.5652C41.5548 30.3539 40.9835 30.7164 39.9002 30.7164C34.1364 30.7164 28.3726 30.6952 22.6088 30.7468C21.8332 30.7569 21.0763 30.9851 20.4255 31.405C19.071 32.3378 19.1609 34.3929 20.4849 35.3833C20.9907 35.7812 21.6216 35.988 22.266 35.9673C26.8109 35.9111 31.3573 35.9324 35.9023 35.943C37.0343 35.943 37.7854 36.6331 37.7809 37.5947C37.7763 38.5563 37.0191 39.2312 35.887 39.2342C31.3421 39.2449 26.7957 39.2494 22.2507 39.2236C21.7708 39.2236 21.2924 39.0067 20.8795 38.9051C20.2914 39.0189 19.717 39.1918 19.1334 39.2267C17.9694 39.2949 16.7978 39.2464 15.6292 39.3237C14.363 39.4056 13.4184 40.481 13.3895 41.7611C13.3605 43.0685 14.2244 44.1514 15.4692 44.3395C15.7955 44.3873 16.1251 44.4101 16.4549 44.4077C22.7525 44.4249 29.0501 44.4386 35.3477 44.4487C35.6006 44.4487 35.855 44.4487 36.1095 44.4563C37.0724 44.5063 37.7717 45.1858 37.7854 46.0776C37.7961 46.9255 37.1394 47.6338 36.2222 47.746C35.944 47.7685 35.6647 47.7751 35.3857 47.7657C30.5102 47.7824 25.6347 47.79 20.7591 47.8188C20.1579 47.8201 19.5774 48.0382 19.1253 48.4328C18.6732 48.8274 18.38 49.3717 18.3 49.9649C18.1477 51.4013 18.9217 52.5433 20.2807 52.8467C20.6526 52.9232 21.0316 52.9598 21.4112 52.9559C26.2365 52.965 31.0602 52.9559 35.8855 52.9711C37.3192 52.9711 38.1831 54.1708 37.6056 55.3341C37.2491 56.053 36.6153 56.2896 35.8428 56.2911C32.8977 56.2911 29.9526 56.2911 27.0059 56.3184C25.4732 56.3321 24.3945 57.4089 24.3884 58.8741C24.3823 60.3392 25.4381 61.4692 26.9617 61.4692C36.9911 61.4793 47.0215 61.4757 57.053 61.4585C57.603 61.4585 58.156 61.3145 58.7045 61.2159C59.6827 61.0414 60.5176 61.5435 60.7477 62.4611C60.8007 62.6707 60.8104 62.8889 60.7764 63.1024C60.7423 63.3159 60.6651 63.5203 60.5495 63.7033C60.4339 63.8863 60.2822 64.0441 60.1036 64.1671C59.9251 64.2902 59.7233 64.3759 59.5105 64.4192C58.574 64.642 57.6164 64.7655 56.6538 64.7877C46.8011 64.813 36.9485 64.817 27.0958 64.7998C25.0968 64.7998 23.4392 64.0415 22.2203 62.4414C21.9704 62.1153 21.7708 62 21.3442 62.1684C19.8304 62.7707 18.2077 63.0542 16.5784 63.001C16.1319 62.9859 15.9186 63.139 15.7084 63.5288C13.7825 67.1068 9.80288 68.7827 5.9573 67.6619C2.22294 66.5714 -0.248349 63.0223 0.0396128 59.0424C0.21178 56.6582 1.29049 54.6971 3.17977 53.2092C3.53324 52.9301 3.67951 52.7087 3.582 52.2142C3.225 50.4746 3.25046 48.6786 3.65665 46.9497C3.71355 46.7622 3.71794 46.5629 3.66934 46.3731C3.62074 46.1833 3.521 46.0103 3.38088 45.8729C1.6653 43.889 1.23412 41.6261 2.11019 39.1584C2.28236 38.67 2.25341 38.35 1.97307 37.9208C-0.0609448 34.813 -0.521074 31.4687 0.585064 27.9257C0.929399 26.82 1.94564 26.3407 2.90552 26.7791C3.6597 27.1249 4.04365 27.9378 3.77702 28.8236C2.83086 31.9677 3.44944 34.7493 5.61601 37.217C6.23612 37.9238 6.24069 38.5821 5.74095 39.3692C4.52206 41.2985 4.80393 42.888 6.63073 44.3167C7.32702 44.8627 7.56775 45.477 7.27674 46.3233C6.49666 48.5817 6.51494 50.8249 7.22951 53.0939C7.53423 54.0585 7.17923 54.6971 6.16299 55.2325C3.83034 56.464 2.7882 58.9302 3.60942 61.3023C3.94839 62.289 4.59014 63.1447 5.44404 63.7486C6.29794 64.3526 7.32085 64.6742 8.36832 64.6682C9.41579 64.6622 10.4349 64.3287 11.2817 63.715C12.1285 63.1012 12.7603 62.2382 13.0878 61.2477C13.5936 59.731 13.9319 59.502 15.5255 59.64C17.2198 59.7917 18.8775 59.64 20.4468 58.9545C20.6708 58.8574 20.9389 58.642 20.9983 58.4282C21.1842 57.7578 21.2833 57.0707 21.4158 56.3852Z" fill="white"/>
<path d="M8.32498 0.00300683C9.64244 0.000919267 10.9309 0.388319 12.0269 1.11609C13.1229 1.84385 13.9771 2.87921 14.4813 4.09088C14.9855 5.30256 15.1168 6.63597 14.8588 7.92207C14.6007 9.20816 13.9648 10.389 13.0317 11.3149C12.0986 12.2408 10.9104 12.87 9.6176 13.1227C8.32484 13.3755 6.98578 13.2404 5.77023 12.7347C4.55467 12.2289 3.51736 11.3752 2.78981 10.2818C2.06226 9.1884 1.67724 7.90458 1.68358 6.5931C1.68216 5.72549 1.85314 4.86617 2.18666 4.0646C2.52018 3.26303 3.00967 2.53504 3.62694 1.92254C4.24422 1.31003 4.97709 0.825105 5.78337 0.495672C6.58966 0.16624 7.45343 -0.00119436 8.32498 0.00300683ZM11.651 6.58855C11.6438 5.93694 11.443 5.30205 11.0738 4.7639C10.7047 4.22575 10.1838 3.80842 9.57676 3.56451C8.96974 3.32061 8.30377 3.26104 7.6628 3.39333C7.02182 3.52562 6.43453 3.84384 5.97495 4.30788C5.51537 4.77192 5.20407 5.361 5.08029 6.00089C4.95651 6.64077 5.02579 7.30281 5.27939 7.90356C5.53299 8.50432 5.95957 9.01689 6.50536 9.37667C7.05114 9.73646 7.69171 9.92736 8.34631 9.9253C8.78429 9.92534 9.21791 9.83872 9.62197 9.67046C10.026 9.5022 10.3925 9.25567 10.6999 8.94519C11.0074 8.63472 11.2499 8.26649 11.4131 7.86192C11.5764 7.45734 11.6573 7.0245 11.651 6.58855Z" fill="white"/>
<path d="M29.9191 16.5746C28.9327 16.5596 27.9729 16.2545 27.1604 15.6976C26.3479 15.1407 25.719 14.3569 25.3531 13.445C24.9871 12.5331 24.9004 11.5338 25.1037 10.5729C25.3071 9.61197 25.7916 8.73246 26.496 8.04506C27.2005 7.35766 28.0936 6.89312 29.0627 6.70992C30.0319 6.52673 31.0338 6.63306 31.9424 7.01555C32.8509 7.39803 33.6255 8.03956 34.1686 8.85936C34.7116 9.67916 34.9989 10.6406 34.9942 11.6226C34.9902 12.2802 34.8555 12.9306 34.5978 13.5361C34.3401 14.1417 33.9645 14.6905 33.4927 15.1509C33.0209 15.6112 32.4622 15.9741 31.8489 16.2184C31.2355 16.4628 30.5796 16.5838 29.9191 16.5746ZM28.3513 11.5179C28.33 11.9494 28.4804 12.3719 28.7698 12.6939C29.0593 13.0158 29.4645 13.2112 29.8977 13.2379C30.1196 13.2499 30.3417 13.2179 30.551 13.1437C30.7603 13.0695 30.9528 12.9546 31.1171 12.8057C31.2814 12.6568 31.4144 12.4769 31.5082 12.2764C31.602 12.0758 31.6548 11.8588 31.6636 11.6377C31.6641 11.2043 31.4986 10.787 31.2008 10.4708C30.903 10.1547 30.4953 9.96339 30.0608 9.93599C29.6249 9.92399 29.2017 10.0826 28.8821 10.3779C28.5624 10.6731 28.3718 11.0813 28.3513 11.5149V11.5179Z" fill="white"/>
<path d="M9.34427 22.3382C9.34527 22.5533 9.3037 22.7665 9.22193 22.9656C9.14016 23.1647 9.0198 23.3459 8.86771 23.4987C8.71562 23.6515 8.53478 23.773 8.33552 23.8562C8.13626 23.9395 7.92249 23.9828 7.7064 23.9838C7.49031 23.9848 7.27614 23.9434 7.07611 23.862C6.87609 23.7806 6.69413 23.6608 6.54063 23.5094C6.38712 23.358 6.26507 23.178 6.18146 22.9796C6.09784 22.7813 6.05428 22.5685 6.05328 22.3534C6.05756 21.9195 6.23145 21.5043 6.53808 21.196C6.84471 20.8876 7.25996 20.7103 7.69573 20.7017C8.13143 20.704 8.54866 20.8771 8.85718 21.1833C9.16569 21.4896 9.34068 21.9045 9.34427 22.3382Z" fill="white"/>
<path d="M68.1662 59.6748C68.1742 59.8939 68.138 60.1123 68.0597 60.3172C67.9814 60.522 67.8626 60.7092 67.7104 60.8675C67.5581 61.0258 67.3754 61.1521 67.1732 61.2389C66.971 61.3257 66.7534 61.3712 66.5332 61.3727C66.313 61.3742 66.0948 61.3318 65.8914 61.2478C65.688 61.1638 65.5036 61.0401 65.3491 60.8838C65.1946 60.7276 65.0732 60.5422 64.9921 60.3384C64.9109 60.1346 64.8717 59.9167 64.8767 59.6976C64.8864 59.2717 65.0624 58.8662 65.3674 58.5674C65.6724 58.2685 66.0824 58.0997 66.5103 58.0967C66.9383 58.0938 67.3506 58.2569 67.6597 58.5515C67.9689 58.8461 68.1505 59.2491 68.1662 59.6748Z" fill="white"/>
</g>
<defs>
<clipPath id="clip0_38_1714">
<rect width="80" height="68" fill="white" transform="translate(0 0.00292969)"/>
</clipPath>
</defs>
</svg>
