<svg width="63" height="60" viewBox="0 0 63 60" fill="none" xmlns="http://www.w3.org/2000/svg">
<g clip-path="url(#clip0_34_1393)">
<path d="M-1.40723e-05 28.9504H7.80636V44.7651H45.9424C45.2142 44.1196 44.472 43.4211 43.6914 42.7768C43.525 42.64 43.2127 42.6477 42.9683 42.6477C32.2416 42.6417 21.5144 42.6417 10.7869 42.6477H10.0075V38.307H29.933C29.4057 37.7222 28.9821 37.2199 28.5252 36.7577C28.3973 36.6351 28.1541 36.6222 27.9583 36.5912C27.2058 36.4724 26.4521 36.3626 25.6983 36.2542C25.3862 36.197 25.0707 36.1608 24.7539 36.1457C20.105 36.1397 15.4553 36.1397 10.8048 36.1457H9.97807V35.3866C9.97807 33.4293 9.90768 31.4681 9.99854 29.5147C10.083 27.6942 9.07714 26.62 7.26631 26.7297C5.82277 26.8162 4.369 26.7478 2.94977 26.7478C2.89346 26.682 2.84099 26.6497 2.84227 26.6187C2.86147 24.3838 2.7143 22.1309 2.94721 19.9192C3.31961 16.3648 6.3705 13.7516 9.93584 13.731C14.9473 13.7025 19.9587 13.7232 24.9701 13.7232H32.7356C32.8175 13.3862 32.8891 13.0777 32.9685 12.7678C34.3557 7.34517 40.1875 4.56285 45.1963 6.95784C45.6378 7.17087 45.9194 7.13472 46.3366 6.88941C48.6171 5.54796 50.9155 5.59831 53.0744 7.11794C55.2333 8.63756 55.987 10.7821 55.6274 13.3772C55.598 13.5876 55.6466 13.9207 55.7861 14.0227C58.2176 15.8419 59.075 19.7759 56.5655 22.6615C56.5465 22.6999 56.5315 22.7401 56.5207 22.7816C56.6384 22.9107 56.7702 23.0721 56.9149 23.218C58.105 24.4226 59.3016 25.6181 60.4866 26.8266C63.8267 30.2377 63.8433 35.313 60.5147 38.746C59.107 40.192 57.6673 41.5955 56.2775 43.0518C56.032 43.3283 55.8883 43.6817 55.8706 44.0524C55.8386 46.676 55.8527 49.3021 55.8527 51.9282V52.7557H52.9861V59.9833C51.5912 59.9833 50.2564 59.9975 48.9216 59.9614C48.7757 59.9614 48.5761 59.6877 48.5044 59.5005C47.711 57.4618 46.9278 55.418 46.1689 53.3651C46.0064 52.9262 45.8068 52.7441 45.3064 52.7441C33.7035 52.7605 22.1006 52.7605 10.4976 52.7441C10.0049 52.7441 9.79507 52.9055 9.6287 53.3574C8.88006 55.3896 8.08278 57.405 7.32518 59.4372C7.17801 59.8348 7.00525 60.0104 6.55734 59.9988C5.32752 59.9627 4.09641 59.9859 2.80644 59.9859V52.7648H-0.00897217L-1.40723e-05 28.9504ZM49.9352 43.607C51.8254 43.5954 53.2625 42.9899 54.4578 41.7995C55.973 40.2863 57.4907 38.7744 58.9791 37.2341C61.4963 34.63 61.472 30.94 58.9407 28.3436C58.0589 27.4399 57.1631 26.5464 56.2737 25.6491C53.1678 22.5156 50.0747 19.3692 46.9508 16.2538C44.4464 13.7568 40.748 13.7581 38.2359 16.2383C36.6669 17.7876 35.1018 19.3447 33.5828 20.9443C31.2971 23.3522 31.2332 27.019 33.538 29.3946C37.6331 33.6229 41.8076 37.7867 45.9706 41.9492C47.0223 43.0098 48.4482 43.6061 49.9352 43.607ZM52.5753 14.9911C54.0035 12.5883 53.8256 10.4722 52.0928 9.06233C51.3435 8.44279 50.3953 8.12132 49.4271 8.15856C47.949 8.19472 46.8613 8.93322 46.0384 10.1094C43.8283 8.24507 41.4186 7.71572 38.79 8.8493C36.6951 9.75307 35.4486 11.4108 34.9597 13.7271C35.9029 13.7271 36.7757 13.7387 37.6472 13.718C37.8344 13.698 38.0138 13.6315 38.1693 13.5244C41.6527 11.4173 45.6519 11.8989 48.5352 14.7909C50.5021 16.7599 52.4563 18.7443 54.4219 20.721C54.5832 20.8836 54.7547 21.0373 54.9198 21.1948C56.6935 19.3795 56.1675 15.6599 52.5753 14.9911ZM37.7585 36.7551C35.8991 34.8805 34.0665 33.051 32.2557 31.2034C30.0609 28.9646 29.2931 26.2895 29.9726 23.2218C30.0724 22.7738 29.9342 22.5995 29.6079 22.4097C28.9641 22.0323 28.2063 21.9036 27.4755 22.0478C26.7447 22.1919 26.0907 22.5989 25.6352 23.1932C25.1796 23.7874 24.9536 24.5284 24.9991 25.2783C25.0446 26.0281 25.3586 26.7357 25.8826 27.2694C26.0515 27.4424 26.2345 27.5999 26.4201 27.7717C24.4327 28.9724 23.7608 30.6728 24.5478 32.4274C25.3592 34.2349 26.9844 34.7638 29.4236 34.0141C31.5326 37.6679 34.9418 38.8157 37.7585 36.7551ZM20.5832 21.9643L19.123 23.786C18.583 23.1302 18.1389 22.5879 17.7153 22.074L15.9992 23.7254L17.7908 25.2347L16.1681 26.6923L17.6795 28.2623L19.1602 26.6342C19.7168 27.2281 20.1942 27.7368 20.6587 28.23L22.2546 26.5826L20.6127 25.1469L22.2763 23.6466C21.7324 23.1069 21.25 22.6318 20.5832 21.9643Z" fill="white"/>
<path d="M24.9638 0.000112221C25.5294 -0.000742736 26.0896 0.111191 26.6121 0.32948C27.1347 0.547769 27.6094 0.868107 28.0089 1.27208C28.4083 1.67606 28.7247 2.1557 28.9398 2.68344C29.155 3.21119 29.2646 3.77662 29.2624 4.34725C29.2412 5.48434 28.7781 6.56752 27.9729 7.36344C27.1676 8.15936 26.0848 8.60432 24.9575 8.60246C23.8302 8.6006 22.7488 8.15206 21.9461 7.35348C21.1435 6.55491 20.6839 5.4702 20.6664 4.33305C20.6627 3.76276 20.7713 3.19742 20.986 2.66985C21.2006 2.14227 21.5171 1.663 21.9169 1.25986C22.3167 0.856722 22.792 0.537758 23.315 0.321498C23.8381 0.105239 24.3985 -0.00400559 24.9638 0.000112221ZM24.942 6.49305C25.3663 6.49404 25.7815 6.36832 26.1351 6.13173C26.4888 5.89513 26.7651 5.55825 26.9294 5.1635C27.0936 4.76875 27.1384 4.3338 27.0581 3.91343C26.9777 3.49306 26.7759 3.10607 26.478 2.80121C26.1801 2.49634 25.7994 2.28724 25.3839 2.20023C24.9684 2.11322 24.5367 2.15221 24.1431 2.31227C23.7496 2.47233 23.4118 2.74632 23.1722 3.09971C22.9327 3.4531 22.8022 3.8701 22.7972 4.29818C22.7971 4.87497 23.0221 5.4286 23.4235 5.83934C23.8249 6.25008 24.3704 6.48491 24.942 6.49305Z" fill="white"/>
<path d="M12.7449 3.61637C13.4528 3.60973 14.1468 3.8152 14.7389 4.20676C15.331 4.59831 15.7946 5.15833 16.071 5.8159C16.3474 6.47347 16.4242 7.199 16.2916 7.90063C16.1591 8.60225 15.8231 9.2484 15.3263 9.75724C14.8294 10.2661 14.1941 10.6147 13.5007 10.759C12.8074 10.9034 12.0871 10.8368 11.4313 10.5679C10.7754 10.2989 10.2134 9.83968 9.81642 9.24827C9.41944 8.65686 9.20536 7.9599 9.20128 7.24565C9.19514 6.29059 9.5648 5.37209 10.2291 4.69168C10.8935 4.01128 11.7982 3.62455 12.7449 3.61637ZM14.1922 7.20433C14.1889 6.82599 14.0382 6.46417 13.7726 6.19699C13.5071 5.92982 13.148 5.77873 12.773 5.77638C12.5872 5.77484 12.4029 5.81045 12.2308 5.88113C12.0586 5.95182 11.9021 6.05618 11.7702 6.18822C11.6382 6.32025 11.5335 6.47733 11.462 6.6504C11.3906 6.82347 11.3538 7.0091 11.3538 7.19659C11.3504 7.38939 11.3853 7.58092 11.4566 7.75984C11.5279 7.93876 11.634 8.10143 11.7687 8.2382C11.9035 8.37498 12.0641 8.48307 12.241 8.55609C12.4179 8.62911 12.6075 8.66555 12.7986 8.66328C13.1731 8.64988 13.5277 8.49024 13.7878 8.21804C14.0478 7.94584 14.1928 7.58237 14.1922 7.20433Z" fill="white"/>
<path d="M56.5194 32.6171C56.5153 33.0473 56.3849 33.4665 56.1445 33.8219C55.9042 34.1772 55.5648 34.4526 55.1692 34.6132C54.7737 34.7739 54.3398 34.8126 53.9225 34.7243C53.5052 34.6361 53.1232 34.425 52.8248 34.1177C52.5265 33.8103 52.3252 33.4206 52.2464 32.9979C52.1677 32.5751 52.215 32.1382 52.3825 31.7426C52.5499 31.347 52.8299 31.0104 53.187 30.7753C53.5441 30.5403 53.9623 30.4174 54.3887 30.4223C54.9579 30.4341 55.4998 30.6705 55.8981 31.0809C56.2965 31.4912 56.5195 32.0428 56.5194 32.6171Z" fill="white"/>
<path d="M41.4506 26.505C41.444 26.7412 41.3911 26.9738 41.2948 27.1892C41.1986 27.4046 41.061 27.5987 40.89 27.7602C40.719 27.9217 40.518 28.0473 40.2986 28.13C40.0791 28.2126 39.8457 28.2505 39.6116 28.2415C39.3753 28.2383 39.1421 28.1875 38.9255 28.0923C38.7089 27.997 38.5133 27.8591 38.3501 27.6867C38.1869 27.5143 38.0595 27.3107 37.9752 27.088C37.8909 26.8653 37.8515 26.6279 37.8592 26.3896C37.867 26.1513 37.9217 25.917 38.0203 25.7004C38.1188 25.4837 38.2592 25.289 38.4332 25.1277C38.6072 24.9665 38.8114 24.8418 39.0337 24.7611C39.256 24.6803 39.4921 24.6451 39.7281 24.6574C39.9622 24.6622 40.1929 24.7141 40.4069 24.81C40.6209 24.9059 40.8137 25.044 40.9742 25.216C41.1346 25.3881 41.2593 25.5907 41.3412 25.8121C41.423 26.0334 41.4602 26.269 41.4506 26.505Z" fill="white"/>
<path d="M44.3428 26.0557C44.3444 25.8683 44.383 25.6831 44.4564 25.5109C44.5298 25.3387 44.6364 25.183 44.7701 25.0528C44.9037 24.9226 45.0618 24.8206 45.2349 24.7528C45.4081 24.6849 45.5929 24.6525 45.7786 24.6575C46.1533 24.6605 46.5119 24.8118 46.7771 25.0789C47.0423 25.346 47.1929 25.7074 47.1966 26.0854C47.1936 26.2782 47.153 26.4684 47.077 26.6453C47.0011 26.8222 46.8914 26.9822 46.7541 27.1163C46.6168 27.2503 46.4547 27.3558 46.277 27.4266C46.0993 27.4974 45.9095 27.5321 45.7185 27.5289C45.3442 27.5125 44.991 27.3493 44.7341 27.0742C44.4771 26.7991 44.3368 26.4337 44.3428 26.0557Z" fill="white"/>
<path d="M47.8966 34.0644C47.8953 34.2519 47.8572 34.4373 47.7844 34.6098C47.7117 34.7824 47.6059 34.9387 47.473 35.0698C47.3401 35.2009 47.1828 35.3041 47.0102 35.3735C46.8375 35.4429 46.653 35.4772 46.4671 35.4743C46.0924 35.468 45.7348 35.3152 45.4696 35.0481C45.2044 34.781 45.0523 34.4205 45.0453 34.0425C45.0534 33.6538 45.2127 33.2838 45.4887 33.0126C45.7648 32.7413 46.1355 32.5904 46.5209 32.5926C46.8955 32.6074 47.2495 32.7698 47.5067 33.045C47.7639 33.3202 47.9039 33.6862 47.8966 34.0644Z" fill="white"/>
</g>
<defs>
<clipPath id="clip0_34_1393">
<rect width="63" height="60" fill="white"/>
</clipPath>
</defs>
</svg>
