<svg width="67" height="68" viewBox="0 0 67 68" fill="none" xmlns="http://www.w3.org/2000/svg">
<g clip-path="url(#clip0_34_1387)">
<path d="M52.3511 35.2838C53.8369 37.0062 54.1599 38.936 53.1987 41.1002C55.2564 41.9865 56.5175 43.4925 56.5175 45.8062C56.5175 48.1199 55.2793 49.6477 53.1795 50.543C53.7233 51.6561 53.8982 52.8026 53.6161 53.9917C53.0749 56.2667 51.1742 57.7611 48.7782 57.8062C47.9945 57.8203 47.2107 57.8062 46.5584 57.8062C46.598 58.8535 46.778 59.8674 46.6439 60.8245C46.3325 63.0442 44.4126 64.6893 42.1941 64.8181C41.8329 64.8374 41.4716 64.8413 41.1104 64.8413H11.1705C11.1705 65.4197 11.1807 65.9466 11.1705 66.4748C11.1488 67.3984 10.6165 67.9807 9.70382 67.9872C6.95938 68.0061 4.21537 68.0061 1.47179 67.9872C0.57825 67.9872 0.0676566 67.4319 0.0102149 66.534C3.01562e-06 66.3846 0.0102149 66.2339 0.0102149 66.0831C0.0102149 56.4454 0.0102149 46.8071 0.0102149 37.1685C0.00615911 36.9755 0.0116976 36.7825 0.0268093 36.5901C0.109781 35.7849 0.598673 35.2838 1.40796 35.2786C4.19325 35.2606 6.97938 35.2606 9.76637 35.2786C10.6152 35.2851 11.1424 35.8493 11.1705 36.7034C11.1871 37.1079 11.1705 37.515 11.1705 37.9775C13.6813 37.6567 15.8233 36.6558 17.5772 34.905C18.3225 34.1416 18.9868 33.3019 19.5595 32.3994C21.2509 29.7997 22.8656 27.1498 24.548 24.5411C25.6764 22.793 27.3397 22.029 29.3668 22.3215C31.344 22.6075 32.6856 23.7914 33.3085 25.7224C33.7795 27.1949 33.5485 28.6055 32.7316 29.9131C32.0397 31.0197 31.3376 32.1199 30.642 33.2239C30.5335 33.3991 30.439 33.582 30.305 33.8203H38.6736C38.394 32.9327 38.0698 32.0773 37.8605 31.1936C37.512 29.725 37.7405 28.3002 38.3277 26.9205C39.3488 24.5308 40.8232 22.4387 42.4341 20.4355C43.2638 19.4049 44.1395 18.4065 45.033 17.4287C45.6228 16.7846 46.4882 16.7511 47.0677 17.3785C49.613 20.1315 51.9809 23.0171 53.6123 26.4464C55.0815 29.5382 54.5326 32.3517 52.5336 34.9888C52.4813 35.0571 52.4302 35.1241 52.3804 35.1936C52.3683 35.2228 52.3584 35.253 52.3511 35.2838ZM11.1948 62.02H11.8828C21.7738 62.02 31.6661 62.02 41.5597 62.02C41.816 62.0264 42.0724 62.0092 42.3256 61.9685C43.3264 61.7856 44.0476 60.8091 43.9761 59.7592C43.9414 59.2514 43.7219 58.7745 43.3596 58.4203C42.9974 58.0662 42.5181 57.8598 42.0141 57.841C41.5469 57.8255 41.0785 57.8178 40.61 57.8165C38.8434 57.8165 37.078 57.8255 35.3126 57.81C34.2774 57.801 33.6532 57.1337 33.7604 56.2062C33.8498 55.4474 34.4369 54.9991 35.3739 54.9991C39.799 54.9991 44.2242 54.9991 48.6493 54.9991C50.0011 54.9991 50.9712 54.0973 50.9661 52.8722C50.961 51.6471 50.0011 50.7556 48.6365 50.7556C45.6155 50.7556 42.5945 50.7556 39.5735 50.7556C38.1055 50.7556 36.6376 50.7698 35.1709 50.7479C34.3208 50.7363 33.7464 50.1347 33.7527 49.3308C33.7527 48.5579 34.3221 47.9897 35.1352 47.9356C35.3254 47.9228 35.5181 47.9356 35.7096 47.9356H47.7711C49.0897 47.9356 50.4096 47.9511 51.7282 47.9253C52.2116 47.9191 52.677 47.7389 53.0407 47.4173C53.4043 47.0956 53.6423 46.6536 53.7118 46.1707C53.8778 45.1788 53.3289 44.1817 52.3958 43.8635C52.0299 43.7531 51.649 43.7022 51.2674 43.7128C46.0985 43.7042 40.9296 43.7016 35.7607 43.705C35.5052 43.7116 35.2496 43.7051 34.9948 43.6857C34.6601 43.6531 34.349 43.4979 34.1201 43.2494C33.8912 43.0009 33.7604 42.6763 33.7526 42.3372C33.7447 41.998 33.8603 41.6676 34.0774 41.4086C34.2945 41.1496 34.5982 40.9798 34.9309 40.9315C35.185 40.9008 35.4411 40.8896 35.6968 40.898L48.9722 40.8554C49.8058 40.8554 50.3764 40.4239 50.7427 39.696C51.1091 38.9682 51.0146 38.2403 50.5729 37.5614C50.3266 37.1814 50.0828 37.0461 49.5798 37.2716C47.0128 38.4516 44.4739 38.324 41.9758 36.9997C41.6069 36.8032 41.1981 36.6952 40.7811 36.6841C36.5904 36.6622 32.3997 36.6712 28.2077 36.6687C27.9515 36.6781 27.695 36.6626 27.4418 36.6223C27.2312 36.5862 27.0318 36.5007 26.86 36.3726C26.6881 36.2446 26.5484 36.0775 26.4523 35.8849C26.3561 35.6924 26.3062 35.4797 26.3064 35.264C26.3067 35.0484 26.3572 34.8359 26.4538 34.6435C26.5493 34.4517 26.6576 34.2666 26.778 34.0896C27.9754 32.1894 29.188 30.2983 30.3701 28.3865C31.136 27.1472 30.6509 25.6735 29.3616 25.202C28.3877 24.8464 27.4214 25.2123 26.7921 26.203C25.1182 28.8413 23.4503 31.4826 21.7883 34.1269C20.1454 36.7434 17.9448 38.7131 15.074 39.8287C13.8371 40.3105 12.521 40.5862 11.1922 40.9688L11.1948 62.02ZM8.33798 65.1401V38.1166H2.82358V65.1401H8.33798ZM46.0772 20.429C44.1037 22.7608 42.2069 25.0667 40.9712 27.8364C40.6939 28.4389 40.5435 29.093 40.5296 29.7572C40.5296 33.2252 43.7846 35.8532 47.1864 35.1434C50.7044 34.4104 52.4838 30.61 51.2482 27.9434C49.9551 25.1492 48.0608 22.8007 46.0772 20.429Z" fill="white"/>
<path d="M56.5737 21.149C54.9952 21.142 53.4781 20.5313 52.3282 19.4399C51.1784 18.3486 50.4813 16.8578 50.3776 15.2682C50.3074 14.2015 50.6329 13.2341 51.0848 12.3052C52.2196 9.96837 53.8407 7.98447 55.5997 6.11265C56.1652 5.51104 56.9834 5.46853 57.5387 6.05983C59.4956 8.13004 61.3388 10.311 62.4059 12.9996C63.9415 16.8746 60.8512 21.1645 56.5737 21.149ZM56.492 9.055C55.4453 10.6769 54.4688 12.1468 53.5344 13.6527C53.3585 13.9359 53.2413 14.2521 53.1897 14.5822C53.1382 14.9123 53.1534 15.2495 53.2344 15.5735C53.4192 16.4665 53.9442 17.2505 54.6964 17.7565C55.4485 18.2626 56.3675 18.4501 57.2553 18.2788C59.2032 17.931 60.5308 15.7758 59.8236 14.0276C59.0935 12.2202 57.8706 10.7349 56.492 9.055Z" fill="white"/>
<path d="M34.8671 6.6796C35.1581 5.88862 35.3241 5.0139 35.7683 4.32211C36.6368 3.0051 37.5787 1.73887 38.5893 0.52952C39.1689 -0.180303 40.0305 -0.162268 40.6598 0.501179C41.8967 1.80617 43.0277 3.20005 43.7859 4.85416C44.5875 6.60617 44.2697 8.48057 42.9728 9.84739C42.3436 10.515 41.532 10.979 40.6412 11.1804C39.7503 11.3819 38.8202 11.3117 37.9689 10.9788C37.1176 10.6459 36.3834 10.0653 35.8596 9.31064C35.3358 8.556 35.0459 7.66133 35.0267 6.74015L34.8671 6.6796ZM39.636 3.40746C38.9889 4.46511 38.4145 5.30504 37.946 6.20166C37.6128 6.84578 37.9332 7.65094 38.5638 8.12115C38.8721 8.35495 39.2472 8.48137 39.6329 8.48137C40.0185 8.48137 40.3936 8.35495 40.7019 8.12115C41.3402 7.65351 41.6554 6.84321 41.3223 6.20424C40.8513 5.30891 40.2743 4.4664 39.636 3.40746Z" fill="white"/>
<path d="M61.4435 31.035C60.9495 31.035 60.5499 31.0453 60.1478 31.035C59.2543 31.008 58.6531 30.4373 58.6518 29.6179C58.6505 28.7986 59.2556 28.2318 60.144 28.2112C60.5461 28.2009 60.9482 28.2112 61.4447 28.2112C61.4447 27.7332 61.4333 27.2914 61.4447 26.8508C61.4703 26.0237 62.0102 25.4337 62.7608 25.3938C63.5114 25.3539 64.1496 25.9323 64.2147 26.7838C64.2492 27.2295 64.2147 27.6791 64.2147 28.2112C64.6819 28.2112 65.1006 28.2022 65.518 28.2112C66.386 28.2331 66.9668 28.7754 66.9911 29.5716C67.014 30.3909 66.4256 30.9886 65.5435 31.0286C65.1248 31.0453 64.7049 31.0286 64.2236 31.0286C64.2236 31.5026 64.2377 31.9046 64.2236 32.3052C64.1841 33.2392 63.5739 33.8769 62.7723 33.8421C61.9707 33.8073 61.455 33.198 61.4396 32.2692C61.4371 31.893 61.4435 31.5104 61.4435 31.035Z" fill="white"/>
<path d="M26.5202 12.7188C26.0415 12.7188 25.642 12.7317 25.2437 12.7188C24.3502 12.6828 23.7426 12.1056 23.7438 11.3018C23.7451 10.4979 24.3476 9.92722 25.2514 9.90789C25.6496 9.90016 26.0492 9.90789 26.5189 9.90789C26.5189 9.43511 26.5062 9.03188 26.5189 8.63124C26.5521 7.6818 27.1316 7.06731 27.9601 7.08535C28.7617 7.10596 29.2927 7.71401 29.308 8.63897C29.3157 9.02544 29.308 9.41192 29.308 9.90531C29.7778 9.90531 30.2131 9.89501 30.6483 9.90531C31.5049 9.92979 32.0946 10.4966 32.1023 11.2863C32.1099 12.0593 31.5636 12.6415 30.7415 12.7034C30.2999 12.7382 29.848 12.7098 29.308 12.7098C29.308 13.1787 29.3157 13.5987 29.308 14.0174C29.2876 14.8986 28.754 15.4886 27.969 15.5156C27.184 15.5427 26.5649 14.9436 26.5215 14.047C26.5023 13.6438 26.5202 13.2367 26.5202 12.7188Z" fill="white"/>
</g>
<defs>
<clipPath id="clip0_34_1387">
<rect width="67" height="68" fill="white"/>
</clipPath>
</defs>
</svg>
