<svg width="53" height="53" viewBox="0 0 53 53" fill="none" xmlns="http://www.w3.org/2000/svg">
<g clip-path="url(#clip0_34_1493)">
<path d="M34.4581 31.4246C35.9338 32.8959 37.4095 34.373 38.8989 35.8365C38.9864 35.923 39.1905 35.9492 39.3227 35.922C41.1251 35.5576 42.6281 36.0668 43.9181 37.37C46.4457 39.9267 49.0074 42.4514 51.5408 45.0023C53.4851 46.9605 53.4851 49.9098 51.5612 51.7251C50.7095 52.542 49.5752 52.9987 48.3948 52.9999C47.2145 53.0012 46.0792 52.547 45.2257 51.7319C43.6401 50.2266 42.1196 48.6533 40.5729 47.1082C39.4715 46.0101 38.3759 44.9061 37.2725 43.8109C36.0262 42.5729 35.579 41.0977 35.9115 39.3738C35.9406 39.2232 35.927 38.9948 35.8337 38.8996C34.3725 37.4098 32.8948 35.9366 31.422 34.4653C22.8136 41.3747 10.4235 39.3903 4.12584 31.2895C-1.9132 23.525 -1.25991 12.5497 5.67643 5.64325C12.6448 -1.29625 23.6292 -1.90264 31.3676 4.20209C39.5823 10.681 41.2476 23.0498 34.4581 31.4246ZM37.114 19.3395C37.1237 9.51191 29.1423 1.52581 19.3236 1.53455C9.50478 1.5433 1.56226 9.47595 1.5331 19.2948C1.50393 29.1137 9.45811 37.0891 19.3041 37.1066C21.642 37.1142 23.9584 36.66 26.1203 35.7703C28.2821 34.8805 30.2469 33.5727 31.9017 31.9218C33.5566 30.2709 34.8689 28.3096 35.7634 26.1504C36.6578 23.9911 37.1168 21.6766 37.114 19.3395ZM37.3464 40.4272C37.3403 40.825 37.4147 41.2199 37.5651 41.5883C37.7154 41.9567 37.9386 42.2909 38.2213 42.571C40.886 45.2414 43.5438 47.9157 46.2289 50.5668C46.5133 50.8516 46.8513 51.0771 47.2235 51.2305C47.5956 51.3838 47.9945 51.4618 48.397 51.46C48.7995 51.4582 49.1977 51.3766 49.5685 51.2199C49.9392 51.0633 50.2752 50.8347 50.557 50.5473C51.7498 49.3443 51.7595 47.4707 50.5706 46.218C50.1691 45.7953 49.7491 45.3911 49.3369 44.979C47.0951 42.7381 44.8511 40.4968 42.6047 38.2553C42.1764 37.8194 41.6275 37.5213 41.0285 37.3992C40.4296 37.2771 39.8078 37.3366 39.2429 37.57C38.678 37.8035 38.1956 38.2002 37.8577 38.7094C37.5199 39.2187 37.3418 39.8171 37.3464 40.4282V40.4272ZM33.482 32.686L32.6421 33.3837L36.7504 37.4992L37.5281 36.7403C36.1691 35.3807 34.7983 34.0086 33.482 32.6889V32.686Z" fill="white"/>
<path d="M19.3041 34.1183C17.3558 34.1169 15.4269 33.7307 13.6284 32.9818C11.8299 32.2329 10.1971 31.1362 8.824 29.7545C7.45085 28.3729 6.36438 26.7336 5.62702 24.9309C4.88965 23.1282 4.51593 21.1976 4.52733 19.25C4.56622 11.1085 11.2352 4.50521 19.3722 4.54116C27.5383 4.57712 34.1295 11.1959 34.113 19.3463C34.0974 27.5364 27.4702 34.1484 19.3041 34.1183ZM19.3449 32.5858C26.6614 32.5722 32.6071 26.6123 32.5857 19.3142C32.5624 11.986 26.6225 6.06783 19.3041 6.08921C17.564 6.08997 15.8412 6.43378 14.2342 7.10095C12.6272 7.76812 11.1676 8.74556 9.93903 9.97731C8.71042 11.2091 7.7369 12.6709 7.07419 14.2792C6.41148 15.8876 6.0726 17.6107 6.07695 19.3501C6.08278 26.6667 12.0295 32.6004 19.343 32.5858H19.3449Z" fill="white"/>
<path d="M9.08674 19.4765C9.15577 16.6311 10.0589 14.2746 11.906 12.295C12.3192 11.8529 12.7809 11.7868 13.1299 12.1133C13.4789 12.4398 13.4498 12.8907 13.0327 13.3465C10.9368 15.6574 10.219 18.3366 10.8794 21.3841C11.0009 21.9507 10.8036 22.3355 10.334 22.4463C9.86447 22.5571 9.5106 22.2908 9.38325 21.7262C9.30839 21.3958 9.23645 21.0625 9.19465 20.7272C9.14215 20.2627 9.11396 19.7914 9.08674 19.4765Z" fill="white"/>
</g>
<defs>
<clipPath id="clip0_34_1493">
<rect width="53" height="53" fill="white"/>
</clipPath>
</defs>
</svg>
