<svg width="52" height="52" viewBox="0 0 52 52" fill="none" xmlns="http://www.w3.org/2000/svg">
<g clip-path="url(#clip0_34_1512)">
<path d="M41.1783 34.8973C42.4272 34.5874 43.7292 34.5577 44.991 34.8104C46.2527 35.0631 47.443 35.5919 48.4764 36.359C49.5098 37.126 50.3608 38.1123 50.9684 39.2471C51.576 40.3819 51.9252 41.6371 51.9908 42.9228C52.2416 47.8297 48.2421 52.0035 43.319 51.9989C37.9127 51.9989 33.4738 46.8366 34.8818 41.2047H13.0152C13.0152 41.4509 13.006 41.6926 13.0152 41.9343C13.0636 42.978 12.5885 43.7341 11.7281 44.2761C10.6664 44.9447 9.48278 45.2508 8.25545 45.3808C6.15621 45.6041 4.08689 45.5201 2.09923 44.6904C0.675204 44.0954 -0.131132 43.1299 0.0126515 41.5027C0.0655636 40.8928 0.0126513 40.2749 0.0241539 39.6615C0.0391074 38.9641 0.48426 38.4785 1.08585 38.4635C1.71159 38.4486 2.17975 38.9503 2.1924 39.6742C2.20276 40.3451 2.23151 41.0194 2.18205 41.6869C2.14639 42.1782 2.36609 42.4245 2.76408 42.6167C3.84188 43.1403 5.0002 43.2853 6.17117 43.314C7.51813 43.3486 8.85013 43.2277 10.1154 42.6972C10.6204 42.4855 10.8608 42.1932 10.8596 41.581C10.8382 29.8822 10.8328 18.1827 10.8435 6.48239V5.9772C9.38155 6.16018 7.95063 6.47894 6.5197 6.47779C5.08877 6.47664 3.65209 6.15442 2.19585 5.9703V30.4058C2.19585 31.4415 1.81397 31.9812 1.0939 31.9686C0.392239 31.9559 0.0218538 31.4254 0.0218538 30.4311C0.0218538 21.5126 0.0333561 12.5942 0.00805029 3.67681C0.00805029 2.44663 0.533721 1.63188 1.55401 1.07376C3.02289 0.268217 4.63326 0.0208009 6.27009 0.0138963C11.8684 -0.00911917 17.4656 0.00238874 23.0639 0.00238874C28.5852 0.00238874 34.1065 0.00238874 39.6278 0.00238874C40.8367 0.00238874 41.1726 0.334962 41.1726 1.53407V34.8973H41.1783ZM34.6287 34.6315V6.55259H13.0612V34.6315H34.6287ZM13.0843 4.35231H35.2959C36.5335 4.35231 36.8326 4.64576 36.8326 5.86213C36.8326 15.6821 36.8326 25.502 36.8326 35.3219C36.8326 36.5095 36.5197 36.826 35.3373 36.826H13.0555V38.9745C13.1832 38.9848 13.2752 38.9975 13.3684 38.9975C20.7301 38.9975 28.0918 38.9933 35.4534 38.9848C35.5667 38.9734 35.6762 38.9386 35.7753 38.8825C35.8743 38.8265 35.9605 38.7504 36.0286 38.6592C36.7049 37.6626 37.5055 36.7892 38.5235 36.147C38.8973 35.9111 39.017 35.6637 39.0158 35.2264C39.0028 24.4276 38.9997 13.6295 39.0066 2.83214V2.20382H12.8726C12.9428 2.91615 13.0152 3.59395 13.0843 4.35231ZM49.3498 41.1138C49.1922 41.3784 49.1197 41.5913 48.9725 41.7363C47.5032 43.2231 46.0278 44.7023 44.5463 46.1737C44.031 46.6858 43.4547 46.7997 43.0141 46.3878C42.0755 45.5132 41.1565 44.6121 40.2903 43.6673C39.7566 43.085 40.0948 42.1713 40.8447 41.9803C41.3048 41.8652 41.6695 42.0194 41.9846 42.3474C42.523 42.9067 43.0636 43.4636 43.5352 43.9504L48.2881 39.1966C46.55 36.7224 42.6518 36.0791 39.8613 37.8502C36.9384 39.7075 35.9791 43.5546 37.6942 46.5374C38.5243 48.0066 39.8951 49.0935 41.5145 49.5664C43.1339 50.0393 44.8739 49.8608 46.3637 49.0691C49.6558 47.3176 50.3988 43.5304 49.3498 41.1138ZM2.29248 3.25332C3.68084 4.68489 9.32289 4.69524 10.7745 3.26023C9.38731 1.81831 3.65899 1.82521 2.29248 3.25678V3.25332Z" fill="white"/>
<path d="M46.5914 25.4367C46.5914 25.2652 46.5845 25.0914 46.5914 24.9211C46.6248 24.2997 47.0516 23.8566 47.6267 23.8336C47.9069 23.8263 48.1789 23.9281 48.3854 24.1178C48.5919 24.3074 48.7166 24.5698 48.7332 24.8498C48.7712 25.2489 48.7712 25.6508 48.7332 26.05C48.6723 26.7106 48.2053 27.1018 47.583 27.0638C46.9975 27.027 46.6145 26.6035 46.5891 25.951C46.5857 25.7796 46.5914 25.6081 46.5914 25.4367Z" fill="white"/>
<path d="M50.3747 29.2227C50.1448 29.2355 49.9144 29.2355 49.6845 29.2227C49.4454 29.1984 49.2224 29.0911 49.0543 28.9193C48.8861 28.7475 48.7835 28.5222 48.7643 28.2825C48.7149 27.7394 48.9944 27.233 49.512 27.1594C50.0758 27.0846 50.6471 27.0846 51.2109 27.1594C51.6952 27.2215 52.0161 27.7417 51.9862 28.2204C51.9733 28.4704 51.8729 28.708 51.7026 28.8915C51.5322 29.0749 51.3028 29.1926 51.0545 29.2239C50.828 29.2359 50.6011 29.2355 50.3747 29.2227Z" fill="white"/>
<path d="M26.5884 46.5879C26.7598 46.5879 26.9335 46.5799 27.1037 46.5879C27.7237 46.6236 28.1642 47.0482 28.1838 47.6236C28.189 47.9037 28.0855 48.175 27.895 48.3803C27.7046 48.5857 27.4419 48.7092 27.1624 48.7249C26.7824 48.7571 26.4005 48.7595 26.0201 48.7318C25.3507 48.6858 24.9423 48.2462 24.955 47.6282C24.9677 47.0103 25.4002 46.6087 26.0742 46.5822C26.2433 46.581 26.4112 46.5868 26.5884 46.5879Z" fill="white"/>
<path d="M24.9607 50.3888C24.9493 50.6547 24.9209 50.9195 24.8756 51.1817C24.8163 51.4245 24.6731 51.6386 24.4713 51.786C24.2696 51.9334 24.0222 52.0048 23.773 51.9874C23.5237 51.9701 23.2886 51.8651 23.1092 51.6912C22.9298 51.5172 22.8176 51.2854 22.7925 51.0367C22.7645 50.6372 22.7607 50.2364 22.781 49.8365C22.8063 49.1989 23.2181 48.78 23.8093 48.7616C24.4006 48.7432 24.8446 49.123 24.9193 49.7582C24.932 49.9674 24.932 50.1773 24.9193 50.3865L24.9607 50.3888Z" fill="white"/>
<path d="M44.9535 29.2307C44.743 29.2307 44.5325 29.2457 44.3243 29.2307C44.0745 29.217 43.8384 29.1125 43.6602 28.9368C43.4821 28.7611 43.3742 28.5264 43.3569 28.2767C43.3075 27.7117 43.6134 27.2192 44.1702 27.1455C44.6974 27.0765 45.2314 27.0765 45.7587 27.1455C46.2717 27.2111 46.6145 27.7324 46.58 28.2296C46.5634 28.4892 46.453 28.7339 46.2692 28.9179C46.0855 29.102 45.841 29.2128 45.5815 29.2296C45.3733 29.2457 45.1628 29.2307 44.9535 29.2307Z" fill="white"/>
<path d="M46.5926 30.8523C46.5926 30.6809 46.5845 30.5071 46.5926 30.3379C46.626 29.7188 47.0527 29.2723 47.6278 29.2493C47.9083 29.2404 48.1811 29.3414 48.3882 29.5308C48.5953 29.7202 48.7203 29.9829 48.7367 30.2631C48.7741 30.6624 48.7741 31.0642 48.7367 31.4634C48.6769 32.1216 48.2053 32.5175 47.5864 32.4784C46.9998 32.4416 46.6179 32.0181 46.5914 31.3679C46.5857 31.1964 46.5914 31.0238 46.5926 30.8523Z" fill="white"/>
<path d="M22.7821 44.9619C22.7821 44.7524 22.7683 44.5407 22.7821 44.3324C22.7947 44.0728 22.9043 43.8275 23.0893 43.645C23.2742 43.4625 23.521 43.3563 23.7806 43.3473C24.3442 43.3197 24.8032 43.6419 24.8825 44.2081C24.9419 44.6614 24.9508 45.12 24.909 45.5752C24.8912 45.855 24.7645 46.1166 24.5561 46.304C24.3478 46.4914 24.0743 46.5896 23.7944 46.5776C23.2192 46.5465 22.8075 46.1046 22.7752 45.4763C22.7672 45.306 22.7752 45.131 22.7752 44.9619H22.7821Z" fill="white"/>
<path d="M21.1154 48.7697C20.85 48.7593 20.5857 48.7312 20.324 48.6857C19.8007 48.5603 19.5027 48.1172 19.5384 47.5775C19.5489 47.3272 19.6509 47.0895 19.825 46.9094C19.999 46.7294 20.2331 46.6194 20.4828 46.6005C20.8825 46.5737 21.2835 46.571 21.6836 46.5925C22.3036 46.6178 22.7442 47.0528 22.766 47.6281C22.7867 48.1886 22.3565 48.6638 21.7458 48.7329C21.5366 48.7444 21.3269 48.7444 21.1177 48.7329L21.1154 48.7697Z" fill="white"/>
<path d="M2.1947 35.1895C2.20352 35.4029 2.14901 35.6141 2.03805 35.7965C1.92708 35.9789 1.76462 36.1244 1.57115 36.2147C1.37767 36.3049 1.16183 36.3358 0.950826 36.3035C0.739822 36.2712 0.543096 36.1771 0.385439 36.0331C0.227781 35.8892 0.116245 35.7017 0.0648876 35.4944C0.0135304 35.2872 0.0246495 35.0693 0.096843 34.8683C0.169036 34.6674 0.299074 34.4923 0.47057 34.3651C0.642066 34.238 0.847345 34.1644 1.06054 34.1538C1.2032 34.1464 1.34591 34.1674 1.48039 34.2156C1.61488 34.2638 1.73846 34.3382 1.84397 34.4345C1.94947 34.5309 2.03481 34.6472 2.09501 34.7768C2.15522 34.9064 2.18911 35.0467 2.1947 35.1895Z" fill="white"/>
<path d="M28.7233 15.1834C28.9531 15.1688 29.1836 15.1688 29.4134 15.1834C29.6627 15.2112 29.8934 15.3286 30.0627 15.5138C30.2319 15.6991 30.3282 15.9394 30.3336 16.1903C30.3405 16.7208 30.1036 17.1593 29.5664 17.2525C29.0418 17.338 28.5078 17.3488 27.9802 17.2847C27.42 17.2203 27.0761 16.722 27.1071 16.1846C27.1393 15.6207 27.5557 15.2133 28.1527 15.1719C28.3425 15.1592 28.5335 15.1719 28.7279 15.1719L28.7233 15.1834Z" fill="white"/>
<path d="M23.2054 17.3605C22.9837 17.355 22.7627 17.3339 22.544 17.2972C22.2867 17.2483 22.0564 17.1063 21.897 16.8984C21.7376 16.6905 21.6603 16.4311 21.6797 16.1698C21.6992 15.9085 21.8142 15.6635 22.0026 15.4816C22.1911 15.2996 22.4399 15.1934 22.7016 15.1832C23.0824 15.1619 23.4641 15.1619 23.845 15.1832C24.4707 15.212 24.9044 15.6435 24.9228 16.2189C24.9412 16.7724 24.5558 17.2293 23.968 17.3213C23.7147 17.3474 23.4601 17.3604 23.2054 17.3605Z" fill="white"/>
<path d="M27.0669 13.5607C27.0813 13.7887 27.0813 14.0174 27.0669 14.2454C27.0333 14.5025 26.9065 14.7383 26.7106 14.9081C26.5146 15.0778 26.2632 15.1696 26.004 15.166C25.7441 15.1645 25.494 15.0662 25.3026 14.8902C25.1113 14.7143 24.9922 14.4733 24.9688 14.2143C24.9343 13.7773 24.9343 13.3383 24.9688 12.9013C24.9745 12.7674 25.0068 12.6361 25.0637 12.5148C25.1207 12.3935 25.2012 12.2848 25.3005 12.195C25.3998 12.1051 25.516 12.0359 25.6423 11.9914C25.7686 11.9469 25.9025 11.928 26.0362 11.9358C26.6114 11.9427 27.0278 12.3293 27.083 12.9289C27.1025 13.1372 27.083 13.3478 27.083 13.5572L27.0669 13.5607Z" fill="white"/>
<path d="M24.9596 18.9418C24.9463 18.7117 24.9482 18.4811 24.9653 18.2513C24.9928 18.0027 25.1111 17.773 25.2975 17.6063C25.4839 17.4396 25.7253 17.3476 25.9753 17.3479C26.532 17.3318 26.999 17.6851 27.0554 18.234C27.0991 18.6889 27.1025 19.1468 27.0657 19.6023C27.0485 19.8722 26.927 20.1249 26.727 20.3068C26.5269 20.4887 26.2639 20.5856 25.9937 20.577C25.734 20.5726 25.4851 20.4728 25.2942 20.2967C25.1033 20.1206 24.9838 19.8804 24.9584 19.6219C24.9456 19.3919 24.9456 19.1614 24.9584 18.9314L24.9596 18.9418Z" fill="white"/>
</g>
<defs>
<clipPath id="clip0_34_1512">
<rect width="52" height="52" fill="white"/>
</clipPath>
</defs>
</svg>
