<svg width="101" height="69" viewBox="0 0 101 69" fill="none" xmlns="http://www.w3.org/2000/svg">
<g clip-path="url(#clip0_37_1616)">
<path d="M83.5437 26.5878C83.5437 25.0518 83.7052 23.6359 83.5114 22.2696C83.0838 19.2434 80.5469 17.2101 77.3354 17.1853C73.7571 17.1567 70.1788 17.1853 66.6005 17.1853C57.1635 17.1853 47.7252 17.1853 38.2857 17.1853C35.7868 17.1853 34.1202 15.2091 34.5345 12.8023C34.6655 12.0296 35.0507 11.3231 35.6286 10.7954C36.2065 10.2677 36.9438 9.94913 37.7232 9.89044C38.0064 9.86948 38.2933 9.87138 38.5765 9.87138C51.529 9.87138 64.481 9.87138 77.4323 9.87138C84.3323 9.87138 89.7501 14.4621 90.9112 21.2805C91.0121 21.9394 91.0578 22.6055 91.048 23.272C91.0569 29.7194 91.0569 36.1663 91.048 42.6125C91.048 42.803 91.0272 42.9936 91.0101 43.2623H20.4741C20.3465 41.633 20.506 39.9939 20.9453 38.42C21.8167 35.1614 23.6981 32.2646 26.3178 30.1479C28.9376 28.0311 32.1603 26.8038 35.5208 26.6431C36.1213 26.6145 36.7237 26.6049 37.3242 26.6049H83.5437V26.5878Z" fill="white"/>
<path d="M55.6603 48.7771C67.2168 48.7771 78.7732 48.7701 90.3297 48.7561C91.0746 48.7561 91.4395 49.0057 91.791 49.627C94.6662 54.6998 97.492 59.7994 100.506 64.796C101.882 67.0828 100.162 69.1238 98.0355 68.9885C95.909 68.8531 93.7313 68.937 91.5744 68.9675C90.5615 68.9827 89.9116 68.5711 89.5012 67.6335C88.7182 65.8676 87.9036 64.1151 87.0574 62.3758C86.911 62.0728 86.5234 61.6421 86.3124 61.6764C85.997 61.7279 85.634 62.0862 85.4763 62.4044C84.6363 64.11 83.8382 65.8346 83.0591 67.5706C82.6296 68.5235 81.9379 68.9675 80.9022 68.9561C79.3186 68.937 77.735 68.937 76.1514 68.9561C75.2222 68.9561 74.6084 68.5749 74.2245 67.7098C73.4492 65.9731 72.6447 64.251 71.8111 62.5435C71.6363 62.1853 71.26 61.9261 70.975 61.6212C70.669 61.9375 70.2585 62.2043 70.0723 62.574C69.2723 64.1919 68.5235 65.8365 67.7919 67.483C67.3377 68.4968 66.6118 68.9827 65.4868 68.9522C63.9666 68.9141 62.4463 68.9198 60.9261 68.9522C59.9113 68.9732 59.269 68.5444 58.8604 67.6183C58.1206 65.9451 57.3478 64.2834 56.542 62.6331C56.352 62.252 55.9548 61.9661 55.6527 61.6364C55.3448 61.9528 54.9344 62.2196 54.7481 62.5893C53.9462 64.2053 53.1899 65.8479 52.4678 67.4982C52.0136 68.5254 51.282 68.9904 50.1646 68.9637C48.6766 68.9275 47.1868 68.9198 45.7007 68.9637C44.6042 68.998 43.9334 68.5387 43.5002 67.5344C42.759 65.8193 41.9628 64.1252 41.1438 62.4463C40.9841 62.1186 40.6174 61.6841 40.3342 61.6841C40.0511 61.6841 39.6729 62.0995 39.5152 62.4235C38.6917 64.1004 37.9018 65.7946 37.1455 67.5059C36.6894 68.5311 35.9559 68.9904 34.8366 68.9637C33.3506 68.9275 31.8607 68.9198 30.3728 68.9637C29.2725 68.9999 28.6074 68.5273 28.1741 67.5287C27.4292 65.8136 26.6367 64.1214 25.8158 62.4425C25.6562 62.1147 25.2856 61.6898 25.0025 61.6803C24.7193 61.6707 24.3412 62.0976 24.1815 62.4197C23.3745 64.0712 22.6005 65.738 21.8593 67.4201C21.3976 68.4739 20.6773 68.9827 19.5086 68.9618C17.3556 68.9237 15.2025 68.9618 13.0476 68.9484C10.7007 68.9313 9.62699 67.0904 10.7957 65.0437C13.7583 59.8375 16.7532 54.6503 19.7006 49.4345C20.0274 48.8628 20.4151 48.7637 20.9947 48.7637C32.5486 48.7828 44.1038 48.7872 55.6603 48.7771Z" fill="white"/>
<path d="M19.712 28.1731C19.1419 28.701 18.8417 29.2117 18.4198 29.3451C14.564 30.5723 12.0499 33.084 10.8185 36.9506C10.6931 37.345 10.1173 37.7586 9.67832 37.8558C9.06832 37.9911 8.65025 37.5509 8.45832 36.9144C7.29152 33.0687 4.78754 30.5609 0.946363 29.3908C0.307856 29.2003 -0.117816 28.7677 0.0285085 28.156C0.133026 27.7215 0.549196 27.1498 0.946363 27.0297C4.83631 25.8406 7.32763 23.3251 8.51533 19.4281C8.63505 19.0355 9.21465 18.6239 9.65552 18.5248C10.2674 18.3857 10.6893 18.8202 10.8736 19.4605C11.9929 23.3385 14.4994 25.8234 18.3476 27.0069C18.7941 27.146 19.1286 27.6624 19.712 28.1731Z" fill="white"/>
<path d="M12.7511 15.7731C12.3027 15.3024 11.8485 15.0414 11.7364 14.6736C10.8128 11.6493 8.87069 9.69027 5.85868 8.72601C5.49002 8.60786 5.04155 8.00377 5.05295 7.63978C5.06435 7.2758 5.56033 6.76699 5.9499 6.63741C8.85548 5.66552 10.8337 3.838 11.7079 0.834685C11.8143 0.464987 12.3844 0.00191172 12.7416 6.06115e-06C13.0989 -0.0018996 13.6918 0.445931 13.7982 0.813722C14.7313 3.81132 16.6886 5.70554 19.6455 6.67171C20.0084 6.78986 20.4227 7.35775 20.4455 7.73888C20.4645 8.06284 20.0142 8.61738 19.6645 8.72791C16.6563 9.68074 14.6933 11.615 13.7868 14.6602C13.6766 15.0299 13.211 15.2948 12.7511 15.7731Z" fill="white"/>
<path d="M23.735 25.2252C23.2466 24.684 22.7715 24.3886 22.6556 23.9903C21.9316 21.4882 20.3049 19.9541 17.8839 19.129C17.4905 18.9956 16.9489 18.4544 16.9756 18.1419C17.0079 17.7264 17.4639 17.2557 17.8592 16.9775C18.9025 16.2419 20.1396 15.7388 21.0479 14.8699C21.7606 14.1857 22.1463 13.1224 22.5682 12.1772C22.8209 11.6055 23.0889 11.1424 23.7483 11.1348C24.4438 11.1348 24.6984 11.636 24.86 12.2286C25.5403 14.645 27.089 16.1924 29.4777 16.9699C29.8958 17.1052 30.4488 17.6407 30.4564 17.9989C30.464 18.3572 29.9547 18.9765 29.5519 19.108C27.1042 19.9065 25.4985 21.452 24.7764 23.9522C24.6547 24.3581 24.2044 24.6687 23.735 25.2252Z" fill="white"/>
</g>
<defs>
<clipPath id="clip0_37_1616">
<rect width="101" height="69" fill="white"/>
</clipPath>
</defs>
</svg>
