<svg width="92" height="79" viewBox="0 0 92 79" fill="none" xmlns="http://www.w3.org/2000/svg">
<g clip-path="url(#clip0_37_1622)">
<path d="M27.2933 11.4848C27.3325 14.7765 28.5376 17.4869 31.0962 19.5111C32.8055 20.884 34.9397 21.6073 37.125 21.5542C41.6397 21.4888 46.1835 18.2419 46.7485 12.1504C47.0148 12.1504 47.293 12.1607 47.5678 12.1504C54.0745 11.8873 60.5778 11.5691 67.0862 11.3713C75.2024 11.1271 81.7655 14.3448 86.6182 20.8542C94.784 31.7852 92.8705 47.3062 82.3509 55.7796C77.5614 59.6388 72.0344 61.2829 65.9374 60.6896C56.6382 59.7936 47.3322 59.3791 37.9938 59.8452C33.8495 60.0515 29.712 60.4264 25.5796 60.8048C21.495 61.178 17.6066 60.435 14.0256 58.533C4.70421 53.5817 0.172405 45.6346 0.416491 35.0906C0.597422 27.3774 3.94806 21.1001 9.86416 16.2314C13.6842 13.0928 18.2023 11.7789 23.0499 11.4986C24.4342 11.4178 25.8271 11.4848 27.2933 11.4848ZM72.6575 26.545C72.6561 25.8343 72.5157 25.1308 72.2442 24.4749C71.9727 23.8189 71.5755 23.2233 71.0753 22.7222C70.5751 22.2211 69.9817 21.8243 69.3291 21.5546C68.6766 21.2848 67.9776 21.1473 67.2722 21.15C65.848 21.1694 64.4885 21.752 63.4868 22.7722C62.4851 23.7924 61.9216 25.1684 61.9177 26.6035C61.923 27.3147 62.0675 28.0179 62.3429 28.6728C62.6182 29.3278 63.0191 29.9215 63.5224 30.4202C64.0258 30.9189 64.6218 31.3127 65.2763 31.5791C65.9309 31.8455 66.6312 31.9792 67.3371 31.9726C68.0416 31.9734 68.7392 31.833 69.3894 31.5597C70.0396 31.2863 70.6294 30.8855 71.1244 30.3804C71.6195 29.8754 72.01 29.2762 72.2731 28.6178C72.5363 27.9593 72.667 27.2548 72.6575 26.545ZM24.6647 31.9726C26.089 31.9878 27.461 31.4322 28.4789 30.4283C29.4968 29.4243 30.0773 28.0541 30.0926 26.6189C30.0932 25.1834 29.5335 23.8053 28.5342 22.782C27.5349 21.7588 26.1763 21.1726 24.7517 21.15C23.3419 21.1611 21.9929 21.7301 20.9958 22.7344C19.9987 23.7387 19.4335 25.0977 19.422 26.5182C19.4106 27.9386 19.9539 29.3067 20.9347 30.3271C21.9155 31.3475 23.2552 31.9386 24.6647 31.9726ZM24.7039 51.0811C25.7661 51.0842 26.8053 50.7696 27.6899 50.1772C28.5745 49.5848 29.2647 48.7412 29.6732 47.7533C30.0816 46.7653 30.1899 45.6775 29.9843 44.6275C29.7787 43.5776 29.2684 42.6127 28.5182 41.8551C27.7679 41.0975 26.8114 40.5813 25.7698 40.3718C24.7282 40.1623 23.6482 40.2689 22.6668 40.6782C21.6854 41.0876 20.8466 41.7811 20.2566 42.6711C19.6667 43.561 19.3521 44.6074 19.3528 45.6776C19.3469 46.3871 19.4809 47.0907 19.7471 47.7476C20.0132 48.4046 20.4062 49.0017 20.9032 49.5044C21.4002 50.007 21.9914 50.4053 22.6424 50.676C23.2933 50.9466 23.9912 51.0844 24.6954 51.0811H24.7039ZM72.6677 45.7103C72.6754 44.9995 72.5432 44.2943 72.2789 43.6354C72.0146 42.9764 71.6233 42.3767 71.1277 41.871C70.632 41.3652 70.0419 40.9634 69.3913 40.6887C68.7407 40.414 68.0425 40.2719 67.3371 40.2706C66.6326 40.2667 65.9342 40.4028 65.2818 40.6708C64.6295 40.9389 64.036 41.3339 63.5351 41.8331C63.0342 42.3323 62.6359 42.926 62.3627 43.5803C62.0896 44.2347 61.9471 44.9368 61.9433 45.6466C61.9395 46.3565 62.0745 47.0601 62.3405 47.7174C62.6066 48.3746 62.9986 48.9727 63.4941 49.4773C63.9895 49.9819 64.5788 50.3833 65.2282 50.6585C65.8777 50.9337 66.5745 51.0773 67.279 51.0811C67.9835 51.0891 68.6825 50.956 69.3355 50.6895C69.9885 50.423 70.5825 50.0285 71.0828 49.5288C71.5832 49.0291 71.9801 48.4342 72.2504 47.7787C72.5207 47.1232 72.6591 46.4201 72.6575 45.7103H72.6677ZM45.9855 31.9726C46.6905 31.9792 47.3897 31.8448 48.0428 31.5772C48.6958 31.3096 49.2897 30.914 49.7899 30.4135C50.2902 29.913 50.6869 29.3175 50.9571 28.6614C51.2272 28.0053 51.3655 27.3017 51.3639 26.5914C51.3687 25.5219 51.0584 24.4751 50.4724 23.5833C49.8864 22.6916 49.051 21.995 48.0719 21.5818C47.0929 21.1686 46.0141 21.0573 44.9723 21.262C43.9304 21.4668 42.9723 21.9783 42.2191 22.7319C41.4658 23.4855 40.9514 24.4473 40.741 25.4955C40.5305 26.5438 40.6334 27.6314 41.0366 28.6207C41.4398 29.6101 42.1253 30.4566 43.0063 31.0533C43.8872 31.6499 44.924 31.9699 45.9855 31.9726ZM46.0162 51.0811C47.0778 51.0784 48.1148 50.7585 48.9959 50.1619C49.877 49.5653 50.5627 48.7187 50.9662 47.7294C51.3697 46.7401 51.473 45.6524 51.2628 44.6039C51.0527 43.5554 50.5387 42.5933 49.7857 41.8393C49.0328 41.0852 48.0748 40.5731 47.0329 40.3678C45.9911 40.1624 44.9122 40.273 43.9327 40.6855C42.9533 41.0981 42.1172 41.794 41.5304 42.6854C40.9436 43.5767 40.6324 44.6234 40.6361 45.6931C40.6338 46.404 40.7716 47.1084 41.0416 47.7653C41.3116 48.4222 41.7083 49.0185 42.2088 49.5197C42.7093 50.021 43.3035 50.4171 43.9571 50.6851C44.6107 50.9531 45.3106 51.0877 46.0162 51.0811ZM35.3635 38.4906C35.8254 38.4905 36.2771 38.353 36.6617 38.0953C37.0464 37.8375 37.3469 37.4711 37.5257 37.0419C37.7044 36.6127 37.7534 36.1399 37.6664 35.6828C37.5795 35.2257 37.3605 34.8046 37.0369 34.4725C36.7133 34.1403 36.2996 33.9118 35.8476 33.8156C35.3956 33.7195 34.9256 33.7599 34.4963 33.9319C34.0671 34.1039 33.6978 34.3998 33.4349 34.7825C33.1719 35.1652 33.027 35.6176 33.0182 36.0829C33.0109 36.3973 33.0662 36.71 33.181 37.0025C33.2957 37.2951 33.4674 37.5614 33.6861 37.7859C33.9047 38.0104 34.1658 38.1884 34.4539 38.3094C34.7421 38.4305 35.0513 38.4921 35.3635 38.4906ZM79.1215 38.4906C79.5865 38.4998 80.0437 38.3694 80.4349 38.116C80.8261 37.8626 81.1337 37.4976 81.3184 37.0676C81.5031 36.6375 81.5566 36.1618 81.4721 35.701C81.3877 35.2402 81.169 34.8151 80.844 34.4799C80.5191 34.1446 80.1024 33.9144 79.6472 33.8185C79.1919 33.7226 78.7187 33.7653 78.2876 33.9413C77.8565 34.1172 77.4872 34.4184 77.2265 34.8066C76.9659 35.1947 76.8258 35.6521 76.824 36.1207C76.8193 36.428 76.8748 36.7332 76.9875 37.0187C77.1002 37.3043 77.2678 37.5645 77.4807 37.7846C77.6936 38.0047 77.9475 38.1802 78.2279 38.3011C78.5083 38.4219 78.8097 38.4857 79.1146 38.4889L79.1215 38.4906ZM15.176 36.0829C15.1673 35.6137 15.0202 35.1577 14.7534 34.773C14.4866 34.3883 14.1123 34.0923 13.678 33.9226C13.2437 33.7529 12.7692 33.7173 12.3147 33.8202C11.8603 33.9231 11.4465 34.16 11.1261 34.5006C10.8056 34.8412 10.5931 35.2701 10.5154 35.7329C10.4377 36.1956 10.4984 36.6712 10.6898 37.099C10.8812 37.5269 11.1946 37.8876 11.5901 38.1355C11.9857 38.3833 12.4455 38.5069 12.911 38.4906C13.2164 38.483 13.5173 38.4148 13.7965 38.2899C14.0757 38.165 14.3277 37.9859 14.5381 37.7627C14.7485 37.5395 14.9131 37.2768 15.0226 36.9894C15.1321 36.702 15.1842 36.3957 15.176 36.0881V36.0829ZM59.3846 36.1414C59.3885 35.6756 59.2557 35.219 59.003 34.8289C58.7503 34.4389 58.3888 34.1327 57.964 33.9489C57.5392 33.765 57.07 33.7117 56.6152 33.7955C56.1604 33.8794 55.7404 34.0967 55.4077 34.4202C55.0751 34.7438 54.8447 35.1591 54.7455 35.614C54.6462 36.069 54.6826 36.5434 54.8499 36.9776C55.0173 37.4118 55.3082 37.7866 55.6862 38.0548C56.0641 38.3231 56.5123 38.4729 56.9745 38.4854C57.2865 38.497 57.5977 38.4451 57.8893 38.3327C58.181 38.2204 58.4472 38.05 58.672 37.8316C58.8968 37.6133 59.0756 37.3516 59.1978 37.062C59.3199 36.7725 59.3829 36.4611 59.3829 36.1465L59.3846 36.1414Z" fill="white"/>
<path d="M0.392576 48.9434C2.15751 51.9925 4.2092 54.7167 6.79856 57.0091C11.5215 61.1848 17.016 63.5031 23.2991 63.6802C25.472 63.7421 27.6585 63.3637 29.8365 63.1643C37.9388 62.4284 46.0818 62.2561 54.2076 62.6483C58.2666 62.8513 62.3102 63.3689 66.3692 63.534C77.2114 63.9726 85.2851 59.2242 90.8564 49.9563C91.0497 49.5701 91.3178 49.2269 91.645 48.9468C91.5613 49.9082 91.5511 50.8833 91.3855 51.8326C89.7486 61.2725 84.7542 68.057 75.764 71.5723C72.1061 73.0014 68.2793 73.084 64.4148 72.6626C57.0631 71.8417 49.6615 71.5646 42.2696 71.8337C36.3364 72.0659 30.4186 72.642 24.4888 72.9773C21.2329 73.158 17.9838 72.5148 15.0377 71.1062C6.00144 66.8377 1.21189 59.5837 0.39599 49.6089C0.377214 49.3836 0.392576 49.1635 0.392576 48.9434Z" fill="white"/>
<path d="M45.907 78.9999C31.3198 78.9999 16.7316 78.9999 2.14214 78.9999C1.77361 79.0133 1.40469 78.9885 1.04119 78.9259C0.368674 78.7832 0.0170537 78.2982 0.00169164 77.6344C-0.0119635 76.931 0.343071 76.4305 1.05485 76.2689C1.36203 76.2112 1.67449 76.187 1.98681 76.1966C31.3341 76.1966 60.6813 76.1966 90.0285 76.1966C90.3687 76.1859 90.7088 76.2189 91.0407 76.2947C91.323 76.3586 91.5739 76.5208 91.7493 76.7525C91.9247 76.9843 92.0135 77.271 92 77.5622C92.0119 78.2243 91.6945 78.7385 91.0254 78.9036C90.6361 78.9818 90.2391 79.0136 89.8425 78.9982C75.1973 79.0005 60.5521 79.001 45.907 78.9999Z" fill="white"/>
<path d="M37.0089 18.7455C32.3167 18.816 28.6725 13.8545 30.6678 9.33143C32.0897 6.11028 34.0816 3.26575 36.1965 0.486582C36.688 -0.163496 37.3435 -0.163496 37.8368 0.486582C39.9448 3.26575 41.9111 6.12576 43.3569 9.33659C45.3045 13.6584 41.8702 18.8109 37.0089 18.7455Z" fill="white"/>
</g>
<defs>
<clipPath id="clip0_37_1622">
<rect width="92" height="79" fill="white"/>
</clipPath>
</defs>
</svg>
