<svg width="48" height="70" viewBox="0 0 48 70" fill="none" xmlns="http://www.w3.org/2000/svg">
<g clip-path="url(#clip0_37_1610)">
<path d="M4.83852 22.6098C4.77331 21.7768 4.66287 21.0001 4.6642 20.2314C4.65999 19.6363 4.77995 19.0469 5.0163 18.5015C5.25265 17.9561 5.60011 17.4669 6.03612 17.0657C6.37544 16.7424 6.35815 16.458 6.03612 16.2528C5.63692 16.0006 5.19115 15.7403 4.74404 15.6974C3.84317 15.6129 2.929 15.6813 2.02016 15.6692C0.921021 15.6545 0.254353 15.0414 0.230401 13.9428C0.197134 12.3787 0.214432 10.8132 0.230401 9.24779C0.230401 8.62403 0.527141 8.14513 1.03812 7.78831C4.55109 5.32947 8.05608 2.8572 11.585 0.421162C11.9708 0.166541 12.4201 0.0270343 12.8811 0.0187323C18.5577 -0.00675488 24.2344 -0.00138895 29.9137 0.00531822C31.0607 0.00531822 31.4999 0.425187 31.8685 1.84979H36.2171C37.7793 1.84979 38.3209 2.39978 38.3222 3.99608C38.3222 6.05295 38.3222 8.10981 38.3222 10.1667C38.3222 11.6637 37.7593 12.2164 36.2623 12.2191H31.8312C31.6981 14.6149 29.9323 14.1413 28.4087 14.195C28.5086 15.4704 28.9866 16.6861 29.7806 17.6841C30.6096 18.7438 31.6928 19.4628 32.9077 20.0021C34.0215 20.497 34.2038 21.0108 33.6835 22.1148C33.3508 22.8204 33.0182 23.526 32.6722 24.2249C32.3062 24.96 31.8937 25.1639 31.1073 24.9613C28.3475 24.2531 26.1719 22.6018 24.2344 20.5816C22.9449 19.2419 21.9362 17.6543 21.2683 15.9134L20.3542 16.9423C22.0348 18.8203 22.1745 20.8941 21.2244 23.1531C21.3961 23.2738 21.577 23.3959 21.7567 23.5247C23.6622 24.9278 24.752 26.7951 24.8172 29.1909C24.8678 30.9106 24.8465 32.633 24.8319 34.3541C24.8159 36.2951 25.5864 37.7814 27.1792 38.8935C28.8545 40.0632 30.5697 41.2007 32.1027 42.5475C35.1632 45.2438 36.7001 48.7356 36.7667 52.8336C36.8199 56.0973 36.7933 59.3611 36.776 62.6261C36.7534 66.747 33.7061 69.9248 29.6037 69.9557C22.1306 70.0111 14.658 70.0111 7.18582 69.9557C3.00086 69.9248 0.0228164 66.7363 0.0148323 62.4289C0.00152562 55.4535 0.00152562 48.478 0.0148323 41.5026C0.0148323 37.6808 0.0414461 33.8564 0.00684863 30.036C-0.0250875 26.4919 1.51184 24.0183 4.77065 22.6514C4.82255 22.6326 4.87178 22.587 4.83852 22.6098ZM18.3475 66.6705C22.0055 66.6705 25.6662 66.6786 29.3229 66.6705C31.8764 66.6705 33.4985 65.0608 33.5172 62.5121C33.5398 59.3825 33.5345 56.2529 33.5172 53.122C33.503 50.0734 32.4282 47.463 30.2929 45.2908C29.9949 44.9876 29.7407 44.9004 29.3096 45.0319C26.9434 45.7481 24.4425 45.8883 22.0122 45.441C20.0241 45.0895 18.2264 44.219 16.4074 43.402C14.1452 42.3825 11.778 42.1102 9.32554 42.4805C7.38143 42.7742 5.69281 43.7226 3.93632 44.5114C3.42401 44.7421 3.23107 45.0091 3.23506 45.5979C3.26167 51.1636 3.2497 56.7318 3.25103 62.2934C3.25103 65.0688 4.82787 66.6705 7.57172 66.6732C11.161 66.6759 14.7529 66.675 18.3475 66.6705ZM21.8392 36.7324H21.2058C19.9869 36.7324 18.768 36.7418 17.5491 36.7324C16.7746 36.7244 16.2836 36.2616 16.2796 35.5748C16.2756 34.8879 16.7387 34.4332 17.5318 34.4023C17.9962 34.3849 18.4633 34.4023 18.9277 34.4023H21.5637V30.8891H20.8066C19.7194 30.8891 18.6336 30.8999 17.5478 30.8824C16.8319 30.8704 16.3874 30.5149 16.2876 29.9313C16.1546 29.1721 16.6868 28.5631 17.5212 28.5537C18.8186 28.5389 20.116 28.5537 21.428 28.5537C20.9929 26.6663 19.4945 25.5288 17.436 25.518C14.112 25.501 10.7875 25.501 7.4626 25.518C4.85981 25.5314 3.25901 27.1854 3.25635 29.824C3.25635 33.3761 3.25635 36.9287 3.25635 40.4817V41.1135C3.37877 41.1135 3.42801 41.1283 3.4626 41.1135C3.82455 40.9459 4.18649 40.7768 4.54577 40.6038C6.90802 39.446 9.5218 38.9076 12.1452 39.0383C14.4819 39.1497 16.6695 39.8311 18.7613 40.8573C20.2251 41.5723 21.7327 42.1652 23.3641 42.302C24.2836 42.3785 25.2138 42.3155 26.1399 42.3155C24.0747 40.8989 22.4699 39.21 21.8392 36.7324ZM3.49986 12.4095C4.12262 12.4095 4.65622 12.3733 5.18316 12.4095C7.03812 12.5598 8.39008 13.5042 9.21377 15.1689C9.41869 15.582 9.64357 15.688 10.0694 15.6853C12.241 15.6657 14.4145 15.6657 16.5897 15.6853C16.7736 15.6945 16.9568 15.6568 17.1224 15.5756C17.288 15.4945 17.4306 15.3726 17.5371 15.2212C18.5032 14.0555 19.5158 12.9273 20.4726 11.7536C20.695 11.4616 20.9846 11.2286 21.3164 11.0748C21.6482 10.921 22.0121 10.851 22.3768 10.8709C24.1718 10.8978 25.9696 10.8803 27.7633 10.8709C27.9989 10.8709 28.2344 10.8508 28.4726 10.8401V3.30659C23.4333 3.30659 18.446 3.30659 13.4586 3.31598C13.2406 3.32571 13.03 3.39834 12.8518 3.52524C9.84451 5.62145 6.84428 7.72705 3.85116 9.84205C3.67849 9.96104 3.55904 10.1436 3.51849 10.3505C3.47591 10.9917 3.49986 11.6382 3.49986 12.4095ZM13.1978 18.9933C11.9363 18.9933 10.6695 18.9812 9.41337 18.9933C8.40339 19.0054 7.89773 19.5607 7.89906 20.603C7.89906 21.6265 8.43133 22.2208 9.42268 22.2262C11.9456 22.2414 14.4686 22.2414 16.9915 22.2262C18.0135 22.2262 18.5524 21.6185 18.5418 20.5601C18.5325 19.5433 18.0029 18.996 16.9809 18.9866C15.7208 18.9826 14.4579 18.992 13.1978 18.9933ZM23.1699 14.2084C24.4912 18.2582 27.2244 20.7814 30.8878 22.5333C31.0208 22.2409 31.1113 22.0477 31.2204 21.8076C28.1519 20.1845 26.3994 17.6599 26.0202 14.2084H23.1699ZM31.8126 8.91914H35.0062V5.17386H31.8126V8.91914Z" fill="white"/>
<path d="M43.4491 7.0949L47.3759 9.65838C47.8536 9.96959 48.1437 10.4364 47.9268 10.9596C47.7791 11.3151 47.3945 11.6303 47.0353 11.8154C46.8237 11.9214 46.4125 11.7993 46.1743 11.6491C44.3752 10.5089 42.5895 9.34896 40.817 8.16939C39.984 7.61404 39.9987 6.55967 40.8396 6.00432C42.5775 4.85069 44.326 3.71718 46.0798 2.58903C46.7545 2.15038 47.4558 2.28318 47.819 2.88012C48.1677 3.45291 48 4.1129 47.3466 4.54752C46.0892 5.38458 44.8263 6.19749 43.4491 7.0949Z" fill="white"/>
</g>
<defs>
<clipPath id="clip0_37_1610">
<rect width="48" height="70" fill="white"/>
</clipPath>
</defs>
</svg>
