<svg width="70" height="70" viewBox="0 0 70 70" fill="none" xmlns="http://www.w3.org/2000/svg">
<g clip-path="url(#clip0_38_1725)">
<path d="M26.4065 12.9832C26.1073 12.9693 25.8815 12.9485 25.6556 12.9485C23.162 12.9485 20.6683 12.9624 18.1746 12.9333C17.6454 12.9333 17.4321 13.0899 17.2603 13.5944C16.5729 15.5891 15.1779 17.2624 13.3397 18.297C11.5016 19.3316 9.34787 19.6558 7.28675 19.208C5.22563 18.7603 3.40028 17.5718 2.15659 15.8676C0.912905 14.1635 0.33728 12.0622 0.538791 9.96192C0.910071 5.98992 4.11167 2.6887 8.0406 2.22997C12.1039 1.7546 15.9137 4.08846 17.2395 7.91217C17.4321 8.46653 17.6676 8.64116 18.2439 8.63284C20.6905 8.59958 23.137 8.61898 25.5864 8.61898H26.4176V5.65315C26.4176 4.49869 26.4037 3.34285 26.4176 2.18839C26.437 0.909199 27.325 0.00974812 28.6107 0.00697631C32.8822 -0.00688273 37.1529 -0.00688273 41.4226 0.00697631C42.7609 0.00697631 43.6267 0.931374 43.6281 2.31866C43.6355 7.5851 43.6327 12.8515 43.6198 18.118C43.6198 18.6723 43.7708 18.9495 44.2959 19.2004C53.7067 23.7517 59.3992 31.1801 60.6128 41.5744C61.9081 52.7032 57.806 61.7712 49.0255 68.7145C48.7909 68.8893 48.5075 68.9862 48.2151 68.9917C39.4189 69.0056 30.6241 69.0056 21.8306 68.9917C21.5381 68.9844 21.2548 68.8876 21.0188 68.7145C14.3524 63.6075 10.3514 56.9066 9.38164 48.551C7.90344 35.773 14.2942 24.4973 25.8995 19.0909C26.1156 18.9897 26.3747 18.6876 26.3802 18.4741C26.4273 16.6822 26.4065 14.8819 26.4065 12.9832Z" fill="white"/>
<path d="M60.8816 15.104C60.8641 15.6694 60.6264 16.2056 60.2192 16.5981C59.812 16.9906 59.2675 17.2082 58.702 17.2046C58.1366 17.201 57.5949 16.9764 57.1927 16.5787C56.7906 16.181 56.5597 15.6419 56.5495 15.0763C56.567 14.5108 56.8047 13.9746 57.2119 13.5822C57.6191 13.1897 58.1636 12.972 58.7291 12.9756C59.2945 12.9792 59.8362 13.2039 60.2384 13.6015C60.6405 13.9992 60.8714 14.5384 60.8816 15.104Z" fill="white"/>
<path d="M65.1859 10.7604C65.1849 10.4765 65.2408 10.1953 65.3502 9.93333C65.4596 9.67138 65.6203 9.434 65.8229 9.2352C66.0255 9.0364 66.2659 8.8802 66.5298 8.77583C66.7937 8.67146 67.0759 8.62103 67.3596 8.62751C67.6468 8.62407 67.9318 8.6781 68.1979 8.7864C68.4639 8.89471 68.7056 9.05511 68.9088 9.25819C69.112 9.46127 69.2726 9.70293 69.3812 9.96897C69.4897 10.235 69.544 10.5201 69.5409 10.8074C69.5377 11.0947 69.4772 11.3785 69.3629 11.6421C69.2486 11.9057 69.0827 12.1438 68.8751 12.3424C68.6675 12.541 68.4224 12.6961 68.154 12.7985C67.8857 12.901 67.5996 12.9488 67.3125 12.9391C67.0291 12.9384 66.7486 12.8812 66.4876 12.7708C66.2265 12.6605 65.9901 12.4991 65.7921 12.2963C65.5941 12.0934 65.4385 11.8531 65.3344 11.5894C65.2303 11.3257 65.1799 11.0439 65.1859 10.7604Z" fill="white"/>
<path d="M67.318 4.30875C66.7673 4.27577 66.2503 4.03227 65.874 3.62862C65.4977 3.22497 65.291 2.69206 65.2965 2.14016C65.302 1.58825 65.5194 1.05959 65.9037 0.663548C66.2879 0.267505 66.8097 0.0343936 67.361 0.0124439C67.6521 0.000852215 67.9426 0.0485755 68.2147 0.152717C68.4868 0.256858 68.735 0.415243 68.944 0.618255C69.1531 0.821268 69.3187 1.06467 69.4309 1.33369C69.5431 1.6027 69.5994 1.89171 69.5965 2.18317C69.5936 2.47463 69.5315 2.76246 69.414 3.02918C69.2964 3.29589 69.126 3.53594 68.9129 3.73472C68.6998 3.93351 68.4485 4.0869 68.1744 4.18558C67.9002 4.28426 67.6089 4.32616 67.318 4.30875Z" fill="white"/>
<path d="M50.077 12.9349C49.5061 12.931 48.96 12.7004 48.559 12.2938C48.158 11.8872 47.9349 11.3378 47.9387 10.7666C47.9426 10.1954 48.1731 9.64917 48.5796 9.248C48.986 8.84684 49.5352 8.62363 50.1061 8.62749C50.6771 8.63135 51.2232 8.86196 51.6242 9.26858C52.0252 9.67521 52.2483 10.2245 52.2445 10.7957C52.2406 11.3669 52.0101 11.9132 51.6036 12.3144C51.1971 12.7155 50.648 12.9387 50.077 12.9349Z" fill="white"/>
<path d="M65.1859 19.3753C65.1948 18.803 65.4305 18.2577 65.8412 17.8592C66.252 17.4608 66.8041 17.2419 67.3762 17.2507C67.9483 17.2596 68.4934 17.4954 68.8917 17.9063C69.29 18.3172 69.5088 18.8696 69.5 19.4419C69.4831 20.0138 69.2443 20.5568 68.8341 20.9557C68.424 21.3546 67.8748 21.5781 67.3028 21.5789C66.7309 21.5647 66.1877 21.3253 65.7913 20.9127C65.3949 20.5 65.1774 19.9476 65.1859 19.3753Z" fill="white"/>
<path d="M58.7176 8.62054C58.147 8.62054 57.5998 8.39377 57.1963 7.99014C56.7928 7.5865 56.5661 7.03905 56.5661 6.46823C56.5661 5.8974 56.7928 5.34995 57.1963 4.94631C57.5998 4.54268 58.147 4.31592 58.7176 4.31592C59.2882 4.31592 59.8355 4.54268 60.239 4.94631C60.6424 5.34995 60.8691 5.8974 60.8691 6.46823C60.8691 7.03905 60.6424 7.5865 60.239 7.99014C59.8355 8.39377 59.2882 8.62054 58.7176 8.62054Z" fill="white"/>
</g>
<defs>
<clipPath id="clip0_38_1725">
<rect width="69" height="69" fill="white" transform="translate(0.5 0.00292969)"/>
</clipPath>
</defs>
</svg>
