<svg width="241" height="65" viewBox="0 0 241 65" fill="none" xmlns="http://www.w3.org/2000/svg">
<path d="M89.7208 28.9574H85.3091C85.2286 28.3866 85.064 27.8797 84.8156 27.4365C84.5671 26.9866 84.2482 26.6038 83.8587 26.2882C83.4693 25.9726 83.0194 25.7309 82.509 25.563C82.0054 25.3952 81.4582 25.3112 80.8672 25.3112C79.7996 25.3112 78.8696 25.5765 78.0772 26.1069C77.2849 26.6307 76.6704 27.3962 76.234 28.4034C75.7975 29.4039 75.5793 30.6193 75.5793 32.0496C75.5793 33.5202 75.7975 34.7557 76.234 35.7562C76.6772 36.7567 77.2949 37.5121 78.0873 38.0225C78.8796 38.5328 79.7962 38.788 80.837 38.788C81.4212 38.788 81.9618 38.7108 82.4587 38.5563C82.9623 38.4019 83.4088 38.1769 83.7983 37.8815C84.1878 37.5793 84.5101 37.2133 84.7652 36.7836C85.0271 36.3538 85.2084 35.8636 85.3091 35.313L89.7208 35.3332C89.6067 36.28 89.3213 37.1932 88.8647 38.0728C88.4148 38.9458 87.8071 39.7281 87.0416 40.4197C86.2828 41.1046 85.3763 41.6485 84.322 42.0514C83.2745 42.4476 82.0894 42.6457 80.7665 42.6457C78.9266 42.6457 77.2815 42.2293 75.8311 41.3967C74.3874 40.5641 73.2459 39.3587 72.4065 37.7807C71.5739 36.2027 71.1575 34.2924 71.1575 32.0496C71.1575 29.8001 71.5806 27.8864 72.4266 26.3084C73.2727 24.7304 74.421 23.5284 75.8714 22.7025C77.3218 21.8698 78.9535 21.4535 80.7665 21.4535C81.9618 21.4535 83.0697 21.6214 84.0904 21.9571C85.1178 22.2929 86.0276 22.7831 86.82 23.4277C87.6123 24.0656 88.257 24.8479 88.7539 25.7745C89.2575 26.7012 89.5798 27.7621 89.7208 28.9574ZM97.0585 21.7355V42.3636H92.7677V21.7355H97.0585ZM107.546 42.6658C105.955 42.6658 104.585 42.3435 103.437 41.6989C102.295 41.0475 101.416 40.1276 100.798 38.9391C100.18 37.7438 99.8712 36.3303 99.8712 34.6986C99.8712 33.1072 100.18 31.7105 100.798 30.5085C101.416 29.3066 102.285 28.3698 103.407 27.6984C104.535 27.0269 105.857 26.6911 107.375 26.6911C108.396 26.6911 109.346 26.8556 110.226 27.1847C111.112 27.507 111.884 27.9938 112.542 28.6452C113.207 29.2965 113.724 30.1157 114.093 31.1028C114.463 32.0832 114.647 33.2314 114.647 34.5475V35.726H101.583V33.0669H110.608C110.608 32.4491 110.474 31.9019 110.205 31.4251C109.937 30.9484 109.564 30.5757 109.087 30.3071C108.617 30.0318 108.07 29.8941 107.446 29.8941C106.794 29.8941 106.217 30.0452 105.713 30.3474C105.216 30.6428 104.827 31.0424 104.545 31.546C104.263 32.0429 104.118 32.5969 104.112 33.2079V35.7361C104.112 36.5016 104.253 37.163 104.535 37.7203C104.823 38.2776 105.23 38.7074 105.753 39.0096C106.277 39.3117 106.898 39.4628 107.617 39.4628C108.094 39.4628 108.53 39.3957 108.926 39.2614C109.322 39.1271 109.661 38.9256 109.943 38.657C110.226 38.3884 110.44 38.0594 110.588 37.6699L114.557 37.9318C114.355 38.8853 113.942 39.718 113.318 40.4298C112.7 41.1348 111.901 41.6854 110.921 42.0816C109.947 42.4711 108.822 42.6658 107.546 42.6658ZM121.859 42.6557C120.872 42.6557 119.992 42.4845 119.22 42.1421C118.448 41.7929 117.837 41.2792 117.387 40.601C116.944 39.9161 116.722 39.0633 116.722 38.0426C116.722 37.1831 116.88 36.4613 117.196 35.8771C117.511 35.2929 117.941 34.8228 118.485 34.467C119.029 34.1111 119.646 33.8425 120.338 33.6612C121.036 33.4799 121.768 33.3523 122.534 33.2784C123.434 33.1844 124.159 33.0971 124.71 33.0165C125.26 32.9292 125.66 32.8017 125.908 32.6338C126.157 32.4659 126.281 32.2175 126.281 31.8884V31.828C126.281 31.1901 126.079 30.6966 125.676 30.3474C125.28 29.9982 124.716 29.8236 123.984 29.8236C123.212 29.8236 122.598 29.9948 122.141 30.3373C121.684 30.673 121.382 31.0961 121.235 31.6064L117.266 31.2841C117.468 30.344 117.864 29.5315 118.455 28.8466C119.046 28.155 119.808 27.6245 120.741 27.2552C121.681 26.8791 122.769 26.6911 124.004 26.6911C124.864 26.6911 125.687 26.7918 126.472 26.9933C127.265 27.1947 127.966 27.507 128.577 27.93C129.195 28.3531 129.682 28.897 130.038 29.5617C130.394 30.2198 130.572 31.0088 130.572 31.9287V42.3636H126.502V40.2182H126.382C126.133 40.7017 125.801 41.1281 125.384 41.4974C124.968 41.86 124.468 42.1454 123.884 42.3536C123.299 42.555 122.625 42.6557 121.859 42.6557ZM123.088 39.6945C123.719 39.6945 124.276 39.5703 124.76 39.3218C125.243 39.0666 125.623 38.7242 125.898 38.2944C126.173 37.8647 126.311 37.3779 126.311 36.8339V35.1922C126.177 35.2795 125.992 35.36 125.757 35.4339C125.529 35.501 125.27 35.5648 124.981 35.6253C124.693 35.679 124.404 35.7293 124.115 35.7764C123.827 35.8166 123.565 35.8536 123.33 35.8871C122.826 35.961 122.386 36.0785 122.01 36.2397C121.634 36.4008 121.342 36.6191 121.134 36.8944C120.926 37.163 120.822 37.4987 120.822 37.9016C120.822 38.4858 121.033 38.9323 121.456 39.2412C121.886 39.5434 122.43 39.6945 123.088 39.6945ZM138.191 33.4194V42.3636H133.9V26.8926H137.99V29.6222H138.171C138.514 28.7224 139.088 28.0106 139.894 27.4868C140.699 26.9564 141.676 26.6911 142.825 26.6911C143.899 26.6911 144.836 26.9261 145.635 27.3962C146.434 27.8662 147.055 28.5377 147.498 29.4107C147.941 30.2769 148.163 31.311 148.163 32.5129V42.3636H143.872V33.2784C143.879 32.3316 143.637 31.593 143.147 31.0625C142.657 30.5253 141.982 30.2567 141.122 30.2567C140.545 30.2567 140.035 30.381 139.591 30.6294C139.155 30.8779 138.812 31.2405 138.564 31.7172C138.322 32.1873 138.198 32.7547 138.191 33.4194ZM169.38 27.6681C169.3 26.8556 168.954 26.2244 168.343 25.7745C167.732 25.3246 166.902 25.0997 165.855 25.0997C165.143 25.0997 164.542 25.2004 164.052 25.4019C163.562 25.5966 163.186 25.8686 162.924 26.2177C162.669 26.5669 162.541 26.9631 162.541 27.4063C162.528 27.7756 162.605 28.0979 162.773 28.3732C162.947 28.6485 163.186 28.8869 163.488 29.0883C163.79 29.2831 164.139 29.4543 164.535 29.602C164.932 29.743 165.355 29.8639 165.805 29.9646L167.658 30.4078C168.558 30.6093 169.384 30.8779 170.136 31.2136C170.888 31.5493 171.539 31.9623 172.09 32.4525C172.64 32.9427 173.067 33.5202 173.369 34.1849C173.678 34.8497 173.836 35.6118 173.842 36.4713C173.836 37.7337 173.513 38.8283 172.875 39.7549C172.244 40.6749 171.331 41.39 170.136 41.9003C168.947 42.4039 167.513 42.6557 165.835 42.6557C164.169 42.6557 162.719 42.4006 161.484 41.8902C160.255 41.3799 159.294 40.6245 158.603 39.624C157.918 38.6167 157.559 37.3711 157.525 35.8871H161.745C161.792 36.5788 161.991 37.1563 162.34 37.6196C162.696 38.0762 163.169 38.422 163.76 38.657C164.357 38.8853 165.032 38.9995 165.784 38.9995C166.523 38.9995 167.164 38.8921 167.708 38.6772C168.259 38.4623 168.685 38.1635 168.987 37.7807C169.29 37.398 169.441 36.9582 169.441 36.4613C169.441 35.9979 169.303 35.6085 169.028 35.2929C168.759 34.9773 168.363 34.7087 167.839 34.4871C167.322 34.2655 166.688 34.0641 165.935 33.8828L163.689 33.3187C161.95 32.8957 160.577 32.2343 159.57 31.3345C158.563 30.4347 158.062 29.2226 158.069 27.6984C158.062 26.4494 158.395 25.3582 159.066 24.4249C159.744 23.4915 160.674 22.7629 161.856 22.2392C163.038 21.7154 164.381 21.4535 165.885 21.4535C167.416 21.4535 168.752 21.7154 169.894 22.2392C171.042 22.7629 171.935 23.4915 172.573 24.4249C173.211 25.3582 173.54 26.4393 173.56 27.6681H169.38ZM184.924 26.8926V30.1157H175.607V26.8926H184.924ZM177.723 23.186H182.013V37.6095C182.013 38.0057 182.074 38.3146 182.195 38.5362C182.316 38.751 182.483 38.9021 182.698 38.9894C182.92 39.0767 183.175 39.1204 183.464 39.1204C183.665 39.1204 183.867 39.1036 184.068 39.07C184.27 39.0297 184.424 38.9995 184.532 38.9793L185.206 42.1723C184.991 42.2394 184.689 42.3166 184.3 42.4039C183.91 42.4979 183.437 42.555 182.88 42.5752C181.846 42.6155 180.939 42.4778 180.16 42.1622C179.388 41.8466 178.787 41.3564 178.357 40.6916C177.927 40.0269 177.716 39.1875 177.723 38.1736V23.186ZM194.543 42.6658C192.979 42.6658 191.626 42.3334 190.484 41.6687C189.349 40.9972 188.473 40.0638 187.855 38.8686C187.238 37.6666 186.929 36.2733 186.929 34.6885C186.929 33.0904 187.238 31.6937 187.855 30.4985C188.473 29.2965 189.349 28.3631 190.484 27.6984C191.626 27.0269 192.979 26.6911 194.543 26.6911C196.108 26.6911 197.458 27.0269 198.592 27.6984C199.734 28.3631 200.614 29.2965 201.231 30.4985C201.849 31.6937 202.158 33.0904 202.158 34.6885C202.158 36.2733 201.849 37.6666 201.231 38.8686C200.614 40.0638 199.734 40.9972 198.592 41.6687C197.458 42.3334 196.108 42.6658 194.543 42.6658ZM194.564 39.342C195.275 39.342 195.87 39.1405 196.346 38.7376C196.823 38.328 197.182 37.7707 197.424 37.0656C197.673 36.3605 197.797 35.5581 197.797 34.6583C197.797 33.7585 197.673 32.9561 197.424 32.251C197.182 31.546 196.823 30.9886 196.346 30.579C195.87 30.1694 195.275 29.9646 194.564 29.9646C193.845 29.9646 193.241 30.1694 192.751 30.579C192.267 30.9886 191.901 31.546 191.653 32.251C191.411 32.9561 191.29 33.7585 191.29 34.6583C191.29 35.5581 191.411 36.3605 191.653 37.0656C191.901 37.7707 192.267 38.328 192.751 38.7376C193.241 39.1405 193.845 39.342 194.564 39.342ZM204.948 42.3636V26.8926H209.108V29.592H209.269C209.551 28.6317 210.025 27.9065 210.689 27.4163C211.354 26.9194 212.12 26.671 212.986 26.671C213.201 26.671 213.432 26.6844 213.681 26.7113C213.929 26.7381 214.147 26.7751 214.335 26.8221V30.6294C214.134 30.569 213.855 30.5152 213.499 30.4682C213.144 30.4212 212.818 30.3977 212.522 30.3977C211.891 30.3977 211.327 30.5354 210.83 30.8107C210.34 31.0793 209.951 31.4553 209.662 31.9388C209.38 32.4223 209.239 32.9796 209.239 33.6108V42.3636H204.948ZM216.554 42.3636V26.8926H220.643V29.6222H220.825C221.147 28.7157 221.684 28.0005 222.436 27.4768C223.188 26.953 224.088 26.6911 225.136 26.6911C226.196 26.6911 227.1 26.9564 227.845 27.4868C228.59 28.0106 229.087 28.7224 229.336 29.6222H229.497C229.812 28.7358 230.383 28.0274 231.209 27.4969C232.042 26.9597 233.025 26.6911 234.16 26.6911C235.604 26.6911 236.776 27.1511 237.676 28.071C238.582 28.9843 239.035 30.2802 239.035 31.9589V42.3636H234.755V32.805C234.755 31.9455 234.526 31.3009 234.07 30.8711C233.613 30.4414 233.042 30.2265 232.357 30.2265C231.578 30.2265 230.971 30.475 230.534 30.9719C230.098 31.462 229.88 32.11 229.88 32.9158V42.3636H225.72V32.7144C225.72 31.9556 225.501 31.3513 225.065 30.9014C224.635 30.4515 224.068 30.2265 223.363 30.2265C222.886 30.2265 222.456 30.3474 222.074 30.5891C221.698 30.8241 221.399 31.1565 221.177 31.5863C220.956 32.0093 220.845 32.5062 220.845 33.077V42.3636H216.554Z" fill="white"/>
<path fill-rule="evenodd" clip-rule="evenodd" d="M23.1909 0.99923C10.8823 4.29256 1.40278 14.6886 0.158311 26.2584C-1.19833 38.8588 6.29459 51.4796 17.6324 55.6926C22.2604 57.4127 31.3145 56.9093 36.0215 54.6698C40.4907 52.5439 45.4326 47.6752 47.2881 43.5696C49.3523 39.0041 49.3565 31.5175 47.2986 27.619C44.2249 21.7975 38.4399 17.9615 32.6592 17.9124C24.8982 17.8457 19.4391 23.5092 20.9242 30.0867C21.2854 31.686 21.7425 33.1546 21.9408 33.3519C22.1383 33.5492 23.7024 32.8928 25.416 31.8931C29.5106 29.5054 32.4482 29.5159 34.353 31.9261C38.5076 37.1816 32.2669 44.3847 24.6893 43.081C18.2024 41.9647 13.2669 36.0457 13.2584 29.3741C13.2464 19.141 21.5126 11.5434 32.6408 11.5595C39.2138 11.5686 43.7825 13.5793 48.493 18.5358C56.3295 26.7814 58.0798 38.5492 52.9651 48.5942C50.7527 52.9392 45.2549 58.7831 40.3002 62.0553C38.2219 63.4286 36.521 64.714 36.521 64.9127C36.521 65.7488 45.331 60.3732 48.5565 57.5692C60.1236 47.5123 62.4228 31.6607 54.1715 18.8637C51.1866 14.2357 47.8016 11.3756 42.198 8.74779C33.5043 4.67097 22.3302 6.2541 15.1025 12.5852C10.3292 16.7659 7.29073 23.3175 7.3507 29.2983C7.47698 41.99 18.4994 51.4572 30.2337 48.9529C36.7221 47.5678 42.1648 41.5119 42.1648 35.6778C42.1648 33.2164 40.5422 29.021 38.787 26.9429L37.5792 25.5128L39.2639 26.9169C41.5285 28.8047 42.8703 32.1746 42.8703 35.9755C42.8703 40.1808 41.8812 42.5411 38.7715 45.7565C35.0839 49.57 31.33 51.2908 25.8435 51.6825C21.8956 51.9647 20.5707 51.7436 17.3777 50.2693C5.26389 44.6774 0.21969 29.3924 6.32705 16.7828C9.85728 9.49337 19.2994 2.8056 28.6915 0.943053C33.1481 0.0591692 33.2109 0.0191612 30.1716 0.000205803C28.4256 -0.011027 25.2841 0.438992 23.1909 0.99923Z" fill="white"/>
</svg>
