<svg width="60" height="65" viewBox="0 0 60 65" fill="black" xmlns="http://www.w3.org/2000/svg">
<path fill-rule="evenodd" clip-rule="evenodd" d="M23.1909 0.99923C10.8823 4.29256 1.40278 14.6886 0.158311 26.2584C-1.19833 38.8588 6.29459 51.4796 17.6324 55.6926C22.2604 57.4127 31.3145 56.9093 36.0215 54.6698C40.4907 52.5439 45.4326 47.6752 47.2881 43.5696C49.3523 39.0041 49.3565 31.5175 47.2986 27.619C44.2249 21.7975 38.4399 17.9615 32.6592 17.9124C24.8982 17.8457 19.4391 23.5092 20.9242 30.0867C21.2854 31.686 21.7425 33.1546 21.9408 33.3519C22.1383 33.5492 23.7024 32.8928 25.416 31.8931C29.5106 29.5054 32.4482 29.5159 34.353 31.9261C38.5076 37.1816 32.2669 44.3847 24.6893 43.081C18.2024 41.9647 13.2669 36.0457 13.2584 29.3741C13.2464 19.141 21.5126 11.5434 32.6408 11.5595C39.2138 11.5686 43.7825 13.5793 48.493 18.5358C56.3295 26.7814 58.0798 38.5492 52.9651 48.5942C50.7527 52.9392 45.2549 58.7831 40.3002 62.0553C38.2219 63.4286 36.521 64.714 36.521 64.9127C36.521 65.7488 45.331 60.3732 48.5565 57.5692C60.1236 47.5123 62.4228 31.6607 54.1715 18.8637C51.1866 14.2357 47.8016 11.3756 42.198 8.74779C33.5043 4.67097 22.3302 6.2541 15.1025 12.5852C10.3292 16.7659 7.29073 23.3175 7.3507 29.2983C7.47698 41.99 18.4994 51.4572 30.2337 48.9529C36.7221 47.5678 42.1648 41.5119 42.1648 35.6778C42.1648 33.2164 40.5422 29.021 38.787 26.9429L37.5792 25.5128L39.2639 26.9169C41.5285 28.8047 42.8703 32.1746 42.8703 35.9755C42.8703 40.1808 41.8812 42.5411 38.7715 45.7565C35.0839 49.57 31.33 51.2908 25.8435 51.6825C21.8956 51.9647 20.5707 51.7436 17.3777 50.2693C5.26389 44.6774 0.21969 29.3924 6.32705 16.7828C9.85728 9.49337 19.2995 2.8056 28.6915 0.943054C33.1481 0.0591692 33.2109 0.0191612 30.1716 0.000205803C28.4256 -0.011027 25.2841 0.438992 23.1909 0.99923Z" fill="black"/>
</svg>
