<svg width="63" height="67" viewBox="0 0 63 67" fill="none" xmlns="http://www.w3.org/2000/svg">
<g clip-path="url(#clip0_52_73)">
<path d="M7.65206 0H55.3405C56.344 0.00337987 57.337 0.205156 58.2626 0.5938C59.1883 0.982443 60.0286 1.55034 60.7355 2.26502C61.453 2.97077 62.0229 3.81314 62.4117 4.74277C62.8006 5.6724 63.0006 6.67058 63 7.67878V59.3064C62.9992 60.3133 62.7985 61.3099 62.4097 62.2381C62.0209 63.1663 61.4518 64.0076 60.7355 64.7127C60.03 65.4297 59.1901 65.9996 58.2642 66.3896C57.3383 66.7796 56.3447 66.982 55.3405 66.9851H7.65206C6.64442 66.9833 5.64712 66.7816 4.71744 66.3916C3.78777 66.0016 2.94412 65.431 2.23497 64.7127C0.814043 63.2745 0.0161966 61.3316 0.0148361 59.3064V7.67878C0.0126335 5.65064 0.81087 3.70416 2.23497 2.26502C2.94546 1.549 3.78955 0.98044 4.71903 0.591805C5.6485 0.20317 6.64512 0.00207171 7.65206 0ZM55.3405 1.67834H7.65206C6.06401 1.67343 4.53893 2.3011 3.41162 3.42352C2.2931 4.55477 1.66764 6.08519 1.67253 7.67878V59.3064C1.66996 60.091 1.82233 60.8685 2.12083 61.5937C2.41933 62.319 2.85802 62.9777 3.41162 63.5319C3.96739 64.0931 4.62804 64.5387 5.35568 64.8432C6.08332 65.1478 6.86366 65.3053 7.65206 65.3068H55.3405C56.1258 65.3065 56.9032 65.1494 57.6274 64.8447C58.3516 64.5399 59.0081 64.0937 59.5588 63.5319C60.1178 62.9802 60.562 62.3226 60.8656 61.5972C61.1692 60.8718 61.3262 60.0931 61.3275 59.3064V7.67878C61.3213 6.08158 60.6854 4.55176 59.5588 3.42352C59.0057 2.8671 58.348 2.42633 57.624 2.12676C56.8999 1.8272 56.1237 1.67478 55.3405 1.67834Z" fill="white"/>
<path fill-rule="evenodd" clip-rule="evenodd" d="M16.7916 25.5242H20.3956V40.9114H42.597V25.5242H46.201C48.1547 25.5242 49.7754 26.9203 49.7754 28.6432V48.3303H42.597C42.4788 48.3414 42.3599 48.3414 42.2418 48.3303H13.2024V28.6432C13.2024 26.9203 14.8083 25.5242 16.7842 25.5242H16.7916ZM42.0124 49.0878H44.6543C44.8953 49.0751 45.1319 49.1559 45.3152 49.3135C45.4984 49.4711 45.6142 49.6934 45.6386 49.9344C45.6196 50.1781 45.5056 50.4045 45.3213 50.5644C45.1371 50.7243 44.8974 50.8048 44.6543 50.7884H42.0124C41.8932 50.7964 41.7735 50.7807 41.6605 50.742C41.5474 50.7033 41.4431 50.6425 41.3536 50.563C41.2641 50.4836 41.1912 50.3871 41.1391 50.2792C41.0871 50.1713 41.0569 50.0541 41.0503 49.9344C41.0692 49.6953 41.1804 49.4732 41.36 49.3151C41.5397 49.157 41.7737 49.0754 42.0124 49.0878ZM17.5909 49.2066H20.2328C20.4752 49.1881 20.7149 49.2669 20.8994 49.4256C21.0839 49.5844 21.1982 49.8101 21.2171 50.0532C21.1981 50.2969 21.0842 50.5233 20.8999 50.6832C20.7156 50.8431 20.4759 50.9236 20.2328 50.9072H17.5909C17.3478 50.9236 17.1081 50.8431 16.9238 50.6832C16.7396 50.5233 16.6256 50.2969 16.6066 50.0532C16.6255 49.8101 16.7398 49.5844 16.9243 49.4256C17.1088 49.2669 17.3486 49.1881 17.5909 49.2066ZM22.0312 39.0623H41.1539V40.4807H22.0312V39.0623ZM26.649 22.5239H36.5138C39.1336 22.5239 41.2501 24.3656 41.2501 26.6084V34.5991C41.2501 36.827 39.1336 38.6835 36.5138 38.6835H26.649C24.0589 38.6835 21.9423 36.8418 21.9423 34.5991V26.6307C21.9423 24.4028 24.0589 22.5462 26.649 22.5462V22.5239Z" fill="white"/>
</g>
<defs>
<clipPath id="clip0_52_73">
<rect width="63" height="67" fill="white"/>
</clipPath>
</defs>
</svg>
