<svg width="64" height="68" viewBox="0 0 64 68" fill="none" xmlns="http://www.w3.org/2000/svg">
<path d="M7.68707 0.864258H55.5474C57.5748 0.866879 59.5197 1.66726 60.9617 3.09239C61.6778 3.80544 62.2465 4.65257 62.6351 5.5854C63.0238 6.51822 63.2249 7.51848 63.227 8.52904V60.1772C63.2205 62.2133 62.4057 64.1635 60.9617 65.599C60.253 66.3147 59.4099 66.8833 58.4807 67.2721C57.5515 67.6608 56.5546 67.8621 55.5474 67.8642H7.68707C6.67927 67.8658 5.68128 67.6662 4.75158 67.2772C3.82188 66.8883 2.97914 66.3177 2.27269 65.599C1.55626 64.8904 0.986718 64.0474 0.596721 63.1183C0.206725 62.1892 0.00394836 61.1922 0 60.1846V8.54389C0.00182884 7.53263 0.203559 6.5317 0.593593 5.59868C0.983627 4.66566 1.55427 3.81895 2.27269 3.10725C3.71061 1.67595 5.65822 0.874464 7.68707 0.879115V0.864258ZM55.5474 2.54279H7.68707C6.89708 2.53931 6.11423 2.69241 5.38377 2.99326C4.65331 3.29412 3.98971 3.73676 3.43132 4.29559C2.87171 4.85186 2.42851 5.51401 2.12757 6.24342C1.82662 6.97282 1.67395 7.75485 1.67851 8.54389V60.192C1.67691 60.9773 1.83099 61.7551 2.13185 62.4805C2.43271 63.2059 2.87439 63.8644 3.43132 64.4181C3.98861 64.9799 4.65151 65.426 5.38189 65.7307C6.11227 66.0353 6.8957 66.1925 7.68707 66.1931H55.5474C56.3355 66.1928 57.1156 66.0357 57.8424 65.731C58.5692 65.4262 59.2282 64.9799 59.7808 64.4181C60.3438 63.8682 60.7904 63.2107 61.0941 62.4847C61.3978 61.7587 61.5523 60.979 61.5485 60.192V8.54389C61.5511 7.75381 61.3961 6.97115 61.0926 6.24168C60.7891 5.51222 60.3431 4.85062 59.7808 4.29559C59.2263 3.73776 58.5666 3.29558 57.8399 2.99469C57.1131 2.6938 56.3339 2.54021 55.5474 2.54279Z" fill="white"/>
<g clip-path="url(#clip0_52_265)">
<path d="M31.9644 45.2417H12.5061C11.4023 45.2417 11.0139 44.8541 11.0139 43.7537C11.0139 39.263 10.9763 34.7724 11.0253 30.2833C11.067 26.5201 12.7162 23.5676 15.8977 21.4922C17.6148 20.3748 19.528 19.8674 21.5828 19.8683C28.5328 19.8683 35.4828 19.8545 42.4328 19.8739C47.8439 19.8893 52.2028 23.6987 52.9142 28.9936C52.9729 29.4755 53.0002 29.9606 52.9959 30.446C53.0014 34.8962 53.0014 39.3464 52.9959 43.7966C52.9959 44.8379 52.5871 45.2425 51.5413 45.2425L31.9644 45.2417ZM50.5675 29.1635C50.5675 29.0891 50.5675 29.0349 50.5585 28.9831C49.9363 25.0993 46.5455 22.1864 42.5538 22.1735C35.522 22.154 28.4903 22.154 21.4585 22.1735C19.7699 22.182 18.1259 22.7111 16.7553 23.6872C15.3846 24.6633 14.3555 26.0379 13.8111 27.6197C13.6377 28.1205 13.5372 28.6457 13.4022 29.157C17.228 30.0018 19.4994 32.2714 20.2909 35.9853H30.8214C30.8214 35.4326 30.8492 34.9075 30.8165 34.3864C30.5916 30.8036 28.2679 27.8632 24.8264 26.7855C24.0594 26.5427 23.7021 25.9885 23.8926 25.3331C24.0921 24.6486 24.7037 24.35 25.4879 24.5774C28.3136 25.3962 30.406 27.1051 31.7837 29.6749C31.8491 29.7979 31.9203 29.9176 32.0127 30.0794C32.1132 29.8909 32.1811 29.7614 32.2506 29.6328C33.6406 27.0662 35.7403 25.3671 38.5686 24.5588C39.3404 24.3387 39.9847 24.6955 40.145 25.4083C40.2807 26.0128 39.9144 26.5541 39.2235 26.7717C36.854 27.5167 35.1181 28.9917 34.0159 31.1968C33.2612 32.7131 33.0544 34.3168 33.2858 35.9804H43.7189C44.5325 32.2463 46.799 29.9912 50.5675 29.1635ZM50.6427 31.5464C50.5307 31.565 50.4383 31.5731 50.3492 31.5957C49.1348 31.9137 48.0561 32.61 47.2726 33.5817C46.4891 34.5533 46.0424 35.7487 45.9985 36.991C45.9699 37.9223 45.5455 38.3333 44.5995 38.3333H19.4152C18.4676 38.3333 18.0473 37.9288 18.017 36.991C17.9729 35.7832 17.549 34.6192 16.8046 33.6611C16.0602 32.703 15.0324 31.9985 13.8642 31.6459C13.7113 31.6006 13.5535 31.5723 13.3859 31.5334V42.9162H50.6395L50.6427 31.5464Z" fill="white"/>
<path d="M16.8058 47.5615C17.5444 47.5615 18.2837 47.5574 19.0223 47.5615C19.7326 47.5663 20.2214 48.0292 20.2287 48.6943C20.236 49.3594 19.7657 49.8481 19.053 49.8546C17.5344 49.868 16.0161 49.868 14.498 49.8546C13.7918 49.8473 13.3199 49.3505 13.3312 48.6846C13.3425 48.0186 13.8387 47.568 14.5489 47.5631C15.3004 47.5583 16.0527 47.5615 16.8058 47.5615Z" fill="white"/>
<path d="M46.7874 47.5623C47.5486 47.5623 48.3098 47.5567 49.071 47.5623C49.7579 47.5688 50.2566 48.0373 50.2713 48.6749C50.2861 49.3408 49.8086 49.8449 49.0972 49.8522C47.5475 49.8667 45.9975 49.8667 44.4473 49.8522C43.7539 49.8449 43.287 49.3545 43.2911 48.7024C43.2952 48.0502 43.7874 47.5696 44.5029 47.564C45.2641 47.5575 46.0253 47.5615 46.7874 47.5623Z" fill="white"/>
</g>
<defs>
<clipPath id="clip0_52_265">
<rect width="41.5068" height="30" fill="white" transform="translate(11 19.8643)"/>
</clipPath>
</defs>
</svg>
