<svg width="63" height="68" viewBox="0 0 63 68" fill="none" xmlns="http://www.w3.org/2000/svg">
<path d="M7.65947 0.864258H55.3479C57.368 0.86687 59.306 1.66438 60.7429 3.08439C61.4564 3.79488 62.023 4.63897 62.4103 5.56845C62.7975 6.49792 62.9979 7.49459 63 8.50152V59.9642C62.9935 61.993 62.1816 63.9362 60.7429 65.3665C60.0367 66.0797 59.1966 66.6463 58.2707 67.0336C57.3448 67.421 56.3515 67.6215 55.3479 67.6237H7.65947C6.65529 67.6252 5.66089 67.4264 4.73452 67.0388C3.80815 66.6512 2.96844 66.0827 2.26453 65.3665C1.55068 64.6605 0.983175 63.8206 0.594579 62.8948C0.205983 61.969 0.00393418 60.9756 0 59.9716V8.51632C0.00182227 7.50868 0.202828 6.51135 0.591462 5.58168C0.980096 4.65201 1.54869 3.80834 2.26453 3.0992C3.69729 1.67303 5.6379 0.874428 7.65947 0.879062V0.864258ZM55.3479 2.53677H7.65947C6.87232 2.53329 6.09228 2.68585 5.36444 2.98562C4.6366 3.28539 3.97538 3.72644 3.419 4.28327C2.8614 4.83754 2.41979 5.49732 2.11993 6.2241C1.82006 6.95089 1.66794 7.73011 1.67249 8.51632V59.979C1.67089 60.7615 1.82442 61.5365 2.1242 62.2593C2.42397 62.9821 2.86407 63.6382 3.419 64.1899C3.97429 64.7497 4.63481 65.1942 5.36257 65.4978C6.09032 65.8013 6.87094 65.9579 7.65947 65.9586H55.3479C56.1332 65.9583 56.9106 65.8017 57.6348 65.4981C58.359 65.1944 59.0155 64.7497 59.5662 64.1899C60.1271 63.642 60.5722 62.9868 60.8747 62.2634C61.1773 61.54 61.3313 60.7631 61.3275 59.979V8.51632C61.3301 7.72907 61.1757 6.94922 60.8732 6.22238C60.5708 5.49553 60.1265 4.83631 59.5662 4.28327C59.0137 3.72745 58.3563 3.28685 57.6322 2.98704C56.9081 2.68724 56.1316 2.53419 55.3479 2.53677Z" fill="white"/>
<g clip-path="url(#clip0_52_137)">
<path d="M37.8433 33.8924H25.1549V34.3671C25.1549 38.7489 25.1549 43.13 25.1549 47.5104C25.1549 47.9051 25.1034 48.2747 24.8192 48.5801C24.5466 48.8732 24.2036 48.9935 23.8136 48.9942C22.1699 48.9942 20.5269 49.0079 18.8832 48.9942C17.9921 48.9849 17.539 48.467 17.539 47.5198C17.539 41.05 17.539 34.5803 17.539 28.1106V27.5632C17.1278 27.5632 16.745 27.5632 16.3615 27.5632C15.5393 27.5574 15.0114 27.0589 15.0056 26.2486C14.994 24.6039 14.994 22.9595 15.0056 21.3153C15.0143 20.5042 15.5422 20 16.3644 20C26.4537 20 36.5423 20 46.6302 20C47.4539 20 47.9839 20.497 47.9904 21.3102C48.0034 22.9549 48.0034 24.5991 47.9904 26.2428C47.9846 27.0604 47.4589 27.5552 46.6382 27.5617C46.2655 27.5617 45.8921 27.5617 45.4578 27.5617V47.2994C45.4578 47.4434 45.4614 47.5875 45.4542 47.7316C45.4172 48.4612 44.9575 48.9712 44.2216 48.982C42.5061 49.0079 40.7901 49.0079 39.0737 48.982C38.3117 48.9697 37.852 48.441 37.8411 47.6595C37.831 46.7599 37.8411 45.8588 37.8411 44.9591V33.8924H37.8433ZM17.5549 25.0147H45.4339V22.5484H17.5549V25.0147ZM37.8201 27.592H25.1824V31.3289H37.8201V27.592ZM20.1165 27.5761V46.4753C20.8343 46.4753 21.5209 46.4581 22.2068 46.4833C22.5433 46.4955 22.6288 46.3896 22.6281 46.0612C22.6189 40.0275 22.6162 33.9935 22.6201 27.9593C22.6201 27.834 22.6071 27.7079 22.5998 27.5761H20.1165ZM40.3861 27.5761V38.1472C40.3861 40.7979 40.3904 43.4494 40.3795 46.1001C40.3795 46.4012 40.4673 46.4934 40.7667 46.4818C41.3467 46.4602 41.9268 46.4573 42.5068 46.4818C42.8389 46.497 42.9317 46.3961 42.931 46.0633C42.9218 40.0291 42.9191 33.9952 42.923 27.9615C42.923 27.8354 42.91 27.7094 42.9027 27.5747L40.3861 27.5761Z" fill="white"/>
</g>
<defs>
<clipPath id="clip0_52_137">
<rect width="33" height="29" fill="white" transform="translate(15 20)"/>
</clipPath>
</defs>
</svg>
