<svg width="64" height="74" viewBox="0 0 64 74" fill="none" xmlns="http://www.w3.org/2000/svg">
<path d="M7.64347 65.3213H55.5314C57.1222 65.314 58.6451 64.6755 59.7653 63.546C60.325 62.9935 60.7695 62.3355 61.0729 61.61C61.3764 60.8845 61.5328 60.1059 61.5332 59.3195V7.66564C61.5294 6.07123 60.8936 4.54336 59.7653 3.41686C59.2095 2.86062 58.5495 2.41948 57.8229 2.11868C57.0964 1.81788 56.3177 1.66332 55.5314 1.66386H7.64347C6.85684 1.66128 6.07753 1.8149 5.35073 2.11582C4.62393 2.41674 3.96411 2.85897 3.40954 3.41686C2.27917 4.5426 1.64084 6.07033 1.63426 7.66564V59.3195C1.63558 60.1065 1.79319 60.8853 2.09794 61.6108C2.40269 62.3364 2.84851 62.9942 3.40954 63.546C3.96226 64.1079 4.62125 64.5543 5.34814 64.859C6.07502 65.1638 6.85527 65.321 7.64347 65.3213ZM55.5314 67H7.64347C6.6363 66.9966 5.63967 66.7948 4.71055 66.4061C3.78142 66.0173 2.938 65.4493 2.2285 64.7345C1.51872 64.0232 0.956478 63.1786 0.574063 62.2493C0.191648 61.32 -0.00339997 60.3244 0.000119789 59.3195V7.66564C-0.00552623 6.65714 0.188466 5.65749 0.570918 4.72431C0.95337 3.79112 1.51672 2.94285 2.2285 2.22838C3.67202 0.80513 5.61631 0.00501321 7.64347 0H55.5314C57.5582 0.00659885 59.5019 0.806479 60.9464 2.22838C61.6581 2.94285 62.2215 3.79112 62.6039 4.72431C62.9864 5.65749 63.1804 6.65714 63.1747 7.66564V59.3195C63.1783 60.3244 62.9832 61.32 62.6008 62.2493C62.2184 63.1786 61.6561 64.0232 60.9464 64.7345C59.5125 66.1768 57.5651 66.9915 55.5314 67Z" fill="white"/>
<g clip-path="url(#clip0_52_90)">
<path d="M12.4531 43.4871C12.0551 43.4389 11.6858 43.4302 11.3396 43.3443C10.8158 43.2144 10.3487 42.9153 10.0098 42.4929C9.67081 42.0705 9.47865 41.548 9.46267 41.0053C9.4502 40.6356 9.47418 40.2649 9.45404 39.8961C9.38211 38.5669 9.9451 37.6392 11.19 37.1093C11.1085 36.9963 11.0375 36.894 10.9627 36.7955C10.253 35.8485 10.1455 34.8089 10.4496 33.6862C11.2495 30.7275 12.034 27.764 12.83 24.8053C13.301 23.0493 14.6322 22.0058 16.4353 22.0058C26.6304 22.0013 36.8256 22.0013 47.0207 22.0058C48.7969 22.0058 50.1387 23.0493 50.6039 24.7744C51.4057 27.7488 52.2014 30.7256 52.9911 33.7046C53.3402 35.0164 53.1877 35.7269 52.3331 37.0098C52.757 37.4018 53.2385 37.7329 53.5598 38.1808C53.8044 38.5215 53.8983 39.0032 53.9645 39.4357C54.0307 39.8682 53.9856 40.3344 53.9818 40.7871C53.9684 42.3606 52.9268 43.4196 51.3721 43.4427H50.9491C51.0518 43.6281 51.1208 43.7613 51.1985 43.8897C51.725 44.771 52.2535 45.6533 52.7829 46.5308C53.1982 47.2162 53.2366 47.9035 52.7503 48.558C52.2641 49.2125 51.585 49.3476 50.8206 49.1671C50.0562 48.9866 49.5057 48.5377 49.1086 47.8736C48.2944 46.5105 47.4734 45.1504 46.6697 43.7816C46.616 43.669 46.5295 43.5755 46.4217 43.5136C46.314 43.4517 46.19 43.4243 46.0664 43.435C36.51 43.4447 26.9539 43.4447 17.3982 43.435C17.0836 43.435 16.9187 43.5316 16.7594 43.8018C15.9663 45.1591 15.151 46.5047 14.3444 47.8562C13.84 48.7009 13.1149 49.2028 12.1242 49.2356C10.7498 49.282 9.90577 47.8948 10.581 46.6882C11.1056 45.7508 11.6791 44.8415 12.2287 43.9177C12.3073 43.7777 12.3745 43.6377 12.4531 43.4871ZM50.8264 36.7598C51.8699 36.197 52.2823 35.2665 51.9869 34.1438C51.2043 31.1783 50.4156 28.2151 49.6208 25.2541C49.2103 23.7212 48.3634 23.0706 46.7781 23.0706H29.4185C25.1026 23.0706 20.7867 23.0706 16.4708 23.0706C15.2115 23.0706 14.2447 23.7241 13.9292 24.8738C13.0679 28.0008 12.2297 31.1333 11.4144 34.2712C11.2812 34.7566 11.3297 35.2744 11.5507 35.7262C11.7717 36.178 12.1498 36.5324 12.6133 36.7222C13.2472 34.7655 14.6475 34.054 16.6223 34.0801C20.4097 34.1303 24.1991 34.1197 27.9866 34.0801C29.4664 34.0646 30.7871 34.3069 31.7059 35.669C32.4885 34.5936 33.5013 34.0888 34.7702 34.0907C38.9423 34.0907 43.1143 34.0907 47.2864 34.0994C47.6694 34.0973 48.0509 34.1466 48.421 34.2461C49.687 34.6091 50.437 35.4952 50.8264 36.7598ZM31.7251 42.3654H50.5185C50.8216 42.3654 51.1256 42.3741 51.4287 42.3654C52.2919 42.3374 52.8942 41.7303 52.9162 40.8644C52.9249 40.5429 52.9162 40.2215 52.9162 39.899C52.9162 38.5872 52.3964 38.0649 51.0825 38.0649H12.3467C12.2028 38.0649 12.0589 38.0591 11.9151 38.0717C11.095 38.1422 10.5436 38.7358 10.5244 39.5679C10.5158 39.9058 10.5244 40.2437 10.5244 40.5815C10.5244 41.8268 11.0634 42.3645 12.3102 42.3645L31.7251 42.3654Z" fill="white"/>
<path d="M17.2725 24.1427C17.5119 24.1317 17.7517 24.1333 17.9909 24.1475C18.317 24.1813 18.528 24.3647 18.5107 24.717C18.4954 25.0462 18.2892 25.2045 17.9765 25.2151C17.6639 25.2258 17.3378 25.2151 17.0174 25.2229C16.2003 25.2286 16.0075 25.3773 15.7994 26.1534C15.5807 26.9749 15.3524 27.7945 15.1414 28.6169C15.0455 28.9895 14.87 29.2598 14.449 29.1594C14.0107 29.0542 14.0078 28.7048 14.0999 28.3505C14.3166 27.5116 14.542 26.6747 14.7712 25.8407C15.0964 24.6398 15.7428 24.1456 16.9867 24.1378H17.2745L17.2725 24.1427Z" fill="white"/>
<path d="M13.0056 32.3901C13.2271 31.5947 13.3892 30.8929 13.6376 30.222C13.6913 30.0762 14.0701 29.943 14.2562 29.9884C14.4106 30.0251 14.6283 30.3562 14.5976 30.5145C14.4664 31.2038 14.2813 31.8816 14.0443 32.5417C13.9877 32.6961 13.6318 32.839 13.4352 32.8139C13.2664 32.7907 13.1293 32.5214 13.0056 32.3901Z" fill="white"/>
</g>
<defs>
<clipPath id="clip0_52_90">
<rect width="49" height="51.6644" fill="white" transform="translate(5 22)"/>
</clipPath>
</defs>
</svg>
