<svg width="63" height="68" viewBox="0 0 63 68" fill="none" xmlns="http://www.w3.org/2000/svg">
<path d="M7.63902 65.6179H55.3387C56.1226 65.6205 56.8992 65.4669 57.6235 65.1661C58.3478 64.8652 59.0053 64.4231 59.558 63.8653C60.6844 62.7398 61.3205 61.2124 61.3271 59.6175V7.97505C61.3258 7.18828 61.1687 6.4096 60.865 5.68422C60.5614 4.95884 60.117 4.30121 59.558 3.74949C59.0072 3.18769 58.3505 2.74145 57.6261 2.43674C56.9017 2.13203 56.1242 1.97492 55.3387 1.97459H7.63902C6.85043 1.97606 6.06991 2.13361 5.3421 2.43817C4.61428 2.74273 3.95348 3.18834 3.39758 3.74949C2.84385 4.30367 2.40505 4.9624 2.10649 5.68767C1.80792 6.41293 1.65552 7.19036 1.65808 7.97505V59.6175C1.65353 61.2088 2.27923 62.7368 3.39758 63.8653C3.95458 64.4234 4.61605 64.8656 5.34395 65.1664C6.07185 65.4671 6.8518 65.6206 7.63902 65.6179ZM55.3387 67.2963H7.63902C5.61182 67.2939 3.66644 66.494 2.22066 65.0684C0.799654 63.6179 0.00235052 61.6661 0 59.6323V7.97505C0.00534884 5.95059 0.802784 4.00918 2.22066 2.56871C2.92997 1.85036 3.77382 1.27978 4.70371 0.889792C5.63361 0.499801 6.63115 0.298093 7.63902 0.296265H55.3387C56.3431 0.2994 57.3369 0.501786 58.263 0.891787C59.1891 1.28179 60.0292 1.8517 60.7349 2.56871C61.4494 3.27533 62.0174 4.11685 62.4061 5.04473C62.7949 5.97262 62.9967 6.96853 63 7.97505V59.6175C62.9982 60.6286 62.7971 61.6294 62.4084 62.5624C62.0196 63.4953 61.4509 64.3419 60.7349 65.0535C59.2964 66.4764 57.3588 67.2764 55.3387 67.2814V67.2963Z" fill="white"/>
<g clip-path="url(#clip0_52_278)">
<path d="M31.464 47.2957C24.0696 47.2957 16.6755 47.2957 9.28167 47.2957C9.07865 47.3039 8.87529 47.2947 8.67387 47.2681C8.28921 47.2024 8.06606 46.9589 8.01222 46.5729C8.00179 46.4728 7.9983 46.3722 8.0018 46.2716C8.0018 41.2782 8.0018 36.2849 8.0018 31.2916C8.00615 28.9981 9.47791 27.1727 11.6773 26.7599C12.1389 26.671 12.5719 26.4719 12.9389 26.1796C15.0845 24.5787 17.5166 23.5676 20.0737 22.8336C24.3388 21.6117 28.6968 21.18 33.1199 21.325C37.0437 21.458 40.8877 22.0478 44.6048 23.3396C46.7756 24.0934 48.8213 25.0795 50.623 26.5242C50.7487 26.6174 50.8964 26.6769 51.0519 26.6969C53.2722 27 54.9766 28.841 54.987 31.0567C55.0105 36.1652 54.9975 41.2736 54.9949 46.3821C54.9949 46.9572 54.6927 47.2612 54.1266 47.2931C53.9677 47.3026 53.8079 47.2931 53.649 47.2931L31.464 47.2957ZM48.5851 27.0742C47.9556 26.7288 47.4155 26.3912 46.8485 26.1149C42.5774 24.0425 38.0075 23.2187 33.3031 23.0063C30.0508 22.8457 26.7908 23.0733 23.5929 23.6841C20.6711 24.2506 17.8448 25.0899 15.2486 26.5829C14.9881 26.7349 14.7276 26.9033 14.4498 27.0786C16.2836 28.0699 17.1224 29.5473 17.0712 31.5575C17.0364 32.9391 17.0642 34.3207 17.0659 35.7023C17.0659 35.8534 17.0798 36.0046 17.0868 36.1488H45.9229V35.6479C45.9229 34.2387 45.9168 32.8286 45.9272 31.4168C45.9208 31.0433 45.9499 30.67 46.0141 30.302C46.3119 28.8384 47.1689 27.7944 48.5851 27.0742ZM17.0972 37.8015V45.592H45.8882V37.8015H17.0972ZM9.58297 45.5903H15.4006V37.3628C15.4006 35.2775 15.4162 33.1913 15.3945 31.1059C15.3939 30.6506 15.2852 30.2019 15.0773 29.7963C14.8694 29.3906 14.5681 29.0396 14.1979 28.7716C13.8278 28.5037 13.3993 28.3264 12.9472 28.2543C12.4952 28.1822 12.0324 28.2172 11.5966 28.3565C10.3627 28.7373 9.57429 29.8305 9.57255 31.2061C9.56734 35.8799 9.56734 40.5543 9.57255 45.2293C9.56908 45.3433 9.58297 45.4564 9.58297 45.5903ZM53.3694 45.6058V45.0014C53.3694 40.7449 53.3694 36.4881 53.3694 32.2311C53.3694 31.7993 53.3833 31.3676 53.3555 30.9358C53.2817 29.8236 52.733 29.0033 51.7309 28.518C49.7434 27.5518 47.5423 28.9826 47.5379 31.2467C47.5293 35.9061 47.5293 40.5656 47.5379 45.225C47.5379 45.3494 47.5544 45.4737 47.5631 45.6058H53.3694Z" fill="white"/>
</g>
<defs>
<clipPath id="clip0_52_278">
<rect width="47" height="26" fill="white" transform="translate(8 21.2963)"/>
</clipPath>
</defs>
</svg>
