<svg width="64" height="68" viewBox="0 0 64 68" fill="none" xmlns="http://www.w3.org/2000/svg">
<path d="M7.68707 0.296387H55.5474C57.5748 0.299008 59.5197 1.09939 60.9617 2.52452C61.6778 3.23757 62.2465 4.0847 62.6351 5.01753C63.0238 5.95035 63.2249 6.95061 63.227 7.96117V59.6093C63.2205 61.6454 62.4057 63.5956 60.9617 65.0311C60.253 65.7468 59.4099 66.3155 58.4807 66.7042C57.5515 67.093 56.5546 67.2942 55.5474 67.2964H7.68707C6.67927 67.2979 5.68128 67.0983 4.75158 66.7094C3.82188 66.3204 2.97914 65.7498 2.27269 65.0311C1.55626 64.3225 0.986718 63.4795 0.596721 62.5504C0.206725 61.6213 0.00394836 60.6244 0 59.6167V7.97602C0.00182884 6.96475 0.203559 5.96383 0.593593 5.03081C0.983627 4.09779 1.55427 3.25108 2.27269 2.53938C3.71061 1.10807 5.65822 0.306593 7.68707 0.311244V0.296387ZM55.5474 1.97492H7.68707C6.89708 1.97144 6.11423 2.12454 5.38377 2.42539C4.65331 2.72625 3.98971 3.16889 3.43132 3.72772C2.87171 4.28399 2.42851 4.94614 2.12757 5.67555C1.82662 6.40495 1.67395 7.18698 1.67851 7.97602V59.6242C1.67691 60.4095 1.83099 61.1873 2.13185 61.9126C2.43271 62.638 2.87439 63.2966 3.43132 63.8502C3.98861 64.4121 4.65151 64.8581 5.38189 65.1628C6.11227 65.4674 6.8957 65.6246 7.68707 65.6253H55.5474C56.3355 65.6249 57.1156 65.4678 57.8424 65.1631C58.5692 64.8583 59.2282 64.412 59.7808 63.8502C60.3438 63.3003 60.7904 62.6428 61.0941 61.9168C61.3978 61.1908 61.5523 60.4111 61.5485 59.6242V7.97602C61.5511 7.18594 61.3961 6.40327 61.0926 5.67381C60.7891 4.94435 60.3431 4.28275 59.7808 3.72772C59.2263 3.16989 58.5666 2.72771 57.8399 2.42682C57.1131 2.12593 56.3339 1.97234 55.5474 1.97492Z" fill="white"/>
<g clip-path="url(#clip0_52_124)">
<path d="M20.9086 15.8949C19.7807 17.0922 19.3238 18.5569 19.0616 20.0846C18.5846 22.8703 18.6377 25.6367 19.586 28.3373C20.148 29.9401 21.0451 31.4058 22.2182 32.6379C24.9373 35.5216 26.0673 38.9646 25.7807 42.8853C25.6327 44.9144 25.1514 46.8576 24.1715 48.6563C23.5688 49.7627 22.8008 50.724 21.6607 51.3341C21.5264 51.4056 21.3841 51.4635 21.2663 51.5179C21.6076 51.0086 22.0063 50.5252 22.2814 49.9795C23.0192 48.5176 23.2692 46.9298 23.359 45.3142C23.5027 42.8109 23.2433 40.3657 22.1736 38.0541C21.6271 36.8593 20.8838 35.7638 19.9747 34.8128C17.4387 32.1701 16.2692 28.9967 16.3425 25.3649C16.3913 22.9332 16.9172 20.6195 18.1521 18.499C18.655 17.6328 19.2778 16.8683 20.1313 16.3183C20.3769 16.1531 20.6492 16.0329 20.9086 15.8949Z" fill="white"/>
<path d="M42.647 15.8933C41.4789 17.1192 41.0206 18.6175 40.7577 20.1845C40.2965 22.9374 40.3633 25.6673 41.2922 28.3322C41.8669 29.9771 42.7684 31.4133 43.9653 32.6871C46.6966 35.5951 47.7957 39.0746 47.4818 43.0153C47.3324 44.8956 46.8855 46.7022 46.0235 48.393C45.4753 49.4658 44.7828 50.4313 43.7562 51.1108C43.512 51.2724 43.2426 51.3968 42.9718 51.5442C43.3309 51.0092 43.7253 50.5336 43.994 49.995C44.7914 48.3965 45.0335 46.6672 45.0967 44.9042C45.1815 42.5304 44.9071 40.2218 43.8891 38.0382C43.3554 36.8939 42.6909 35.839 41.8058 34.9321C39.7541 32.8258 38.507 30.324 38.1643 27.4146C37.7929 24.2555 38.3123 21.2431 39.8985 18.4509C40.3863 17.5926 41.017 16.8445 41.8604 16.3053C42.1111 16.1458 42.3841 16.0292 42.647 15.8933Z" fill="white"/>
<path d="M31.7735 15.894C30.5091 17.2207 30.0716 18.8786 29.8231 20.5887C29.4876 22.8938 29.525 25.1989 30.1514 27.4632C30.7045 29.4615 31.7053 31.203 33.1341 32.725C35.7979 35.5622 36.8963 38.9644 36.6363 42.8151C36.5055 44.7576 36.0616 46.625 35.1751 48.3723C34.6234 49.4601 33.9258 50.4328 32.8877 51.1172C32.6365 51.2775 32.3678 51.4087 32.0867 51.5084C33.0803 50.5257 33.5537 49.2913 33.841 47.986C34.0168 47.2088 34.1369 46.4201 34.2002 45.6259C34.3769 43.2027 34.2002 40.8197 33.2527 38.5403C32.678 37.1492 31.8928 35.8941 30.8403 34.8091C29.1801 33.0976 28.0602 31.0807 27.5551 28.762C26.7728 25.171 27.2448 21.7316 29.0228 18.4952C29.5034 17.6191 30.1456 16.8639 30.9984 16.3139C31.2397 16.1522 31.512 16.0321 31.7735 15.894Z" fill="white"/>
</g>
<defs>
<clipPath id="clip0_52_124">
<rect width="31.1939" height="35.6501" fill="white" transform="translate(16.3396 15.8933)"/>
</clipPath>
</defs>
</svg>
