<svg width="63" height="67" viewBox="0 0 63 67" fill="none" xmlns="http://www.w3.org/2000/svg">
<path d="M7.65947 0H55.3479C57.368 0.00261171 59.306 0.800124 60.7429 2.22013C61.4564 2.93062 62.023 3.77471 62.4103 4.70419C62.7975 5.63367 62.9979 6.63033 63 7.63727V59.1C62.9935 61.1287 62.1816 63.0719 60.7429 64.5023C60.0367 65.2155 59.1966 65.782 58.2707 66.1694C57.3448 66.5567 56.3515 66.7573 55.3479 66.7594H7.65947C6.65529 66.761 5.66089 66.5621 4.73452 66.1745C3.80815 65.787 2.96844 65.2185 2.26453 64.5023C1.55068 63.7963 0.983175 62.9563 0.594579 62.0305C0.205983 61.1047 0.00393418 60.1114 0 59.1074V7.65206C0.00182227 6.64443 0.202828 5.6471 0.591462 4.71742C0.980096 3.78775 1.54869 2.94408 2.26453 2.23494C3.69729 0.808774 5.6379 0.0101698 7.65947 0.0148041V0ZM55.3479 1.67251H7.65947C6.87232 1.66904 6.09228 1.82159 5.36444 2.12136C4.6366 2.42113 3.97538 2.86219 3.419 3.41901C2.8614 3.97328 2.41979 4.63306 2.11993 5.35985C1.82006 6.08663 1.66794 6.86586 1.67249 7.65206V59.1148C1.67089 59.8972 1.82442 60.6723 2.1242 61.395C2.42397 62.1178 2.86407 62.774 3.419 63.3256C3.97429 63.8855 4.63481 64.33 5.36257 64.6335C6.09032 64.937 6.87094 65.0937 7.65947 65.0943H55.3479C56.1332 65.094 56.9106 64.9375 57.6348 64.6338C58.359 64.3301 59.0155 63.8855 59.5662 63.3256C60.1271 62.7777 60.5722 62.1226 60.8747 61.3992C61.1773 60.6758 61.3313 59.8989 61.3275 59.1148V7.65206C61.3301 6.86481 61.1757 6.08496 60.8732 5.35812C60.5708 4.63128 60.1265 3.97205 59.5662 3.41901C59.0137 2.86319 58.3563 2.42259 57.6322 2.12278C56.9081 1.82298 56.1316 1.66993 55.3479 1.67251Z" fill="white"/>
<g clip-path="url(#clip0_52_148)">
<path d="M20.9409 39.0274V33.0509C21.7566 33.2205 22.5515 33.4189 23.3571 33.5481C27.4133 34.2 31.3094 33.5986 35.0516 31.9485C36.9784 31.0982 38.9307 30.3474 41.0183 30.0129C43.9967 29.5368 46.8946 29.7391 49.6626 31.05C49.849 31.1386 50.0237 31.2522 50.2131 31.3308C50.5835 31.4864 50.6902 31.7408 50.684 32.1446C50.6585 33.7783 50.6732 35.4121 50.6732 37.0459V37.5204C50.5518 37.4668 50.4745 37.438 50.4026 37.3991C48.0057 36.1092 45.4348 35.6813 42.748 35.8579C40.0789 36.0329 37.573 36.814 35.1529 37.9195C32.1019 39.3098 28.9117 39.9952 25.553 39.8544C24.2177 39.7968 22.0512 39.4304 20.9409 39.0274Z" fill="white"/>
<path d="M20.9702 26.2612C21.5779 26.3981 22.1856 26.556 22.8003 26.6712C27.1302 27.4811 31.2838 26.8672 35.2804 25.0693C37.3347 24.1459 39.4417 23.406 41.6863 23.1353C44.711 22.7704 47.6205 23.1034 50.3313 24.6134C50.5903 24.7581 50.6854 24.9246 50.6823 25.2241C50.6669 26.9225 50.6754 28.6208 50.6738 30.3192C50.6738 30.4436 50.6615 30.5681 50.6576 30.6397C49.6834 30.2717 48.7447 29.8415 47.7643 29.5606C44.9143 28.7437 42.0427 28.8659 39.2221 29.6742C37.6703 30.1192 36.1595 30.7315 34.6665 31.357C31.3564 32.7441 27.9397 33.3712 24.3637 32.9557C23.2951 32.8313 22.2428 32.5535 21.1874 32.3256C21.0846 32.303 20.94 32.1319 20.9392 32.0284C20.9261 30.1363 20.9323 28.2427 20.9354 26.3491C20.9429 26.3183 20.9546 26.2888 20.9702 26.2612Z" fill="white"/>
<path d="M50.6753 43.7602C48.4563 41.4628 45.7269 40.9454 42.7888 41.1018C40.0764 41.2465 37.5381 42.0657 35.0816 43.1829C32.0894 44.5428 28.9603 45.2236 25.6704 45.0905C24.164 45.0313 22.6707 44.7849 21.2245 44.3569C21.1085 44.3219 20.9407 44.1795 20.9407 44.0885C20.923 42.6772 20.9284 41.266 20.9284 39.8158C21.5067 39.9496 22.048 40.0904 22.5954 40.2001C26.9446 41.0676 31.1275 40.4786 35.1559 38.6908C37.1661 37.7985 39.2112 37.0446 41.397 36.7397C44.4952 36.3086 47.4805 36.623 50.2764 38.1517C50.5702 38.312 50.69 38.4948 50.6846 38.8464C50.6614 40.3363 50.6746 41.8277 50.6746 43.3183L50.6753 43.7602Z" fill="white"/>
<path d="M50.6491 23.8962C49.8488 23.5695 49.0826 23.2031 48.2831 22.9409C45.778 22.1178 43.2233 22.0968 40.6502 22.5628C38.7009 22.916 36.8546 23.5866 35.0538 24.4012C31.8373 25.856 28.4747 26.5632 24.9497 26.2349C23.6887 26.1182 22.4454 25.7969 21.1975 25.5518C21.0962 25.5323 20.9423 25.3884 20.9408 25.3005C20.9253 23.8776 20.9299 22.4546 20.9299 21.0302C21.7843 21.1998 22.5977 21.3911 23.4204 21.5203C26.8874 22.0649 30.2763 21.7179 33.5708 20.5206C34.9626 20.0157 36.2994 19.3723 37.6912 18.8744C40.6795 17.8046 43.7414 17.4265 46.8813 18.0909C48.1184 18.3531 49.3076 18.7771 50.3962 19.4407C50.5246 19.5185 50.6614 19.7076 50.6637 19.8476C50.6839 21.143 50.6753 22.4391 50.6738 23.7375C50.6703 23.7911 50.662 23.8442 50.6491 23.8962Z" fill="white"/>
<path d="M43.9342 49.8779C42.0553 49.7869 40.2592 49.4601 38.6765 48.3935C38.2592 48.113 37.8873 47.7695 37.5739 47.3751C36.786 46.3785 36.8054 45.1968 37.5801 44.1901C38.3007 43.2518 39.2935 42.7049 40.3845 42.3517C43.0272 41.4959 45.6623 41.5239 48.2208 42.6574C48.8983 42.9683 49.5161 43.397 50.0455 43.924C51.172 45.0373 51.1504 46.503 50.0695 47.6669C49.0798 48.7327 47.7932 49.2532 46.4138 49.541C45.5989 49.7106 44.7615 49.769 43.9342 49.8779ZM44.0424 47.8551C44.8929 47.8357 45.8208 47.656 46.5692 46.9768C47.3424 46.2766 47.3339 45.3127 46.5646 44.607C46.426 44.4734 46.27 44.3596 46.1007 44.2686C44.6316 43.528 43.1448 43.5 41.712 44.3176C40.3976 45.0692 40.4154 46.496 41.712 47.2849C42.3855 47.6988 43.1363 47.8481 44.0424 47.8551Z" fill="white"/>
<path d="M20.2115 44.0081C19.5628 43.7241 18.9744 43.4721 18.3952 43.2052C18.3334 43.1772 18.2924 43.0691 18.2731 42.9897C18.2608 42.9 18.259 42.8091 18.2677 42.719V20.0408C18.9071 20.2858 19.5133 20.5153 20.1156 20.7565C20.1635 20.776 20.1929 20.8755 20.2068 20.9425C20.2165 21.0324 20.218 21.123 20.2115 21.2132V44.0081Z" fill="white"/>
<path d="M17.493 19.9188V20.5684H12.5964V19.9188H17.493Z" fill="white"/>
<path d="M12.5808 23.7738V23.132H17.5466V23.7738H12.5808Z" fill="white"/>
<path d="M17.5638 26.3318V26.9635H12.5941V26.3318H17.5638Z" fill="white"/>
<path d="M17.5015 29.5332V30.1618H12.5941V29.5332H17.5015Z" fill="white"/>
<path d="M12.5941 32.7229H17.4868V33.3632H12.5941V32.7229Z" fill="white"/>
<path d="M12.5847 36.5646V35.9321H17.5458V36.5646H12.5847Z" fill="white"/>
<path d="M12.5855 39.7645V39.1344H17.5458V39.7645H12.5855Z" fill="white"/>
<path d="M17.5607 42.3444V42.9698H12.5839V42.3444H17.5607Z" fill="white"/>
<path d="M43.9639 47.1794C43.2828 47.1794 42.6317 47.0526 42.0526 46.6776C41.2663 46.1688 41.2554 45.3939 42.0727 44.9349C43.3291 44.2277 44.6366 44.2207 45.8961 44.9248C46.7513 45.4025 46.725 46.1914 45.8838 46.7087C45.2961 47.0705 44.6436 47.1872 43.9639 47.1794Z" fill="white"/>
</g>
<defs>
<clipPath id="clip0_52_148">
<rect width="38.4823" height="32.1565" fill="white" transform="translate(12.5808 17.7611)"/>
</clipPath>
</defs>
</svg>
