<svg width="64" height="67" viewBox="0 0 64 67" fill="none" xmlns="http://www.w3.org/2000/svg">
<path d="M55.5335 67H7.64671C5.6169 67.0038 3.66854 66.202 2.22937 64.7706C0.800039 63.3301 -0.00139477 61.3826 6.71136e-06 59.3533V7.63943C-0.00267616 5.61203 0.799099 3.66639 2.22937 2.2295C2.94126 1.51974 3.78624 0.957468 4.71586 0.574907C5.64548 0.192347 6.64145 -0.00297703 7.64671 0.000137674H55.5335C56.5425 -0.00591991 57.5427 0.187977 58.4763 0.570621C59.41 0.953265 60.2586 1.51707 60.9731 2.2295C62.3993 3.66913 63.2003 5.61299 63.2025 7.63943V59.3384C63.1991 61.3668 62.3984 63.3125 60.9731 64.7558C60.2578 65.4672 59.4091 66.0304 58.4756 66.4129C57.5421 66.7955 56.5423 66.99 55.5335 66.9851V67ZM7.64671 65.3428H55.5335C57.1311 65.341 58.6627 64.7048 59.7915 63.5742C60.912 62.4489 61.5424 60.9264 61.5453 59.3384V7.63943C61.5428 6.05353 60.9122 4.53318 59.7915 3.41106C59.2339 2.84889 58.5707 2.40255 57.8399 2.09774C57.1091 1.79293 56.3253 1.63566 55.5335 1.635H7.64671C6.85817 1.63533 6.07756 1.79253 5.35036 2.09745C4.62315 2.40236 3.96387 2.8489 3.41091 3.41106C2.28614 4.53167 1.65034 6.05172 1.64228 7.63943V59.3384C1.64999 60.9284 2.2857 62.4508 3.41091 63.5742C3.96598 64.133 4.62583 64.5769 5.35267 64.8804C6.07951 65.1839 6.85906 65.341 7.64671 65.3428Z" fill="white"/>
<path fill-rule="evenodd" clip-rule="evenodd" d="M50.1236 24.2184H45.5979V37.1116H17.5971V24.2184H13.0566C10.5746 24.2184 8.53845 25.4 8.53845 26.8193V43.3018H54.612V26.8193C54.612 25.4 52.5833 24.2184 50.1012 24.2184H50.1236ZM34.9639 21.7587H41.2507C42.0641 21.7897 42.8325 22.1403 43.389 22.7344C43.9455 23.3285 44.2453 24.1181 44.2232 24.9318V31.1517C44.2454 31.9669 43.9461 32.7582 43.39 33.3546C42.8338 33.9511 42.0654 34.3049 41.2507 34.3397H34.9639C34.1445 34.3087 33.3701 33.9573 32.8072 33.3611C32.2443 32.7649 31.9381 31.9715 31.9542 31.1517V24.9318C31.9381 24.1135 32.2449 23.3217 32.8081 22.7279C33.3714 22.134 34.1458 21.7859 34.9639 21.7587ZM48.9345 43.7997H50.7552C50.9391 43.8181 51.1096 43.9045 51.2332 44.0419C51.3569 44.1793 51.4249 44.3579 51.424 44.5428C51.428 44.7248 51.36 44.9011 51.2348 45.0333C51.1096 45.1655 50.9372 45.2429 50.7552 45.2488H48.9345C48.7538 45.241 48.5834 45.1628 48.4597 45.0308C48.3361 44.8988 48.2691 44.7236 48.2731 44.5428C48.272 44.3591 48.339 44.1815 48.4611 44.0442C48.5833 43.907 48.7519 43.8199 48.9345 43.7997ZM12.9897 43.7997H14.7881C14.9747 43.8146 15.1488 43.8995 15.2755 44.0373C15.4023 44.175 15.4724 44.3556 15.4718 44.5428C15.4748 44.6344 15.4593 44.7257 15.4263 44.8113C15.3932 44.8968 15.3434 44.9748 15.2796 45.0407C15.2158 45.1065 15.1394 45.1589 15.055 45.1946C14.9705 45.2304 14.8798 45.2488 14.7881 45.2488H12.9897C12.8981 45.2488 12.8073 45.2304 12.7229 45.1946C12.6384 45.1589 12.562 45.1065 12.4983 45.0407C12.4345 44.9748 12.3846 44.8968 12.3516 44.8113C12.3186 44.7257 12.3031 44.6344 12.3061 44.5428C12.3055 44.3556 12.3755 44.175 12.5023 44.0373C12.629 43.8995 12.8031 43.8146 12.9897 43.7997ZM19.0239 34.6221H44.2083V35.7145H19.0239V34.6221ZM21.9964 21.7587H28.2832C29.0953 21.7935 29.8615 22.1452 30.4172 22.7385C30.9729 23.3317 31.2739 24.1191 31.2557 24.9318V31.1517C31.274 31.9659 30.9735 32.7549 30.4181 33.3506C29.8628 33.9462 29.0966 34.3011 28.2832 34.3397H21.9964C21.1757 34.3125 20.399 33.9623 19.8354 33.3652C19.2717 32.7681 18.9667 31.9726 18.9867 31.1517V24.9318C18.9668 24.1124 19.2722 23.3184 19.8363 22.7237C20.4003 22.129 21.177 21.782 21.9964 21.7587Z" fill="white"/>
</svg>
