<svg width="64" height="67" viewBox="0 0 64 67" fill="none" xmlns="http://www.w3.org/2000/svg">
<path d="M7.66392 65.3216H55.5189C56.3054 65.3242 57.0846 65.1706 57.8112 64.8698C58.5378 64.5689 59.1975 64.1268 59.7519 63.5691C60.8821 62.4436 61.5203 60.9162 61.5268 59.3212V7.67878C61.5255 6.89201 61.368 6.11334 61.0633 5.38796C60.7586 4.66258 60.3128 4.00494 59.7519 3.45322C59.1993 2.89143 58.5405 2.44519 57.8138 2.14048C57.087 1.83576 56.307 1.67865 55.5189 1.67833H7.66392C6.87276 1.6798 6.0897 1.83734 5.35952 2.1419C4.62933 2.44647 3.96638 2.89208 3.40867 3.45322C2.85313 4.0074 2.41291 4.66614 2.11337 5.3914C1.81383 6.11667 1.66093 6.8941 1.6635 7.67878V59.3212C1.65894 60.9126 2.28668 62.4405 3.40867 63.5691C3.96748 64.1272 4.63111 64.5693 5.36138 64.8701C6.09164 65.1709 6.87414 65.3243 7.66392 65.3216ZM55.5189 67H7.66392C5.63012 66.9976 3.6784 66.1977 2.22791 64.7721C0.802281 63.3216 0.00238106 61.3699 2.28882e-05 59.3361V7.67878C0.00538914 5.65433 0.805421 3.71292 2.22791 2.27244C2.93953 1.5541 3.78613 0.983518 4.71905 0.593528C5.65197 0.203537 6.65276 0.00182864 7.66392 0H55.5189C56.5266 0.00313519 57.5237 0.205522 58.4528 0.595522C59.3819 0.985522 60.2247 1.55543 60.9327 2.27244C61.6495 2.97906 62.2193 3.82058 62.6094 4.74847C62.9994 5.67636 63.2019 6.67226 63.2052 7.67878V59.3212C63.2033 60.3324 63.0016 61.3332 62.6116 62.2661C62.2216 63.199 61.6511 64.0456 60.9327 64.7572C59.4895 66.1802 57.5456 66.9801 55.5189 66.9851V67Z" fill="white"/>
<path fill-rule="evenodd" clip-rule="evenodd" d="M38.2231 41.7581H35.1041L37.28 50.9741C37.3076 51.115 37.3836 51.2418 37.4948 51.3326C37.606 51.4235 37.7454 51.4727 37.8889 51.4717H37.9632C38.1172 51.4436 38.2562 51.3617 38.3555 51.2407C38.4548 51.1196 38.5079 50.9673 38.5053 50.8107V41.7358C38.4088 41.7358 38.3197 41.7358 38.2231 41.7358V41.7581ZM25.2717 34.6214H37.8964C38.0813 34.6253 38.2637 34.6657 38.433 34.7403C38.6023 34.8148 38.7552 34.9222 38.8829 35.0561C39.0106 35.19 39.1106 35.3478 39.177 35.5204C39.2435 35.6931 39.2752 35.8772 39.2702 36.0621V39.2109C39.2782 39.3988 39.2489 39.5864 39.184 39.7629C39.1192 39.9394 39.0201 40.1014 38.8924 40.2394C38.7647 40.3775 38.611 40.4889 38.44 40.5673C38.2691 40.6457 38.0843 40.6894 37.8964 40.6961H25.2717C25.0837 40.6894 24.899 40.6457 24.728 40.5673C24.5571 40.4889 24.4034 40.3775 24.2757 40.2394C24.148 40.1014 24.0488 39.9394 23.984 39.7629C23.9191 39.5864 23.8899 39.3988 23.8978 39.2109V36.0621C23.8929 35.8772 23.9246 35.6931 23.991 35.5204C24.0575 35.3478 24.1575 35.19 24.2851 35.0561C24.4128 34.9222 24.5657 34.8148 24.735 34.7403C24.9043 34.6657 25.0867 34.6253 25.2717 34.6214ZM29.1705 15.5284H34.0124C35.2108 15.5692 36.3446 16.081 37.1677 16.9528C37.9909 17.8247 38.4369 18.986 38.4088 20.1847V28.8809C38.4409 30.0828 37.9969 31.2488 37.1735 32.1251C36.3502 33.0013 35.2141 33.5168 34.0124 33.5595H29.1705C27.9675 33.5207 26.8291 33.0063 26.0049 32.1292C25.1807 31.2521 24.7381 30.0839 24.7741 28.8809V20.1847C24.7421 18.9849 25.1868 17.8214 26.0107 16.9487C26.8347 16.076 27.9708 15.5653 29.1705 15.5284ZM24.9375 41.7581C24.8484 41.7581 24.7518 41.7581 24.6553 41.7581V50.8182C24.6538 50.9791 24.7111 51.135 24.8164 51.2566C24.9216 51.3783 25.0677 51.4574 25.2271 51.4791H25.294C25.4381 51.479 25.5778 51.4296 25.6899 51.339C25.802 51.2485 25.8798 51.1224 25.9103 50.9816L28.0862 41.7655L24.9375 41.7581Z" fill="white"/>
</svg>
