<svg width="64" height="67" viewBox="0 0 64 67" fill="none" xmlns="http://www.w3.org/2000/svg">
<path d="M7.68707 0H55.5474C57.5748 0.00262113 59.5197 0.803007 60.9617 2.22813C61.6778 2.94118 62.2465 3.78831 62.6351 4.72114C63.0238 5.65397 63.2249 6.65422 63.227 7.66479V59.3129C63.2205 61.349 62.4057 63.2992 60.9617 64.7347C60.253 65.4505 59.4099 66.0191 58.4807 66.4078C57.5515 66.7966 56.5546 66.9978 55.5474 67H7.68707C6.67927 67.0015 5.68128 66.802 4.75158 66.413C3.82188 66.024 2.97914 65.4535 2.27269 64.7347C1.55626 64.0261 0.986718 63.1831 0.596721 62.254C0.206725 61.3249 0.00394836 60.328 0 59.3204V7.67963C0.00182884 6.66837 0.203559 5.66744 0.593593 4.73442C0.983627 3.8014 1.55427 2.95469 2.27269 2.24299C3.71061 0.811688 5.65822 0.0102064 7.68707 0.0148574V0ZM55.5474 1.67853H7.68707C6.89708 1.67505 6.11423 1.82815 5.38377 2.12901C4.65331 2.42986 3.98971 2.8725 3.43132 3.43133C2.87171 3.9876 2.42851 4.64976 2.12757 5.37916C1.82662 6.10856 1.67395 6.8906 1.67851 7.67963V59.3278C1.67691 60.1131 1.83099 60.8909 2.13185 61.6163C2.43271 62.3416 2.87439 63.0002 3.43132 63.5538C3.98861 64.1157 4.65151 64.5618 5.38189 64.8664C6.11227 65.171 6.8957 65.3282 7.68707 65.3289H55.5474C56.3355 65.3286 57.1156 65.1714 57.8424 64.8667C58.5692 64.562 59.2282 64.1157 59.7808 63.5538C60.3438 63.0039 60.7904 62.3464 61.0941 61.6204C61.3978 60.8944 61.5523 60.1147 61.5485 59.3278V7.67963C61.5511 6.88955 61.3961 6.10689 61.0926 5.37743C60.7891 4.64796 60.3431 3.98637 59.7808 3.43133C59.2263 2.87351 58.5666 2.43132 57.8399 2.13043C57.1131 1.82955 56.3339 1.67595 55.5474 1.67853Z" fill="white"/>
<g clip-path="url(#clip0_52_193)">
<path d="M42.3439 15.597C42.8556 15.7653 43.1105 16.1293 43.2501 16.6442C45.3884 24.5096 47.5307 32.3737 49.6769 40.2366C49.7317 40.4473 49.7587 40.6642 49.7573 40.8818C49.7627 43.6661 49.7639 46.4504 49.761 49.2347C49.761 50.0812 49.3424 50.5044 48.5051 50.5044H16.0977C15.2793 50.5044 14.8567 50.0768 14.8567 49.2509C14.8567 46.4564 14.8467 43.6619 14.8679 40.8675C14.8679 40.4523 14.9994 40.0309 15.1104 39.6208C17.1922 31.9661 19.2756 24.3116 21.3608 16.6573C21.4954 16.1586 21.7435 15.8008 22.2116 15.5939L42.3439 15.597ZM23.3235 17.7868C21.3435 25.0455 19.3621 32.3108 17.3792 39.5828H47.2386C45.2532 32.3029 43.2717 25.0376 41.2942 17.7868H23.3235ZM47.5571 48.3096V41.8019H17.0551V48.3096H47.5571Z" fill="white"/>
<path d="M34.5783 23.2273C34.4354 23.2297 34.2935 23.2035 34.1608 23.1504C34.0282 23.0972 33.9075 23.018 33.8058 22.9176C33.7042 22.8172 33.6236 22.6974 33.5688 22.5654C33.5141 22.4334 33.4862 22.2918 33.4869 22.1489C33.4843 22.006 33.5103 21.8641 33.5633 21.7314C33.6164 21.5987 33.6954 21.478 33.7957 21.3762C33.896 21.2745 34.0157 21.1938 34.1476 21.139C34.2795 21.0841 34.4211 21.0562 34.5639 21.0568C34.8525 21.0549 35.13 21.1672 35.3362 21.369C35.5423 21.5709 35.6604 21.846 35.6647 22.1346C35.6639 22.423 35.5493 22.6996 35.346 22.9041C35.1426 23.1087 34.8667 23.2248 34.5783 23.2273Z" fill="white"/>
<path d="M30.0133 23.226C29.7249 23.2161 29.4522 23.0926 29.2546 22.8824C29.0569 22.6722 28.9503 22.3925 28.9581 22.104C28.9699 21.8156 29.0953 21.5436 29.3069 21.3473C29.5184 21.1511 29.799 21.0464 30.0875 21.0562C30.2303 21.0595 30.3711 21.0914 30.5015 21.1499C30.6319 21.2084 30.7493 21.2924 30.8468 21.3969C30.9443 21.5014 31.0199 21.6244 31.0693 21.7586C31.1186 21.8927 31.1406 22.0354 31.134 22.1782C31.1308 22.3211 31.0991 22.4619 31.0407 22.5924C30.9824 22.7229 30.8985 22.8404 30.7941 22.938C30.6897 23.0356 30.5669 23.1114 30.4328 23.1608C30.2987 23.2103 30.1561 23.2325 30.0133 23.226Z" fill="white"/>
<path d="M29.3432 34.1471C29.6317 34.1497 29.9074 34.2662 30.1103 34.4712C30.3132 34.6763 30.4269 34.9532 30.4265 35.2417C30.4218 35.5303 30.3031 35.8053 30.0965 36.0069C29.8898 36.2084 29.6119 36.3201 29.3233 36.3176C29.1804 36.3177 29.039 36.2893 28.9073 36.234C28.7755 36.1787 28.6562 36.0977 28.5561 35.9957C28.4561 35.8937 28.3775 35.7728 28.3248 35.64C28.2721 35.5072 28.2465 35.3652 28.2494 35.2223C28.249 35.0794 28.2772 34.9379 28.3323 34.8061C28.3874 34.6742 28.4682 34.5547 28.5701 34.4546C28.672 34.3544 28.7929 34.2756 28.9257 34.2228C29.0584 34.17 29.2004 34.1442 29.3432 34.1471Z" fill="white"/>
<path d="M41.2487 36.3176C41.1059 36.3206 40.9639 36.2951 40.8311 36.2425C40.6983 36.1899 40.5773 36.1113 40.4752 36.0113C40.3732 35.9113 40.2921 35.792 40.2368 35.6603C40.1814 35.5286 40.153 35.3871 40.153 35.2442C40.1496 35.1013 40.1748 34.9592 40.2271 34.8262C40.2795 34.6932 40.3579 34.572 40.4578 34.4698C40.5577 34.3675 40.6771 34.2863 40.8088 34.2309C40.9406 34.1755 41.0821 34.147 41.225 34.1472C41.5135 34.1441 41.7914 34.2552 41.9984 34.4561C42.2053 34.657 42.3246 34.9315 42.3301 35.2199C42.3308 35.5085 42.2176 35.7856 42.0151 35.9912C41.8126 36.1967 41.5372 36.314 41.2487 36.3176Z" fill="white"/>
<path d="M25.5318 23.2273C25.389 23.2295 25.2472 23.2032 25.1147 23.1499C24.9822 23.0966 24.8617 23.0174 24.7602 22.9169C24.6587 22.8164 24.5783 22.6966 24.5237 22.5647C24.4691 22.4327 24.4415 22.2911 24.4423 22.1483C24.4396 22.0054 24.4656 21.8635 24.5186 21.7308C24.5716 21.5981 24.6506 21.4773 24.7509 21.3756C24.8513 21.2739 24.971 21.1933 25.1029 21.1386C25.2349 21.0838 25.3765 21.056 25.5194 21.0568C25.8078 21.0548 26.0854 21.1671 26.2913 21.3692C26.4972 21.5713 26.6148 21.8467 26.6182 22.1352C26.6181 22.4238 26.5037 22.7006 26.3002 22.9053C26.0966 23.1099 25.8204 23.2256 25.5318 23.2273Z" fill="white"/>
<path d="M29.6973 29.7724C29.5545 29.7743 29.4127 29.7478 29.2802 29.6946C29.1477 29.6414 29.027 29.5625 28.9251 29.4624C28.8231 29.3623 28.742 29.2431 28.6864 29.1115C28.6308 28.98 28.6017 28.8387 28.6009 28.6959C28.5992 28.5531 28.6258 28.4113 28.6792 28.2788C28.7325 28.1464 28.8117 28.0258 28.9119 27.924C29.0122 27.8223 29.1316 27.7415 29.2633 27.6862C29.395 27.6309 29.5364 27.6023 29.6792 27.6019C29.822 27.5996 29.9638 27.6257 30.0964 27.6788C30.2291 27.7318 30.3498 27.8106 30.4517 27.9108C30.5535 28.0109 30.6344 28.1303 30.6897 28.262C30.745 28.3936 30.7736 28.535 30.7737 28.6778C30.7759 28.8207 30.7497 28.9625 30.6967 29.0952C30.6436 29.2278 30.5647 29.3485 30.4645 29.4504C30.3643 29.5523 30.2449 29.6332 30.1132 29.6885C29.9815 29.7437 29.8401 29.7723 29.6973 29.7724Z" fill="white"/>
<path d="M34.918 29.7724C34.7751 29.7721 34.6338 29.7433 34.5022 29.6878C34.3706 29.6322 34.2514 29.551 34.1515 29.4489C34.0516 29.3468 33.9731 29.2257 33.9205 29.0929C33.868 28.9601 33.8424 28.8181 33.8453 28.6753C33.8453 28.5325 33.8739 28.3911 33.9292 28.2594C33.9846 28.1277 34.0657 28.0084 34.1677 27.9084C34.2698 27.8085 34.3907 27.7299 34.5235 27.6773C34.6563 27.6246 34.7982 27.599 34.941 27.6019C35.0839 27.6026 35.2252 27.6316 35.3568 27.6872C35.4884 27.7428 35.6077 27.8239 35.7078 27.9259C35.808 28.0278 35.8869 28.1485 35.9402 28.2811C35.9934 28.4137 36.0199 28.5555 36.0181 28.6984C36.0166 28.8412 35.987 28.9824 35.9308 29.1137C35.8747 29.2451 35.7932 29.364 35.691 29.4638C35.5888 29.5636 35.4679 29.6422 35.3352 29.6952C35.2026 29.7481 35.0608 29.7744 34.918 29.7724Z" fill="white"/>
<path d="M24.4716 35.2442C24.4716 35.387 24.4432 35.5285 24.3878 35.6602C24.3325 35.7919 24.2514 35.9112 24.1494 36.0112C24.0473 36.1112 23.9263 36.1898 23.7935 36.2424C23.6607 36.295 23.5187 36.3205 23.3759 36.3176C23.0874 36.3144 22.812 36.1972 22.6098 35.9915C22.4076 35.7857 22.2951 35.5083 22.2969 35.2198C22.3014 34.9313 22.4201 34.6563 22.627 34.4552C22.834 34.254 23.1123 34.1432 23.4008 34.1471C23.5436 34.147 23.6851 34.1756 23.8167 34.231C23.9484 34.2865 24.0676 34.3677 24.1674 34.4699C24.2672 34.5722 24.3455 34.6933 24.3977 34.8263C24.45 34.9593 24.4751 35.1013 24.4716 35.2442Z" fill="white"/>
<path d="M35.277 34.147C35.4198 34.1436 35.5619 34.1687 35.6948 34.2209C35.8278 34.2731 35.949 34.3513 36.0513 34.451C36.1537 34.5507 36.235 34.6699 36.2906 34.8015C36.3462 34.9331 36.375 35.0745 36.3752 35.2173C36.3789 35.3602 36.3539 35.5023 36.3019 35.6354C36.2499 35.7685 36.1718 35.8899 36.0722 35.9924C35.9726 36.0949 35.8536 36.1764 35.722 36.2323C35.5905 36.2881 35.4492 36.3171 35.3063 36.3175C35.0178 36.3215 34.7394 36.2111 34.5321 36.0105C34.3248 35.8098 34.2053 35.5351 34.1999 35.2466C34.1978 34.9582 34.3098 34.6807 34.5116 34.4746C34.7134 34.2686 34.9886 34.1508 35.277 34.147Z" fill="white"/>
<path d="M39.0884 21.0569C39.2315 21.0549 39.3736 21.0817 39.5062 21.1355C39.6388 21.1893 39.7594 21.2692 39.8607 21.3703C39.962 21.4715 40.042 21.5918 40.0961 21.7244C40.1501 21.8569 40.1771 21.999 40.1754 22.1421C40.1774 22.285 40.1509 22.4268 40.0974 22.5592C40.0438 22.6917 39.9644 22.8121 39.8638 22.9135C39.7631 23.0148 39.6432 23.0951 39.5112 23.1495C39.3791 23.204 39.2375 23.2315 39.0946 23.2305C38.8052 23.2311 38.5273 23.1169 38.322 22.9128C38.1166 22.7088 38.0007 22.4316 37.9995 22.1421C38.0012 21.8541 38.1165 21.5785 38.3205 21.3752C38.5244 21.1719 38.8005 21.0575 39.0884 21.0569Z" fill="white"/>
<path d="M25.5412 28.691C25.5415 28.8338 25.5135 28.9753 25.4587 29.1073C25.4039 29.2392 25.3235 29.359 25.2221 29.4596C25.1207 29.5602 25.0003 29.6397 24.8679 29.6934C24.7356 29.7471 24.5939 29.774 24.451 29.7725C24.3082 29.7729 24.1667 29.745 24.0347 29.6903C23.9028 29.6356 23.783 29.5552 23.6823 29.4538C23.5817 29.3525 23.5021 29.2321 23.4484 29.0998C23.3946 28.9674 23.3676 28.8257 23.369 28.6829C23.3686 28.54 23.3965 28.3985 23.4513 28.2666C23.5061 28.1346 23.5865 28.0149 23.6879 27.9143C23.7894 27.8137 23.9098 27.7343 24.0422 27.6807C24.1746 27.6271 24.3163 27.6003 24.4591 27.602C24.602 27.6014 24.7435 27.6292 24.8755 27.6838C25.0075 27.7384 25.1273 27.8187 25.228 27.9201C25.3287 28.0214 25.4082 28.1417 25.462 28.2741C25.5157 28.4064 25.5427 28.5481 25.5412 28.691Z" fill="white"/>
<path d="M41.2481 28.694C41.248 28.8369 41.2195 28.9782 41.1643 29.11C41.1091 29.2417 41.0283 29.3612 40.9267 29.4615C40.825 29.5618 40.7044 29.641 40.5719 29.6943C40.4394 29.7477 40.2977 29.7742 40.1549 29.7724C40.012 29.7724 39.8706 29.7441 39.7388 29.689C39.607 29.6339 39.4874 29.5532 39.3871 29.4515C39.2867 29.3499 39.2075 29.2293 39.1541 29.0968C39.1007 28.9643 39.0741 28.8225 39.076 28.6797C39.0759 28.5368 39.1043 28.3954 39.1594 28.2636C39.2146 28.1318 39.2954 28.0123 39.3971 27.912C39.4988 27.8117 39.6195 27.7327 39.752 27.6794C39.8846 27.6262 40.0264 27.5999 40.1692 27.6019C40.312 27.6017 40.4535 27.63 40.5853 27.6849C40.7172 27.7399 40.8368 27.8206 40.9372 27.9222C41.0376 28.0238 41.1167 28.1444 41.1701 28.2769C41.2235 28.4094 41.25 28.5512 41.2481 28.694Z" fill="white"/>
</g>
<defs>
<clipPath id="clip0_52_193">
<rect width="34.9074" height="34.9074" fill="white" transform="translate(14.8542 15.5969)"/>
</clipPath>
</defs>
</svg>
