<svg width="64" height="67" viewBox="0 0 64 67" fill="none" xmlns="http://www.w3.org/2000/svg">
<path d="M55.5904 1.65763H7.69301C6.9043 1.65796 6.12352 1.81519 5.39616 2.12017C4.6688 2.42516 4.00937 2.87179 3.45629 3.43408C2.32923 4.55418 1.69067 6.07442 1.67983 7.66338V59.3738C1.69033 60.965 2.32879 62.4876 3.45629 63.6105C4.00999 64.1714 4.66969 64.6167 5.39702 64.9204C6.12436 65.2241 6.90482 65.3802 7.69301 65.3795H55.5904C57.1881 65.3761 58.7194 64.74 59.8494 63.6105C60.968 62.4842 61.5959 60.9612 61.5961 59.3738V7.66338C61.5964 6.07803 60.9683 4.5572 59.8494 3.43408C59.2912 2.87244 58.6277 2.42643 57.8968 2.1216C57.166 1.81677 56.3822 1.6591 55.5904 1.65763ZM7.69301 0.000103286H55.5904C56.5995 -0.00513822 57.5996 0.189164 58.5334 0.571847C59.4671 0.954529 60.316 1.51804 61.0312 2.22996C62.4549 3.67171 63.2557 5.61484 63.2611 7.64108V59.3515C63.2545 61.3797 62.454 63.3247 61.0312 64.77C60.3163 65.4823 59.4674 66.046 58.5336 66.4287C57.5998 66.8114 56.5995 67.0055 55.5904 66.9999H7.69301C6.6873 67.0046 5.69062 66.81 4.76056 66.4273C3.83051 66.0445 2.98553 65.4813 2.27446 64.77C1.55748 64.0609 0.987492 63.2173 0.597194 62.2874C0.206896 61.3576 0.00395141 60.3599 0 59.3515V7.66338C0.00718328 6.65388 0.21454 5.65583 0.610056 4.727C1.00557 3.79818 1.58139 2.95703 2.30419 2.25226C3.01551 1.54135 3.86053 0.978288 4.79053 0.595573C5.72052 0.212859 6.71708 0.0180627 7.72274 0.022401L7.69301 0.000103286Z" fill="white"/>
<path d="M22.3956 14.9187C22.1175 15.1303 21.9294 15.2637 21.7519 15.4127C20.2492 16.6544 19.707 18.3251 19.6691 20.1926C19.6261 22.2932 20.1898 24.2669 21.1091 26.1327C23.6723 31.3367 27.6912 35.0255 33.0997 37.0725C36.8133 38.4805 40.2207 37.6695 43.1148 34.9407C43.9293 34.1717 44.6324 33.2857 45.4254 32.412C47.4621 33.4668 49.5252 34.6756 50.1028 37.1812C50.8381 40.3925 50.6599 43.5215 48.4912 46.2445C47.1749 47.8954 45.3742 48.8596 43.4259 49.5735C41.1615 50.3907 38.7922 50.8828 36.3891 51.0351C33.8821 51.208 31.3634 51.3101 28.8514 51.2821C25.7873 51.2516 22.8957 50.485 20.3392 48.7147C17.6505 46.853 15.953 44.2568 14.8745 41.2266C13.5813 37.6069 13.2504 33.8522 13.4204 30.0423C13.545 27.1982 13.9205 24.3871 14.7952 21.6657C15.0674 20.8037 15.4269 19.9716 15.868 19.1823C17.2742 16.7039 19.4347 15.3057 22.3956 14.9187Z" fill="white"/>
<path d="M44.9344 32.1601C42.7203 35.1639 40.0969 37.3822 36.1044 37.2224C34.822 37.1783 33.5619 36.8755 32.3999 36.3323C26.9187 33.746 22.814 29.8422 20.7699 24.0265C20.1188 22.1746 19.8688 20.2627 20.3969 18.3252C20.8277 16.7451 21.8237 15.6335 23.3314 14.9846C23.456 14.9311 23.593 14.8603 23.7218 14.8661C25.3252 14.9402 26.9402 14.941 28.4759 15.5198C29.7782 16.0139 30.8468 16.8192 31.6044 17.9695C32.319 19.0556 32.9429 20.2017 33.585 21.3348C34.2592 22.5279 34.9053 23.7366 35.5655 24.9396C36.7935 27.1875 38.5908 28.8624 40.8239 30.0794C41.9792 30.7093 43.1717 31.2741 44.3476 31.8678C44.5284 31.9584 44.7124 32.0506 44.9344 32.1601Z" fill="white"/>
</svg>
