<svg width="63" height="68" viewBox="0 0 63 68" fill="none" xmlns="http://www.w3.org/2000/svg">
<path d="M7.65947 0.432129H55.3479C57.368 0.434741 59.306 1.23225 60.7429 2.65226C61.4564 3.36275 62.023 4.20684 62.4103 5.13632C62.7975 6.0658 62.9979 7.06246 63 8.06939V59.5321C62.9935 61.5609 62.1816 63.5041 60.7429 64.9344C60.0367 65.6476 59.1966 66.2142 58.2707 66.6015C57.3448 66.9889 56.3515 67.1894 55.3479 67.1916H7.65947C6.65529 67.1931 5.66089 66.9942 4.73452 66.6067C3.80815 66.2191 2.96844 65.6506 2.26453 64.9344C1.55068 64.2284 0.983175 63.3884 0.594579 62.4627C0.205983 61.5369 0.00393418 60.5435 0 59.5395V8.08419C0.00182227 7.07655 0.202828 6.07922 0.591462 5.14955C0.980096 4.21988 1.54869 3.37621 2.26453 2.66707C3.69729 1.2409 5.6379 0.442299 7.65947 0.446933V0.432129ZM55.3479 2.10464H7.65947C6.87232 2.10117 6.09228 2.25372 5.36444 2.55349C4.6366 2.85326 3.97538 3.29432 3.419 3.85114C2.8614 4.40541 2.41979 5.06519 2.11993 5.79198C1.82006 6.51876 1.66794 7.29799 1.67249 8.08419V59.5469C1.67089 60.3294 1.82442 61.1044 2.1242 61.8272C2.42397 62.5499 2.86407 63.2061 3.419 63.7578C3.97429 64.3176 4.63481 64.7621 5.36257 65.0656C6.09032 65.3692 6.87094 65.5258 7.65947 65.5265H55.3479C56.1332 65.5261 56.9106 65.3696 57.6348 65.0659C58.359 64.7623 59.0155 64.3176 59.5662 63.7578C60.1271 63.2099 60.5722 62.5547 60.8747 61.8313C61.1773 61.1079 61.3313 60.331 61.3275 59.5469V8.08419C61.3301 7.29694 61.1757 6.51709 60.8732 5.79025C60.5708 5.06341 60.1265 4.40418 59.5662 3.85114C59.0137 3.29532 58.3563 2.85472 57.6322 2.55491C56.9081 2.25511 56.1316 2.10206 55.3479 2.10464Z" fill="white"/>
<g clip-path="url(#clip0_52_244)">
<path d="M24.1193 44.3349C24.1193 45.7256 24.1128 47.1164 24.125 48.5057C24.125 48.766 24.0122 48.8844 23.8181 49.0406C23.1302 49.5955 22.5501 49.5213 21.7867 49.0634C18.9934 47.3867 16.1455 45.7991 13.3091 44.1879C13.0827 44.0596 12.9964 43.9219 12.9979 43.6602C13.0074 40.8801 13.0074 38.0998 12.9979 35.3193C12.9979 35.0575 13.0697 34.907 13.3105 34.7943C13.6649 34.6275 14.002 34.2865 14.3485 34.2837C14.6806 34.2837 15.017 34.6118 15.3484 34.8015C18.1579 36.41 20.9671 38.0166 23.7757 39.6213C24.0431 39.7725 24.1301 39.9387 24.1265 40.2361C24.1106 41.6019 24.1193 42.9691 24.1193 44.3349Z" fill="white"/>
<path d="M41.7021 34.559C41.7021 34.268 41.6863 34.0412 41.7021 33.818C41.7481 33.2795 41.5159 32.9329 41.0429 32.6662C38.7751 31.3867 36.5195 30.0872 34.2595 28.7942C34.1488 28.7307 34.0439 28.6608 33.9001 28.5738C35.4851 27.6638 37.0269 26.778 38.5724 25.8936C39.3286 25.4593 40.0819 25.0185 40.8474 24.6027C40.9165 24.5711 40.9917 24.5548 41.0677 24.5548C41.1438 24.5548 41.2189 24.5711 41.288 24.6027C43.7406 25.992 46.1839 27.397 48.6336 28.7913C48.8255 28.9005 48.8636 29.0338 48.8995 29.2392C49.0562 30.1464 48.6889 30.645 47.8594 31.0786C45.8927 32.1085 43.9929 33.2653 42.0658 34.37C41.9616 34.4257 41.8566 34.4763 41.7021 34.559Z" fill="white"/>
<path d="M33.7161 39.1278C33.7161 38.8304 33.7046 38.5836 33.7161 38.3383C33.742 37.8462 33.5342 37.5159 33.0993 37.2685C30.8142 35.9747 28.5385 34.666 26.2599 33.3608C26.1592 33.3031 26.0622 33.2381 25.9285 33.154C26.055 33.0741 26.1485 33.0114 26.2462 32.9536C28.4206 31.7062 30.5972 30.4638 32.7665 29.2093C32.9915 29.0795 33.1561 29.0766 33.3826 29.2093C35.7815 30.5924 38.1849 31.967 40.5929 33.333C40.8194 33.4614 40.8682 33.6183 40.9092 33.8608C41.0573 34.7501 40.6821 35.2201 39.8878 35.6395C37.9247 36.6751 36.0242 37.8255 34.0978 38.9288C33.9899 38.9916 33.8749 39.0458 33.7161 39.1278Z" fill="white"/>
<path d="M19.994 36.5402C20.5159 36.2407 20.9896 35.9697 21.4647 35.6958C22.5839 35.0539 23.706 34.4213 24.8194 33.7702C25.0221 33.6518 25.1694 33.6525 25.3722 33.7702C27.7821 35.1576 30.1961 36.5383 32.6142 37.9125C32.8255 38.033 32.8816 38.1742 32.9232 38.4117C33.0807 39.316 32.6918 39.7946 31.8903 40.2211C29.8352 41.313 27.8391 42.514 25.8193 43.6701C25.3678 43.929 24.9315 43.6865 24.9308 43.1759C24.9308 42.1425 24.9215 41.1076 24.9308 40.0756C24.9366 39.5849 24.7439 39.2533 24.3069 39.0058C22.8858 38.2084 21.4726 37.3868 19.994 36.5402Z" fill="white"/>
<path d="M14.9106 32.2054C14.9106 31.8252 14.9235 31.4444 14.9063 31.0642C14.8962 30.8417 14.9839 30.7233 15.1729 30.6164C17.4854 29.3005 19.792 27.9775 22.1066 26.6638C22.1702 26.6338 22.2395 26.6177 22.3099 26.6163C22.3803 26.615 22.4501 26.6285 22.5149 26.6559C23.721 27.2921 23.7059 27.2978 23.8806 28.6529C24.0469 29.9471 24.2321 31.2387 24.4362 32.5277C24.493 32.89 24.4312 33.0933 24.0833 33.2852C22.5379 34.141 21.0097 35.0247 19.4829 35.9105C19.273 36.0324 19.1192 36.046 18.9028 35.9197C17.678 35.2023 16.4464 34.4962 15.2082 33.8015C14.9781 33.6724 14.889 33.5284 14.9055 33.2688C14.9278 32.9186 14.9106 32.5613 14.9106 32.2054Z" fill="white"/>
<path d="M23.1216 26.0697L27.5537 23.5329C28.3832 23.0586 29.2149 22.5886 30.0379 22.1065C30.2234 21.9973 30.3607 21.9866 30.5555 22.0972C31.7005 22.7462 31.6912 22.7391 31.8587 24.0307C32.0391 25.42 32.2504 26.8058 32.4337 28.1951C32.4495 28.3128 32.3798 28.5089 32.29 28.5624C29.9845 29.8937 27.6745 31.2188 25.3599 32.5378C25.3245 32.5525 25.288 32.5644 25.2507 32.5734C25.1522 31.8923 25.0537 31.2184 24.9588 30.5451C24.81 29.4867 24.6641 28.4276 24.5146 27.3692C24.4965 27.196 24.4351 27.0301 24.3361 26.8864C24.2371 26.7427 24.1035 26.6257 23.9475 26.5462C23.688 26.4049 23.4335 26.2502 23.1216 26.0697Z" fill="white"/>
<path d="M33.2331 27.994C33.0354 26.6054 32.8406 25.2332 32.6458 23.8574C32.594 23.493 32.5459 23.1278 32.4927 22.7641C32.4725 22.5981 32.4126 22.4393 32.318 22.3009C32.2233 22.1626 32.0966 22.0487 31.9486 21.9689C31.6819 21.817 31.4159 21.6636 31.114 21.4903C32.1024 20.9198 33.0548 20.377 34.0058 19.8321C35.3536 19.0619 36.7042 18.2959 38.0476 17.5178C38.2245 17.4151 38.3661 17.3858 38.5307 17.5178C38.5865 17.5629 38.6497 17.5982 38.7176 17.6219C39.4881 17.8858 39.7599 18.4328 39.8346 19.2259C39.9741 20.7022 40.23 22.1679 40.4233 23.6392C40.4377 23.7455 40.3701 23.9245 40.2846 23.973C37.9911 25.3043 35.6933 26.6263 33.3912 27.9391C33.3402 27.962 33.2873 27.9804 33.2331 27.994Z" fill="white"/>
<path d="M40.6893 19.6737L43.2008 21.108C45.3668 22.3466 47.5333 23.5828 49.7003 24.8166C49.9303 24.9471 50.0007 25.0983 50 25.3529C49.9904 28.1206 49.9904 30.8886 50 33.6568C50 33.9256 49.9403 34.1018 49.6809 34.2181C49.4214 34.3343 49.1849 34.4891 48.8902 34.656C48.8902 33.569 48.8844 32.5399 48.901 31.5115C48.901 31.4187 49.0311 31.2975 49.131 31.2419C49.5342 31.0279 49.706 30.6998 49.6902 30.2491C49.6751 29.8697 49.6758 29.4888 49.6902 29.108C49.7075 28.6494 49.4918 28.3541 49.1022 28.1323C46.9237 26.8923 44.7479 25.6473 42.5747 24.3973C42.1916 24.1776 41.8013 23.9693 41.4246 23.7411C41.329 23.6817 41.2606 23.5875 41.2341 23.4786C41.0458 22.2405 40.8747 20.9953 40.6893 19.6737Z" fill="white"/>
<path d="M32.1095 41.0063V41.691C32.1095 42.4627 32.1182 43.2344 32.1009 44.0061C32.1009 44.1337 32.0175 44.3177 31.9155 44.3777C29.634 45.6961 27.3474 47.008 25.0559 48.3131C25.0253 48.3228 24.9937 48.3288 24.9617 48.3309V44.4504C25.4785 44.807 25.8882 44.5588 26.3138 44.312C28.1108 43.2736 29.915 42.2438 31.7171 41.2153C31.827 41.1526 31.9399 41.0955 32.1095 41.0063Z" fill="white"/>
<path d="M32.9182 43.7771C32.9182 42.728 32.9117 41.7195 32.9283 40.7104C32.9283 40.6041 33.0462 40.4607 33.1482 40.4001C34.0187 39.888 34.8978 39.3909 35.774 38.8888L39.7189 36.6294C39.8217 36.5709 39.9266 36.516 40.0991 36.4219V36.8377C40.0991 37.6935 40.1085 38.5494 40.0905 39.4052C40.0905 39.5421 40.0035 39.7397 39.8935 39.8032C37.6235 41.1212 35.3473 42.4287 33.0648 43.7258C33.0173 43.7465 32.9683 43.7637 32.9182 43.7771Z" fill="white"/>
<path d="M40.9035 39.2012C40.9035 38.155 40.897 37.1458 40.9135 36.1345C40.9135 36.0275 41.0314 35.8841 41.1342 35.8242C42.2016 35.2002 43.2777 34.5904 44.3516 33.9763L48.0585 31.8517C48.07 31.9908 48.0844 32.0892 48.0851 32.1876C48.0851 33.0663 48.0944 33.9456 48.0772 34.8265C48.0772 34.9641 47.9916 35.1631 47.8831 35.2266C45.6117 36.5436 43.3354 37.8511 41.0544 39.1492C41.0053 39.1699 40.9549 39.1873 40.9035 39.2012Z" fill="white"/>
</g>
<defs>
<clipPath id="clip0_52_244">
<rect width="37" height="32" fill="white" transform="translate(13 17.4321)"/>
</clipPath>
</defs>
</svg>
