<svg width="63" height="68" viewBox="0 0 63 68" fill="none" xmlns="http://www.w3.org/2000/svg">
<path d="M7.65949 0.432129H55.3479C57.3681 0.434741 59.306 1.23225 60.7429 2.65226C61.4564 3.36275 62.023 4.20684 62.4103 5.13632C62.7976 6.0658 62.998 7.06246 63 8.06939V59.5321C62.9936 61.5609 62.1817 63.5041 60.7429 64.9344C60.0367 65.6476 59.1966 66.2142 58.2707 66.6015C57.3449 66.9889 56.3516 67.1894 55.3479 67.1916H7.65949C6.65531 67.1931 5.66091 66.9942 4.73454 66.6067C3.80818 66.2191 2.96846 65.6506 2.26456 64.9344C1.5507 64.2284 0.983198 63.3884 0.594602 62.4627C0.206005 61.5369 0.00395707 60.5435 2.28882e-05 59.5395V8.08419C0.00184516 7.07655 0.202851 6.07922 0.591485 5.14955C0.980119 4.21988 1.54871 3.37621 2.26456 2.66707C3.69731 1.2409 5.63793 0.442299 7.65949 0.446933V0.432129ZM55.3479 2.10464H7.65949C6.87234 2.10117 6.09231 2.25372 5.36447 2.55349C4.63663 2.85326 3.9754 3.29432 3.41903 3.85114C2.86142 4.40541 2.41981 5.06519 2.11995 5.79198C1.82009 6.51876 1.66797 7.29799 1.67251 8.08419V59.5469C1.67091 60.3294 1.82444 61.1044 2.12422 61.8272C2.424 62.5499 2.86409 63.2061 3.41903 63.7578C3.97431 64.3176 4.63484 64.7621 5.36259 65.0656C6.09035 65.3692 6.87097 65.5258 7.65949 65.5265H55.3479C56.1332 65.5261 56.9106 65.3696 57.6348 65.0659C58.359 64.7623 59.0155 64.3176 59.5662 63.7578C60.1272 63.2099 60.5722 62.5547 60.8748 61.8313C61.1773 61.1079 61.3313 60.331 61.3275 59.5469V8.08419C61.3301 7.29694 61.1757 6.51709 60.8733 5.79025C60.5708 5.06341 60.1265 4.40418 59.5662 3.85114C59.0137 3.29532 58.3563 2.85472 57.6322 2.55491C56.9081 2.25511 56.1317 2.10206 55.3479 2.10464Z" fill="white"/>
<path fill-rule="evenodd" clip-rule="evenodd" d="M25.0135 30.9811H40.8135C40.9466 30.984 41.0779 31.0131 41.1998 31.0667C41.3217 31.1204 41.4319 31.1975 41.5239 31.2937C41.616 31.3899 41.6883 31.5033 41.7365 31.6275C41.7848 31.7516 41.8081 31.884 41.8051 32.0172V33.9931C41.8091 34.2615 41.7073 34.5206 41.5218 34.7145C41.3362 34.9084 41.0817 35.0214 40.8135 35.0292H40.2288V49.7487H36.388V44.5166H25.0135V49.7487H21.2245V19.7917C21.2124 19.3079 21.3912 18.8388 21.7221 18.4857C22.0531 18.1326 22.5096 17.9238 22.9932 17.9045H23.3484C23.5775 17.9103 23.8031 17.9612 24.0124 18.0545C24.2217 18.1477 24.4105 18.2813 24.568 18.4478C24.7255 18.6142 24.8485 18.8101 24.9301 19.0242C25.0116 19.2383 25.05 19.4664 25.0431 19.6954L25.0135 30.9811ZM36.388 42.4962V35.0292H25.0135V42.4962H36.388Z" fill="white"/>
</svg>
