<svg width="64" height="67" viewBox="0 0 64 67" fill="none" xmlns="http://www.w3.org/2000/svg">
<path d="M7.64347 65.3213H55.5314C57.1222 65.314 58.6451 64.6755 59.7653 63.546C60.325 62.9935 60.7695 62.3355 61.0729 61.61C61.3764 60.8845 61.5328 60.1059 61.5332 59.3195V7.66564C61.5294 6.07123 60.8936 4.54336 59.7653 3.41686C59.2095 2.86062 58.5495 2.41948 57.8229 2.11868C57.0964 1.81788 56.3177 1.66332 55.5314 1.66386H7.64347C6.85684 1.66128 6.07753 1.8149 5.35073 2.11582C4.62393 2.41674 3.96411 2.85897 3.40954 3.41686C2.27917 4.5426 1.64084 6.07033 1.63426 7.66564V59.3195C1.63558 60.1065 1.79319 60.8853 2.09794 61.6108C2.40269 62.3364 2.84851 62.9942 3.40954 63.546C3.96226 64.1079 4.62125 64.5543 5.34814 64.859C6.07502 65.1638 6.85527 65.321 7.64347 65.3213ZM55.5314 67H7.64347C6.6363 66.9966 5.63967 66.7948 4.71055 66.4061C3.78142 66.0173 2.938 65.4493 2.2285 64.7345C1.51872 64.0232 0.956478 63.1786 0.574063 62.2493C0.191648 61.32 -0.00339997 60.3244 0.000119789 59.3195V7.66564C-0.00552623 6.65714 0.188466 5.65749 0.570918 4.72431C0.95337 3.79112 1.51672 2.94285 2.2285 2.22838C3.67202 0.80513 5.61631 0.00501321 7.64347 0H55.5314C57.5582 0.00659885 59.5019 0.806479 60.9464 2.22838C61.6581 2.94285 62.2215 3.79112 62.6039 4.72431C62.9864 5.65749 63.1804 6.65714 63.1747 7.66564V59.3195C63.1783 60.3244 62.9832 61.32 62.6008 62.2493C62.2184 63.1786 61.6561 64.0232 60.9464 64.7345C59.5125 66.1768 57.5651 66.9915 55.5314 67Z" fill="white"/>
<path fill-rule="evenodd" clip-rule="evenodd" d="M28.7982 13.8828H34.2726C35.6275 13.9313 36.9086 14.5123 37.8376 15.4998C38.7667 16.4872 39.2686 17.8013 39.2345 19.1567V28.969C39.2685 30.3214 38.7656 31.6323 37.8358 32.615C36.906 33.5977 35.6249 34.1723 34.2726 34.2131H32.9282V35.9958H38.5511C38.8111 35.9958 39.0711 36.2558 39.2345 36.6792C39.3464 36.9358 39.4262 37.2052 39.4722 37.4814C43.305 37.4145 42.4434 33.5594 42.3542 30.0163H42.2131C42.0725 30.0087 41.9402 29.9474 41.8435 29.8452C41.7468 29.7429 41.6929 29.6074 41.6931 29.4666V28.8055C41.6911 28.665 41.7446 28.5292 41.8419 28.4278C41.9392 28.3263 42.0726 28.2672 42.2131 28.2633H44.3375C44.4074 28.2643 44.4764 28.2791 44.5405 28.307C44.6046 28.3348 44.6625 28.3752 44.7109 28.4256C44.7593 28.4761 44.7972 28.5357 44.8223 28.6009C44.8475 28.6661 44.8594 28.7357 44.8574 28.8055V29.4666C44.8595 29.6079 44.8063 29.7445 44.7092 29.8471C44.6121 29.9498 44.4787 30.0105 44.3375 30.0163H44.1518C44.1964 34.6736 45.266 39.6132 39.4499 39.4201C39.4135 39.6405 39.3486 39.8552 39.2568 40.0589C39.0934 40.4823 38.8334 40.8017 38.5734 40.8017H32.3339V48.601C34.035 48.7334 35.6728 49.304 37.0878 50.2574C37.1547 50.5843 37.0878 50.7997 36.7313 50.8665C35.3014 49.9039 33.6328 49.3563 31.9105 49.2844V51.3865V51.5276L31.7471 51.7207H31.606H31.4649L31.2792 51.5276V51.3865V49.2844C29.6541 49.309 28.0707 49.8016 26.7184 50.7031C26.3916 50.6288 26.295 50.4208 26.3916 50.0866C27.7205 49.2076 29.2579 48.6951 30.8484 48.601V40.7645H24.6089C24.3489 40.7645 24.0889 40.4748 23.9255 40.0217C23.8438 39.8144 23.7792 39.6008 23.7324 39.3829C18.0129 39.5018 19.0751 34.6068 19.1271 29.9792H18.9339C18.7967 29.9679 18.6689 29.9048 18.5765 29.8027C18.484 29.7006 18.4339 29.5672 18.4363 29.4295V28.7684C18.4322 28.631 18.4819 28.4974 18.5749 28.3961C18.6678 28.2948 18.7967 28.2339 18.9339 28.2262H21.088C21.2286 28.2301 21.3619 28.2891 21.4593 28.3906C21.5566 28.4921 21.61 28.6278 21.608 28.7684V29.4295C21.6082 29.5703 21.5544 29.7058 21.4576 29.808C21.3609 29.9103 21.2286 29.9715 21.088 29.9792H20.9172C20.9172 30.2614 20.9172 30.5437 20.9172 30.8779C20.7538 34.2799 20.3527 36.8203 23.257 37.3774C23.4141 37.4043 23.573 37.4192 23.7324 37.422C23.7768 37.1672 23.849 36.9181 23.9478 36.6792C23.9478 36.6792 23.9478 36.6123 23.9924 36.5603C24.1558 36.2038 24.3935 35.9958 24.6312 35.9958H30.2764V34.2131H28.9097C28.2343 34.2005 27.5681 34.0548 26.9492 33.7843C26.3303 33.5137 25.7708 33.1237 25.303 32.6365C24.8351 32.1493 24.468 31.5745 24.2227 30.9452C23.9774 30.3158 23.8587 29.6443 23.8735 28.969V19.1567C23.8528 17.8051 24.3593 16.4985 25.2855 15.514C26.2118 14.5295 27.485 13.9444 28.8354 13.8828H28.7982ZM36.1222 50.9482C36.4342 50.9482 36.6719 51.0225 36.6719 51.0894V52.0624C36.6719 52.159 36.4342 52.2258 36.1222 52.2258C35.8176 52.2258 35.58 52.159 35.58 52.0624V51.0894C35.58 51.0225 35.8176 50.9482 36.1222 50.9482ZM37.4518 50.9482C37.7563 50.9482 37.994 51.0225 37.994 51.0894V52.0624C37.994 52.159 37.7563 52.2258 37.4518 52.2258C37.1398 52.2258 36.9021 52.159 36.9021 52.0624V51.0894C36.9021 51.0225 37.1398 50.9482 37.4518 50.9482ZM25.6562 50.8517C25.9608 50.8517 26.1985 50.9259 26.1985 51.0225V51.9659C26.1985 52.0624 25.9608 52.1293 25.6562 52.1293C25.3443 52.1293 25.1066 52.0624 25.1066 51.9659V51.0225C25.1066 50.9259 25.3443 50.8517 25.6562 50.8517ZM26.9784 50.8517C27.2829 50.8517 27.5206 50.9259 27.5206 51.0225V51.9659C27.5206 52.0624 27.2829 52.1293 26.9784 52.1293C26.6664 52.1293 26.4362 52.0624 26.4362 51.9659V51.0225C26.4362 50.9259 26.6664 50.8517 26.9784 50.8517ZM30.8781 51.8024C31.1603 51.8024 31.4203 51.8693 31.4203 51.9659V52.9092C31.4203 53.0058 31.1603 53.08 30.8781 53.08C30.5735 53.08 30.3358 53.0058 30.3358 52.9092V51.9659C30.3358 51.8693 30.5735 51.8024 30.8781 51.8024ZM32.2002 51.8024C32.4825 51.8024 32.7425 51.8693 32.7425 51.9659V52.9092C32.7425 53.0058 32.4825 53.08 32.2002 53.08C31.8957 53.08 31.658 53.0058 31.658 52.9092V51.9659C31.658 51.8693 31.8957 51.8024 32.2002 51.8024Z" fill="white"/>
</svg>
