<svg width="167" height="158" viewBox="0 0 167 158" fill="none" xmlns="http://www.w3.org/2000/svg">
<path fill-rule="evenodd" clip-rule="evenodd" d="M63.4849 0.339029C59.9724 1.33346 57.3345 3.61037 55.7622 7.00453C54.5096 9.70894 54.5276 13.5367 55.8053 16.1851C56.9786 18.6168 59.1473 20.8058 61.4767 21.9098C63.027 22.645 63.8226 22.7933 66.2187 22.795C68.6276 22.7963 69.41 22.6501 71.0108 21.8983C73.4468 20.7542 75.5266 18.671 76.6687 16.2309C77.8735 13.6565 77.945 9.38764 76.8242 6.94652C74.5466 1.9859 68.4081 -1.05474 63.4849 0.339029ZM68.7993 6.55295C72.0696 8.10754 72.7776 12.7323 70.1478 15.3664C67.4581 18.0607 62.9372 17.3679 61.3503 14.0181C59.0836 9.23327 64.0231 4.28283 68.7993 6.55295ZM31.0618 10.0187C28.7928 10.8279 27.0311 12.2451 25.7701 14.276C24.3678 16.5346 24.1348 20.3315 25.2407 22.9063C27.3983 27.93 33.4399 30.0868 38.3597 27.5894C45.4155 24.0079 45.1431 13.5896 37.9092 10.3692C35.7367 9.40189 33.1605 9.26991 31.0618 10.0187ZM35.9996 16.0318C39.03 18.1577 37.6017 22.6271 33.8918 22.6271C31.5533 22.6271 30.023 20.7298 30.4636 18.3769C30.9043 16.024 34.0747 14.6811 35.9996 16.0318ZM126.441 16.4966C125.379 16.8369 123.809 17.5266 122.952 18.0295L121.395 18.9438L118.956 17.9382C115.694 16.5926 113.544 16.1807 109.781 16.1807C103.331 16.1807 98.4083 18.2473 93.6172 22.9663C91.1128 25.4332 90.4669 26.3164 89.1503 29.0734C88.3038 30.8461 87.4225 33.1743 87.1918 34.2474L86.7725 36.1983H55.3971C20.8448 36.1983 22.2085 36.1213 17.7825 38.3242C14.8147 39.8011 11.1857 43.4439 9.74854 46.3886C7.80703 50.3666 7.62107 51.6925 7.62107 61.5459V70.4656H14.7121C18.8878 70.4656 22.195 70.6135 22.7565 70.8256C24.1747 71.3613 25.8733 73.1578 26.2517 74.522C26.4353 75.1833 26.586 80.1141 26.587 85.4788L26.5891 95.2331H47.0386C64.7405 95.2331 67.6877 95.3043 68.9704 95.7644C69.7857 96.0565 71.5253 96.3341 72.8365 96.3816L75.2203 96.4674L77.2563 98.5645L79.2923 100.662H52.9407H26.5891V106.429V112.197H71.0582H115.527L117.208 113.913C118.132 114.857 119.563 116.078 120.386 116.627L121.884 117.626H71.5294H21.1747L21.0877 96.8447L21.0003 76.0637H10.5001H0V107.447V138.831L3.81054 138.927L7.62107 139.023V148.511V158H13.344H19.0669L20.4082 154.522C21.1459 152.61 22.7863 148.335 24.0538 145.023L26.3584 139H74.0348H121.711L123.386 143.326C124.307 145.705 125.949 149.98 127.035 152.826L129.008 158H134.703H140.397V148.5V139H144.292H148.188V126.729V114.458L155.567 106.966C162.094 100.34 163.108 99.1606 164.344 96.7598C167.394 90.8374 167.826 84.5851 165.594 78.6467C164.215 74.9767 162.927 73.3101 156.215 66.512L149.8 60.0137L151.014 58.4208C153.767 54.8098 154.729 49.0017 153.283 44.7186C152.337 41.9131 150.664 39.318 148.789 37.7484L147.294 36.4968L147.625 34.4371C148.88 26.6343 143.38 18.4186 135.486 16.3032C133.081 15.6589 128.769 15.7512 126.441 16.4966ZM135.725 22.7075C139.478 24.4286 141.447 27.3865 141.681 31.656C141.816 34.1127 141.732 34.6311 140.901 36.4856C140.389 37.6283 139.761 38.7371 139.506 38.9492C138.779 39.5534 138.958 39.93 139.974 39.9338C142.436 39.9426 146.132 42.7725 147.382 45.6058C148.242 47.5553 148.155 51.2481 147.202 53.2298C145.77 56.209 146.462 56.6511 135.557 45.7958C126.019 36.3028 125.559 35.8983 122.784 34.567C115.942 31.2845 109.022 31.3876 102.52 34.8693C100.084 36.1738 99.9726 36.1983 96.4652 36.1983H92.8924L93.1044 35.0956C93.221 34.489 93.8662 32.8696 94.5382 31.4965C97.547 25.3488 104.14 21.5627 110.957 22.0676C114.697 22.3444 117.617 23.5122 121.322 26.2122C122.028 26.7269 122.116 26.6896 123.302 25.3749C126.602 21.7164 131.343 20.6982 135.725 22.7075ZM117.752 38.9003C118.936 39.2667 120.591 40.0036 121.429 40.538C123.748 42.0152 157.62 76.1499 158.928 78.3261C161.663 82.8802 161.77 88.7627 159.211 93.876C157.855 96.5834 143.483 111.043 140.636 112.563C135.553 115.276 129.781 115.244 124.835 112.475C123.435 111.692 118.432 106.894 105.3 93.743C88.5264 76.9445 87.5851 75.9368 86.4108 73.5191C84.1986 68.965 84.1902 63.927 86.3867 59.2934C87.4943 56.9578 88.2616 56.0764 95.4525 48.8785C103.45 40.8736 104.715 39.8791 108.389 38.7103C110.528 38.0297 115.249 38.1254 117.752 38.9003ZM77.9043 58.85C79.6785 59.7301 79.6914 59.762 79.21 62.063C78.2254 66.7691 78.89 71.5822 81.1665 76.2334C82.5024 78.9622 83.0504 79.594 91.3618 87.9857L100.145 96.8542L98.3102 97.7237C92.84 100.316 86.1558 99.1603 81.8869 94.8846C80.5781 93.5733 78.7355 90.7271 78.2133 89.2095C78.197 89.162 77.6635 89.3836 77.0278 89.7018C75.2983 90.568 72.2684 90.6871 70.376 89.9631C64.3093 87.642 62.6005 79.9706 67.1383 75.4252C67.8056 74.7568 68.7861 74.0172 69.3175 73.7817C70.5173 73.2497 70.5166 73.1408 69.307 72.2451C66.9736 70.5172 65.8732 65.9803 67.0827 63.0754C68.8115 58.9233 73.9823 56.9042 77.9043 58.85ZM53.003 60.4626L55.0303 58.4534L56.1182 59.4549C59.2333 62.3229 59.19 62.0447 56.8864 64.3765L54.8931 66.3942L56.9074 68.4333L58.9221 70.4727L56.985 72.4127L55.0482 74.3531L53.0122 72.335L50.9765 70.3173L48.9408 72.335L46.9048 74.3531L44.9681 72.4127L43.031 70.4727L45.0456 68.4333L47.06 66.3942L45.1232 64.4335C44.0576 63.3553 43.1861 62.3561 43.1861 62.2136C43.1861 62.0708 43.982 61.1208 44.9545 60.1023L46.7229 58.2502L48.8494 60.3611L50.9759 62.4722L53.003 60.4626ZM103.145 65.2923C99.939 66.9055 99.4997 71.2589 102.319 73.4801C104.232 74.9872 106.944 74.7049 108.756 72.8104C109.635 71.8916 109.743 71.5415 109.743 69.6225C109.743 67.7945 109.615 67.3269 108.897 66.5476C107.948 65.5175 106.263 64.6975 105.097 64.6985C104.672 64.6985 103.794 64.9659 103.145 65.2923ZM119.477 65.3754C115.951 67.5288 117.395 72.4959 121.548 72.4999C123.364 72.5016 125.155 70.7425 125.155 68.9558C125.155 67.2404 124.38 65.9077 123.002 65.2526C121.485 64.5313 120.821 64.5547 119.477 65.3754ZM141.489 80.6844C136.37 83.2222 137.875 90.9534 143.58 91.4274C148.765 91.8583 151.824 85.9846 148.43 82.1131C146.498 79.9081 144.064 79.4073 141.489 80.6844ZM121.561 86.0657C120.42 86.5275 119.397 88.0844 119.397 89.3584C119.397 92.984 123.498 94.809 125.918 92.2603C128.896 89.124 125.596 84.4324 121.561 86.0657Z" fill="url(#paint0_linear_10_18)"/>
<defs>
<linearGradient id="paint0_linear_10_18" x1="83.5" y1="0" x2="83.5" y2="158" gradientUnits="userSpaceOnUse">
<stop stop-color="#116856"/>
<stop offset="1" stop-color="#983C3C"/>
</linearGradient>
</defs>
</svg>
