<svg width="159" height="148" viewBox="0 0 159 148" fill="none" xmlns="http://www.w3.org/2000/svg">
<path fill-rule="evenodd" clip-rule="evenodd" d="M15.4367 0.431051C14.2212 1.02639 13.0548 2.43437 12.704 3.72973C12.5184 4.41468 12.4391 6.64006 12.4934 9.63552C12.579 14.3707 12.5912 14.4585 13.312 15.5403C14.2528 16.9519 15.5636 17.5898 17.9598 17.8024C20.181 17.9996 22.2224 18.6941 23.9789 19.8506L25.2144 20.6638V24.1919V27.7198L24.223 27.802C22.7243 27.926 22.5631 28.4746 22.5586 33.4638L22.5546 37.7219L20.4677 37.8641C17.4701 38.0682 15.7074 39.101 14.4901 41.3663C13.9823 42.3114 13.9047 42.9995 13.7581 47.8431C13.5626 54.3149 13.323 55.1471 10.6565 58.6208C2.92236 68.6955 -0.325507 78.3251 0.0255858 90.1406C0.224804 96.8377 1.29777 101.928 3.75887 107.853L4.58262 109.835L4.73448 118.295C4.89912 127.465 4.93264 127.68 6.47825 129.502C6.89663 129.995 7.84245 130.678 8.57975 131.019L9.92055 131.64L28.317 131.642L46.7137 131.645L46.8129 137.395C46.8962 142.226 46.9898 143.325 47.3981 144.272C47.9822 145.629 49.9297 147.404 51.2521 147.785C51.8953 147.97 59.448 148.035 74.1756 147.982L96.1399 147.903L97.4416 147.103C98.2475 146.608 99.0502 145.811 99.5487 145.01L100.354 143.717L100.442 139.011L100.529 134.305L120.523 134.231L140.516 134.156L141.606 133.577C143.496 132.572 144.46 131.191 145.011 128.702L145.166 128.005L148.711 127.903C152.074 127.805 152.347 127.755 154.019 126.937C156.138 125.9 157.702 124.24 158.461 122.223C158.995 120.804 159.002 120.339 159 84.6451C158.998 60.9556 158.903 47.9121 158.722 46.7857C158.296 44.1373 156.814 40.132 155.379 37.7552C151.047 30.577 143.691 26.1712 134.593 25.3041L131.33 24.993L122.91 16.0441C117.651 10.4545 114.112 6.90363 113.483 6.58481C112.294 5.98154 110.921 5.93131 109.681 6.44629C109.189 6.6509 106.809 8.1982 104.393 9.88481C100.592 12.5385 99.9213 13.1134 99.4133 14.1563C98.3228 16.3955 98.4265 16.663 104.964 28.4558C108.201 34.2955 110.982 39.3614 111.144 39.7138C111.404 40.2822 111.27 40.5989 109.946 42.5303C107.528 46.0606 106.153 49.1607 104.954 53.7912C104.484 55.606 104.389 56.9654 104.281 63.3742L104.156 70.8424H101.764C99.6588 70.8424 99.3574 70.7837 99.2439 70.352C99.1728 70.0824 98.7286 68.9099 98.2568 67.7465C95.7733 61.625 91.4993 56.6207 86.0571 53.4621L83.9958 52.2659V47.5256C83.9958 44.7636 83.8809 42.5721 83.7205 42.2741C83.4917 41.8496 83.1534 41.7629 81.7256 41.7629H80.0061V39.5737C80.0061 37.5207 80.0654 37.2902 80.9575 35.8727L81.9089 34.3608H84.6894H87.4703L89.2545 35.5504C90.2357 36.2047 91.2373 36.74 91.4804 36.74C91.7235 36.74 93.2564 35.7611 94.8868 34.5649C97.6302 32.5518 97.8456 32.33 97.7725 31.5908C97.7073 30.9294 97.282 30.484 95.2999 29.0009C93.8663 27.9284 92.38 27.0536 91.5943 26.8199C89.9114 26.3195 71.2479 26.2447 69.6122 26.7316C67.3612 27.4021 65.6608 29.6356 65.6491 31.9374C65.6456 32.6062 65.9754 33.9077 66.4412 35.0637C67.1194 36.7469 67.2391 37.3985 67.2391 39.4037V41.7629H65.6964C64.8479 41.7629 64.0101 41.9056 63.8345 42.0801C63.6093 42.304 63.5154 43.8407 63.5154 47.3062V52.2151L61.9384 53.0769C61.0713 53.5507 59.635 54.4701 58.7466 55.1199L57.1319 56.3016V49.5525C57.1319 42.0991 57.0452 41.6032 55.4559 39.9552C54.1351 38.5855 52.7873 38.024 50.4377 37.8638L48.3546 37.7219V33.1744C48.3546 28.1013 48.2375 27.7518 46.5382 27.7518H45.6948V24.2379V20.7241L46.8685 19.5794L48.042 18.4345L48.2181 19.9868C48.8479 25.5412 50.5728 30.5051 53.1898 34.2947L53.9656 35.4182H58.4214C63.0866 35.4182 63.5154 35.3191 63.5154 34.2405C63.5154 33.9418 62.8387 32.8056 62.0115 31.7159C60.1704 29.2901 58.6402 26.1823 57.9415 23.4486C57.3553 21.1555 56.9667 17.0743 57.234 16.0161L57.408 15.3269H63.0624C67.7495 15.3269 68.8177 15.2566 69.3076 14.9153C69.885 14.5135 69.8989 14.3805 69.8989 9.22312C69.8989 5.31879 69.8031 3.72074 69.5316 3.09183C69.0842 2.05501 67.6388 0.655227 66.6233 0.274549C66.1145 0.0839458 57.9343 -0.00408444 41.0893 0.000145314C18.8678 0.0054325 16.2144 0.0501085 15.4367 0.431051ZM58.4011 7.5944L58.3288 12.5511L55.536 12.7098C51.3426 12.9482 48.3663 14.32 45.3059 17.4246L43.9858 18.7636H35.5663H27.1467L25.3734 17.5819C23.4001 16.2664 20.8531 15.3787 18.4361 15.1633C16.4988 14.9909 15.7915 14.6803 15.4024 13.8314C15.2252 13.4449 15.1072 11.4945 15.1072 8.95664C15.1072 4.53787 15.3175 3.53278 16.3706 2.92317C16.6756 2.74658 24.0095 2.65088 37.6547 2.64559L58.4735 2.63766L58.4011 7.5944ZM66.4616 3.41038L67.2391 4.1831V8.43321V12.6833H64.1803H61.1216V7.66049V2.63766H63.4029C65.5695 2.63766 65.7233 2.67652 66.4616 3.41038ZM112.964 9.44492C113.395 9.84463 115.92 12.4888 118.577 15.3208L123.406 20.4695L122.652 21.0693C122.237 21.399 121.82 21.6694 121.725 21.6702C121.629 21.671 119.959 19.9974 118.013 17.9509C116.067 15.9045 114.261 14.1167 114 13.9776C113.401 13.6593 112.915 13.92 109.131 16.585C107.223 17.9285 106.177 18.8389 106.124 19.2008C106.077 19.5242 107.199 21.8394 108.808 24.7418L111.573 29.7274L110.638 30.4652C110.125 30.871 109.618 31.1105 109.514 30.9976C108.925 30.3637 101.55 16.6328 101.55 16.1723C101.55 15.2965 102.48 14.4601 106.737 11.5064C111.137 8.45357 111.697 8.26825 112.964 9.44492ZM54.4721 17.2906C54.4721 21.9007 55.7126 26.6333 57.9266 30.4686L59.1818 32.6425L57.4516 32.7215C56.5002 32.7651 55.5764 32.7453 55.399 32.6776C54.8625 32.473 52.6751 27.7748 51.9589 25.2882C51.1716 22.5561 50.539 17.0154 50.9659 16.5911C51.2202 16.3384 53.8085 15.3557 54.2726 15.3356C54.3825 15.3309 54.4721 16.2104 54.4721 17.2906ZM118.925 22.9101C119.209 23.2683 119.335 23.6513 119.206 23.7639C118.219 24.6255 113.727 28.0423 113.673 27.9723C113.427 27.6537 109.266 19.9638 109.274 19.8414C109.279 19.7573 110.199 19.0684 111.319 18.3102L113.353 16.9316L115.882 19.5961C117.273 21.0614 118.643 22.5529 118.925 22.9101ZM43.035 24.7117V27.7518H35.4546H27.8742V24.7117V21.6715H35.4546H43.035V24.7117ZM137.558 28.4428C146.196 30.0753 152.763 35.9837 155.463 44.5516L156.209 46.9179L156.282 83.6263L156.355 120.335L155.707 121.742C154.47 124.428 152.409 125.3 147.305 125.3H144.412L143.728 123.814C142.873 121.959 142.861 120.617 143.686 118.999C144.04 118.306 144.768 116.495 145.304 114.976C146.197 112.449 146.27 112.024 146.171 109.968C146.045 107.336 145.297 105.599 143.539 103.852L142.458 102.777L143.253 101.944C145.29 99.8096 145.506 97.5453 144.001 94.0941C142.837 91.4246 142.81 90.4981 143.837 88.3406C144.274 87.4233 145.003 85.5794 145.457 84.243C146.185 82.098 146.269 81.55 146.173 79.5663C146.087 77.8133 145.912 77.026 145.374 75.9853C144.458 74.2127 142.804 72.6102 140.959 71.7098L139.452 70.9746L123.161 70.9008L106.87 70.8268V64.9057C106.87 58.4482 107.102 56.0999 108.086 52.6312C108.908 49.7291 111.288 44.9688 112.926 42.9477C113.794 41.8765 116.952 39.2271 122.93 34.554L131.665 27.7256L133.564 27.8864C134.608 27.9747 136.405 28.2253 137.558 28.4428ZM77.3463 39.9123V41.7629H73.6226H69.8989V39.9123V38.0618H73.6226H77.3463V39.9123ZM83.521 55.1418C85.1326 55.9534 85.0998 55.987 81.765 56.9474C78.2716 57.9536 74.2213 58.3279 70.8939 57.952C68.1697 57.644 64.924 56.9078 63.3013 56.2297L62.4392 55.8693L63.7087 55.1672L64.9783 54.4651L73.5649 54.4585L82.1515 54.4521L83.521 55.1418ZM65.6368 59.7277C70.2133 60.8665 74.0272 61.0717 78.4113 60.4147C81.0956 60.0127 84.7988 58.9542 86.4654 58.1124L87.4721 57.6043L88.6717 58.5811C92.4188 61.6329 95.6694 67.1588 97.0977 72.906C97.6647 75.1866 97.6698 75.4629 97.7517 108.778C97.8296 140.429 97.8076 142.404 97.3652 143.272C97.107 143.778 96.4891 144.462 95.992 144.792L95.0882 145.392L73.6497 145.391C52.856 145.39 52.1857 145.374 51.3598 144.874C49.5472 143.775 49.6629 146.38 49.7461 108.58L49.8214 74.4113L50.4028 72.3791C51.9325 67.0311 53.8733 63.563 57.2851 60.0806L59.6994 57.6165L61.6674 58.4231C62.7499 58.8669 64.5359 59.4538 65.6368 59.7277ZM84.799 62.3031C82.0807 63.7023 81.923 67.7854 84.5354 69.128C87.1391 70.4662 90.2463 68.6662 90.2463 65.8196C90.2463 63.0129 87.2179 61.0579 84.799 62.3031ZM87.1875 65.0265C87.8126 65.6477 87.8357 65.8249 87.374 66.4527C87.1439 66.7652 86.7657 66.8926 86.2436 66.8337C85.5972 66.7604 85.443 66.6071 85.3693 65.9647C85.31 65.4458 85.4382 65.0699 85.7526 64.8412C86.3843 64.3823 86.5625 64.4053 87.1875 65.0265ZM16.2916 96.7285C15.9979 99.2008 13.9991 100.463 11.8143 99.5558C9.93252 98.7744 8.89042 95.0157 8.91037 89.0832C8.92128 85.8189 9.02686 84.8587 9.62133 82.6125C10.5081 79.2628 12.4904 75.221 14.6324 72.3955L16.3041 70.1905L16.3831 82.7431C16.4264 89.6471 16.3852 95.9404 16.2916 96.7285ZM87.9964 72.8566C86.9676 73.717 86.3896 74.7975 86.3896 75.8605C86.3896 78.6434 88.9792 80.4339 91.5778 79.4476C94.4655 78.3515 94.9456 74.9051 92.4962 72.8566C91.8291 72.2985 91.3924 72.1642 90.2463 72.1642C89.1002 72.1642 88.6635 72.2985 87.9964 72.8566ZM139.72 74.1075C141.403 74.8866 143.309 77.0223 143.309 78.1295C143.309 78.1926 133.691 78.2445 121.935 78.2445H100.56L100.377 76.46C100.277 75.4787 100.128 74.4081 100.046 74.0808L99.8968 73.486L119.143 73.4886L138.389 73.4913L139.72 74.1075ZM91.1743 75.2009C91.5874 75.6955 91.3249 76.8098 90.7432 77.0316C90.0452 77.2978 89.3305 76.9422 89.1534 76.2406C88.9528 75.4465 89.4398 74.8078 90.2463 74.8078C90.5761 74.8078 90.9937 74.9846 91.1743 75.2009ZM122.342 86.6128C122.993 87.1986 122.973 88.6066 122.306 89.2075C121.14 90.2556 119.371 89.448 119.371 87.8677C119.371 86.4007 121.233 85.6145 122.342 86.6128ZM141.181 87.6424C141.181 87.7223 140.992 88.1511 140.761 88.5949C140.53 89.0391 140.326 90.0349 140.308 90.8079L140.275 92.2135L139.563 91.8476C138.297 91.1968 138.09 89.2241 139.175 88.146C139.739 87.5851 141.181 87.2232 141.181 87.6424ZM109.038 91.4836C109.744 91.8595 110.315 93.258 110.138 94.1782C109.943 95.1923 108.877 95.9566 107.656 95.9566C106.861 95.9566 106.508 95.7871 105.963 95.1431C105.03 94.0415 105.061 92.9561 106.052 91.9708C106.882 91.1452 108.045 90.9554 109.038 91.4836ZM129.781 98.3316C130.43 98.9763 130.56 99.3028 130.492 100.116L130.409 101.112H128.148H125.888L125.801 100.207C125.574 97.8425 128.094 96.6553 129.781 98.3316ZM139.08 104.188C140.778 104.753 142.716 106.586 143.163 108.051L143.345 108.646H121.916H100.487V106.267V103.887H119.331C132.712 103.887 138.438 103.975 139.08 104.188ZM120.432 116.97C120.845 117.464 120.583 118.579 120.001 118.8C119.426 119.02 118.307 118.28 118.307 117.681C118.307 116.657 119.764 116.169 120.432 116.97ZM132.815 119.605C133.174 119.962 133.468 120.519 133.468 120.843C133.468 121.635 132.461 122.657 131.681 122.657C130.901 122.657 129.744 121.552 129.744 120.806C129.744 120.093 130.888 118.956 131.606 118.956C131.912 118.956 132.456 119.248 132.815 119.605ZM113.629 128.757C114.312 129.564 114.511 130.669 114.091 131.327C113.935 131.571 113.272 131.647 111.767 131.591L109.663 131.513L109.581 130.392C109.471 128.885 110.358 127.944 111.888 127.944C112.736 127.944 113.073 128.102 113.629 128.757Z" fill="url(#paint0_linear_10_21)"/>
<defs>
<linearGradient id="paint0_linear_10_21" x1="79.5" y1="0" x2="79.5" y2="148" gradientUnits="userSpaceOnUse">
<stop stop-color="#116856"/>
<stop offset="1" stop-color="#983C3C"/>
</linearGradient>
</defs>
</svg>
