<svg width="173" height="157" viewBox="0 0 173 157" fill="none" xmlns="http://www.w3.org/2000/svg">
<path fill-rule="evenodd" clip-rule="evenodd" d="M98.5568 0.513333C98.2072 0.896999 98.089 1.57003 98.089 3.17963V5.3326L96.1809 5.33681C93.9008 5.34158 92.8923 5.7679 92.7735 6.77717C92.6249 8.03931 93.3369 8.41989 95.8477 8.41989H98.089V10.6652C98.089 12.5364 98.1831 13.004 98.6543 13.4718C98.9653 13.7806 99.4105 14.0331 99.6437 14.0331C99.8769 14.0331 100.322 13.7806 100.633 13.4718C101.104 13.004 101.198 12.5364 101.198 10.6652V8.41989H103.416C105.867 8.41989 106.703 7.95567 106.521 6.69577C106.388 5.77323 105.304 5.34158 103.107 5.33681L101.198 5.3326V3.29021C101.198 1.00169 100.733 0 99.6714 0C99.3158 0 98.8141 0.230986 98.5568 0.513333ZM159.305 6.23717C159.004 6.66294 158.865 7.50886 158.865 8.90347V10.9459H156.808C154.483 10.9459 153.494 11.4067 153.494 12.4895C153.494 13.5723 154.483 14.0331 156.808 14.0331H158.865V16.0755C158.865 18.4954 159.315 19.3657 160.567 19.3657C161.686 19.3657 161.974 18.7093 161.974 16.1566V14.0331H164.031C166.336 14.0331 167.345 13.5715 167.345 12.517C167.345 11.3486 166.524 10.9459 164.142 10.9459H161.974V8.82236C161.974 7.65452 161.842 6.45469 161.681 6.15606C161.268 5.38873 159.87 5.43644 159.305 6.23717ZM56.5985 15.5928C56.1869 15.8788 55.9701 16.3197 55.9701 16.8704C55.9701 18.448 55.0689 21.748 54.0637 23.8499C52.7738 26.5476 50.58 28.7677 47.9927 29.9936C44.8606 31.4778 44.847 32.3624 47.9327 33.8564C51.9004 35.7772 54.6867 39.7158 55.5794 44.6658C56.2321 48.2855 56.2839 48.4026 57.2713 48.4988C58.4415 48.6128 58.7824 48.1174 59.103 45.8373C59.9035 40.1443 62.7108 35.8816 66.9482 33.9243C68.999 32.9771 69.551 32.3217 69.157 31.3029C69.0694 31.0753 68.1668 30.5154 67.1514 30.0584C62.7637 28.0831 59.9276 23.8159 59.1166 17.9692C58.746 15.297 58.0153 14.6074 56.5985 15.5928ZM61.1544 29.3006C62.1121 30.2754 63.2137 31.2863 63.6024 31.5474C64.2913 32.0096 64.2949 32.0293 63.7437 32.3259C62.4109 33.0433 59.3758 36.4747 58.4347 38.3282L57.4544 40.2586L56.5951 38.5684C55.4749 36.3647 53.7423 34.2092 52.1661 33.0579C51.4718 32.5507 50.8988 32.0671 50.8929 31.9829C50.887 31.899 51.5253 31.343 52.3117 30.7477C53.8291 29.5987 55.7835 27.0882 56.8277 24.9464L57.4592 23.6509L58.4362 25.5897C59.0213 26.7505 60.1116 28.2395 61.1544 29.3006ZM23.9063 31.0332C23.5773 31.3602 23.4622 32.0509 23.4622 33.6995V35.9249H21.4052C19.0838 35.9249 18.0913 36.386 18.0913 37.4643C18.0913 38.6762 18.7703 39.0121 21.2209 39.0121H23.4622V41.2575C23.4622 43.1472 23.5541 43.594 24.042 44.0784C24.6212 44.6535 25.4921 44.6288 26.1476 44.0186C26.3031 43.8741 26.4753 42.6883 26.5301 41.3838L26.6296 39.0121H28.8184C31.2381 39.0121 32.0754 38.5429 31.8945 37.288C31.7616 36.3655 30.677 35.9338 28.4797 35.9291L26.5717 35.9249V33.8825C26.5717 31.5777 26.1072 30.5923 25.0212 30.5923C24.6523 30.5923 24.1508 30.7907 23.9063 31.0332ZM132.338 31.0834C132.197 31.3537 131.989 32.3324 131.876 33.2586C131.582 35.6798 130.494 38.8752 129.262 40.9411C127.792 43.4037 125.583 45.3335 122.735 46.6434C120.447 47.6959 120.388 47.7475 120.474 48.6271C120.554 49.4542 120.76 49.6277 122.911 50.6838C124.204 51.3184 125.471 52.0461 125.728 52.301C126.163 52.7321 121.796 52.7646 63.5653 52.7646C3.24966 52.7646 0.918427 52.7837 0.467839 53.278C0.0441059 53.7427 0 55.2791 0 69.5362C0 83.4759 0.0508946 85.3319 0.444099 85.7226C0.835041 86.1105 2.4443 86.1635 13.8574 86.1635C22.3971 86.1635 27.338 86.0555 28.3246 85.8475C29.1483 85.6735 35.2286 83.4616 41.8362 80.932C48.5979 78.3431 54.6401 76.1958 55.6571 76.0198C56.651 75.848 58.1775 75.7821 59.0493 75.873C61.1298 76.0905 88.0042 82.3409 89.4673 82.9477C91.1436 83.6426 93.8853 85.667 95.0321 87.0566L96.0404 88.2786L92.9163 87.6541C87.6837 86.6084 82.9799 86.1256 76.4421 85.9631C69.4758 85.7897 66.0732 85.9957 65.4355 86.6289C64.8877 87.1728 64.9019 87.9749 65.4686 88.5377C65.8652 88.9314 66.5614 88.9645 71.0515 88.804C81.4772 88.431 92.0835 89.8736 102.329 93.0583C105.575 94.0673 106.59 94.5051 107.205 95.1638C108.723 96.7875 107.964 99.5579 105.858 100.082C105.366 100.205 103.991 99.9668 101.947 99.4044C89.9977 96.1153 79.6494 95.0089 66.6109 95.6272C62.1361 95.8394 61.5185 95.9272 61.1694 96.4013C60.6758 97.0715 60.6741 97.4254 61.1609 98.0866C61.5154 98.568 62.079 98.6157 68.1572 98.6797C77.7464 98.781 85.5387 99.7751 94.4142 102.029C98.4356 103.051 99.274 103.546 99.6754 105.134C99.9705 106.301 99.2005 107.85 98.0454 108.414C97.0422 108.903 96.954 108.897 93.2453 108.086C88.8237 107.118 83.3126 106.23 79.1903 105.82C74.8504 105.389 59.306 105.434 58.7491 105.88C58.0286 106.457 57.9429 107.144 58.5063 107.831L59.0352 108.476L67.0072 108.398C75.6198 108.313 79.1047 108.597 85.3685 109.894C88.0319 110.445 88.7344 110.698 89.2553 111.291C90.0824 112.233 90.0649 113.437 89.2095 114.425L88.5277 115.212L75.5704 115.374C62.6743 115.536 62.6014 115.54 60.1531 116.264C55.8841 117.527 52.5751 117.976 47.4898 117.982C41.549 117.99 37.7318 117.355 31.6522 115.35C27.4138 113.952 21.3249 113.265 13.1445 113.263C5.63376 113.26 1.36024 113.656 0.494961 114.433C0.0322186 114.849 0 116.203 0 135.303C0 152.786 0.059087 155.786 0.410455 156.135C0.751363 156.474 3.07073 156.58 14.0496 156.76C31.6757 157.048 169.741 157.092 171.081 156.809C173.125 156.379 172.998 157.535 172.998 139.349C172.998 124.834 172.948 122.92 172.554 122.529C171.955 121.934 171.573 121.96 166.95 122.915C160.278 124.293 155.117 124.952 150.667 124.995C146.099 125.04 144.057 124.678 142.908 123.621C142.28 123.043 142.187 122.725 142.187 121.17C142.187 117.414 139.9 114.958 135.708 114.214C134.59 114.016 132.433 113.927 130.516 114L127.236 114.125L127.715 113.283C128.474 111.949 133.398 107.125 135.261 105.889C136.194 105.27 138.166 104.102 139.643 103.293C141.12 102.484 142.693 101.489 143.14 101.08C147.336 97.2421 142.972 91.6962 131.43 86.195L127.483 84.3139L129.508 83.969C133.419 83.3033 136.432 81.2749 137.684 78.4663C137.97 77.8228 138.357 76.3549 138.543 75.2045C139.146 71.4652 140.262 70.1657 143.741 69.1489C145.823 68.5404 151.8 68.4745 155.614 69.0175C159.013 69.502 165.739 70.8682 168.972 71.731C171.689 72.4562 172.445 72.3939 172.824 71.4136C172.92 71.1652 172.998 67.0765 172.998 62.3277C172.998 54.3361 172.96 53.6591 172.484 53.2317C172.022 52.8163 170.392 52.7621 156.365 52.697L140.759 52.6243L142.158 51.7152C142.927 51.2151 144.169 50.5802 144.917 50.3046C147.201 49.4623 147.25 47.4988 144.998 47.0077C143.861 46.7596 141.12 44.9406 139.784 43.5471C137.349 41.0071 135.692 37.3576 135.137 33.3096C134.992 32.2572 134.723 31.2151 134.538 30.9942C134.064 30.427 132.652 30.4842 132.338 31.0834ZM137.341 45.2095C138.259 46.2002 139.531 47.3268 140.167 47.7127C140.803 48.0986 141.327 48.4806 141.331 48.5614C141.335 48.6425 140.569 49.265 139.628 49.9454C137.638 51.384 135.706 53.8022 134.404 56.4826L133.484 58.3765L133.014 57.2087C131.88 54.3956 129.102 50.9984 126.587 49.3506L125.545 48.6681L127.34 47.3495C129.343 45.8772 131.367 43.384 132.649 40.8106L133.501 39.1006L134.587 41.2541C135.199 42.468 136.401 44.1937 137.341 45.2095ZM124.932 67.9002C125.321 68.6207 125.021 69.3083 124.18 69.626C123.232 69.9836 74.605 69.9695 73.6558 69.6114C73.1108 69.4057 72.9307 69.1382 72.9307 68.5354C72.9307 68.0942 73.0155 67.649 73.1193 67.5463C73.2227 67.4433 84.8577 67.3591 98.974 67.3591C124.03 67.3591 124.648 67.372 124.932 67.9002ZM103.743 80.9833C114.792 82.3959 126.626 86.3541 135.344 91.5539C138.131 93.2155 140.988 95.7585 141.539 97.0659C142.117 98.4386 141.658 98.9317 137.984 100.886C132.297 103.911 128.957 106.824 124.779 112.404C120.017 118.763 116 122.037 108.412 125.747C101.562 129.095 94.8495 131.184 87.0646 132.39C82.181 133.147 71.6977 133.075 66.0781 132.246C60.4146 131.41 56.0396 131.432 50.8285 132.321C36.0397 134.845 22.3745 134.901 18.91 132.452C17.4938 131.451 17.9896 129.763 20.6222 126.622C22.0064 124.97 26.7277 120.889 29.3843 119.047L30.7349 118.111L32.9723 118.812C37.4482 120.216 42.4262 120.966 47.2738 120.966C50.0624 120.966 50.6843 121.072 54.5332 122.213C70.5511 126.957 86.0684 127.453 102.171 123.734C103.58 123.408 104.954 123.027 105.227 122.886C105.96 122.507 105.872 121.076 105.084 120.564C104.51 120.191 104.175 120.217 101.762 120.822C94.5846 122.624 87.3874 123.346 78.7703 123.13C71.8673 122.957 67.0816 122.363 60.9492 120.918L57.3066 120.059L60.3838 119.212L63.461 118.365L76.3443 118.192L89.2273 118.019L90.3733 117.265C91.7833 116.338 92.7181 114.541 92.7181 112.757V111.462L95.0239 112.298C98.4842 113.552 100.972 113.995 104.732 114.029C110.691 114.082 113.885 113.128 113.437 111.43C113.197 110.517 112.242 110.189 110.924 110.566C109.392 111.005 104.252 111.262 101.934 111.016L100.007 110.811L100.871 109.924C102.539 108.213 103.059 105.731 102.184 103.653C101.949 103.094 101.815 102.578 101.887 102.507C101.959 102.436 102.425 102.518 102.922 102.69C104.33 103.177 106.46 103.07 107.684 102.45C109.138 101.714 110.424 100.114 110.83 98.5357L111.162 97.2497L113.742 97.4018C116.82 97.5831 122.736 97.2677 124.35 96.8363C125.235 96.5997 125.546 96.3569 125.689 95.7928C125.993 94.5899 125.496 94.1523 123.921 94.2345C123.162 94.2741 119.869 94.3373 116.604 94.3749L110.668 94.4431L109.355 93.1315C108.166 91.9441 107.691 91.7075 104.352 90.6364C99.3065 89.0179 99.1671 88.5441 103.806 88.7801C105.714 88.8773 108.421 89.2042 109.82 89.5065C111.219 89.8091 113.097 90.2174 113.993 90.4142C115.546 90.7549 115.652 90.7422 116.253 90.1456C116.838 89.5649 116.853 89.4661 116.461 88.7779C116.143 88.2185 115.588 87.9078 114.202 87.5135C110.774 86.5382 105.958 85.8593 101.843 85.7717L97.8233 85.6861L95.8861 83.8716C94.8207 82.8739 93.2586 81.646 92.4148 81.143L90.8807 80.2289L95.5449 80.3802C98.1102 80.4635 101.799 80.7349 103.743 80.9833ZM157.31 105.868C154.168 106.958 152.643 110.52 154.025 113.54C155.795 117.408 161.223 117.859 163.652 114.339C166.637 110.013 162.25 104.153 157.31 105.868ZM160.585 108.976C162.506 110.44 161.766 113.475 159.398 113.849C158.537 113.985 158.228 113.878 157.426 113.166C155.496 111.454 156.542 108.604 159.092 108.626C159.667 108.63 160.338 108.788 160.585 108.976ZM144.74 110.242C143.307 111.027 142.677 112.024 142.539 113.727C142.44 114.947 142.538 115.388 143.086 116.194C144.848 118.79 148.237 118.757 150.201 116.125C150.984 115.076 150.988 112.826 150.209 111.79C148.782 109.892 146.538 109.257 144.74 110.242ZM147.293 112.836C148.129 113.28 148.029 114.718 147.135 115.122C146.552 115.386 146.331 115.353 145.863 114.933C145.121 114.266 145.144 113.525 145.924 112.983C146.67 112.464 146.606 112.471 147.293 112.836ZM139.379 130.237C139.99 130.562 140.105 131.621 139.586 132.136C139.096 132.622 105.985 132.622 105.495 132.136C104.995 131.64 105.083 130.578 105.651 130.25C106.338 129.853 138.632 129.841 139.379 130.237ZM129.485 139.219C130.096 139.543 130.212 140.602 129.692 141.117C129.438 141.37 126.038 141.454 116.134 141.454C103.354 141.454 102.905 141.436 102.622 140.911C102.224 140.174 102.253 139.886 102.773 139.369C103.164 138.981 104.764 138.928 116.078 138.928C124.402 138.928 129.131 139.031 129.485 139.219Z" fill="url(#paint0_linear_10_19)"/>
<defs>
<linearGradient id="paint0_linear_10_19" x1="86.5" y1="0" x2="86.5" y2="157" gradientUnits="userSpaceOnUse">
<stop stop-color="#116856"/>
<stop offset="1" stop-color="#983C3C"/>
</linearGradient>
</defs>
</svg>
