<svg width="147" height="147" viewBox="0 0 147 147" fill="none" xmlns="http://www.w3.org/2000/svg">
<path fill-rule="evenodd" clip-rule="evenodd" d="M0 33.0623V66.1242L30.1055 81.1322C46.6633 89.3866 61.023 96.3607 62.0156 96.6307C68.9364 98.5122 78.0636 98.5122 84.9844 96.6307C85.977 96.3607 100.336 89.3866 116.895 81.1322L147 66.1242V38.3918V10.6596L136.335 5.3298L125.669 0H62.8346H0V33.0623ZM22.1993 12.9578C24.6399 13.6827 26.3986 15.0943 27.0785 16.8744C27.6239 18.3027 27.6239 18.4477 27.0785 19.8761C26.0469 22.5772 22.68 24.2815 18.375 24.2815C14.07 24.2815 10.7031 22.5772 9.67149 19.8761C9.12778 18.4527 9.12745 18.2988 9.66427 16.8931C10.3307 15.1481 11.8095 13.9087 14.2183 13.0763C16.3147 12.3518 19.9759 12.2976 22.1993 12.9578ZM77.3243 12.9578C79.7649 13.6827 81.5236 15.0943 82.2035 16.8744C82.7489 18.3027 82.7489 18.4477 82.2035 19.8761C81.1719 22.5772 77.805 24.2815 73.5 24.2815C69.195 24.2815 65.8281 22.5772 64.7965 19.8761C64.2528 18.4527 64.2525 18.2988 64.7893 16.8931C65.4557 15.1481 66.9345 13.9087 69.3433 13.0763C71.4397 12.3518 75.1009 12.2976 77.3243 12.9578ZM132.449 12.9578C134.89 13.6827 136.649 15.0943 137.329 16.8744C137.874 18.3027 137.874 18.4477 137.329 19.8761C135.076 25.7739 122.174 25.7739 119.921 19.8761C119.378 18.4527 119.377 18.2988 119.914 16.8931C120.581 15.1481 122.06 13.9087 124.468 13.0763C126.565 12.3518 130.226 12.2976 132.449 12.9578ZM49.7618 26.7392C52.2024 27.4641 53.9611 28.8757 54.641 30.6558C55.1864 32.0841 55.1864 32.2292 54.641 33.6575C52.3888 39.5553 39.4862 39.5553 37.234 33.6575C36.6903 32.2341 36.69 32.0802 37.2268 30.6745C37.8932 28.9295 39.372 27.6902 41.7808 26.8577C43.8772 26.1332 47.5384 26.079 49.7618 26.7392ZM104.887 26.7392C107.327 27.4641 109.086 28.8757 109.766 30.6558C110.311 32.0841 110.311 32.2292 109.766 33.6575C107.514 39.5553 94.6112 39.5553 92.359 33.6575C91.8153 32.2341 91.815 32.0802 92.3518 30.6745C93.0182 28.9295 94.497 27.6902 96.9058 26.8577C99.0022 26.1332 102.663 26.079 104.887 26.7392ZM22.1993 40.5207C24.6399 41.2455 26.3986 42.6571 27.0785 44.4372C27.6239 45.8655 27.6239 46.0106 27.0785 47.4389C24.8263 53.3367 11.9237 53.3367 9.67149 47.4389C9.12778 46.0155 9.12745 45.8616 9.66427 44.4559C10.3307 42.7109 11.8095 41.4716 14.2183 40.6391C16.3147 39.9146 19.9759 39.8605 22.1993 40.5207ZM77.3243 40.5207C79.7649 41.2455 81.5236 42.6571 82.2035 44.4372C82.7489 45.8655 82.7489 46.0106 82.2035 47.4389C79.9513 53.3367 67.0487 53.3367 64.7965 47.4389C64.2528 46.0155 64.2525 45.8616 64.7893 44.4559C65.4557 42.7109 66.9345 41.4716 69.3433 40.6391C71.4397 39.9146 75.1009 39.8605 77.3243 40.5207ZM132.449 40.5207C134.89 41.2455 136.649 42.6571 137.329 44.4372C137.874 45.8655 137.874 46.0106 137.329 47.4389C135.076 53.3367 122.174 53.3367 119.921 47.4389C119.378 46.0155 119.377 45.8616 119.914 44.4559C120.581 42.7109 122.06 41.4716 124.468 40.6391C126.565 39.9146 130.226 39.8605 132.449 40.5207ZM49.7618 54.3021C52.2024 55.0269 53.9611 56.4385 54.641 58.2186C55.1864 59.647 55.1864 59.792 54.641 61.2203C52.3888 67.1181 39.4862 67.1181 37.234 61.2203C36.6903 59.7969 36.69 59.643 37.2268 58.2373C37.8932 56.4923 39.372 55.253 41.7808 54.4205C43.8772 53.696 47.5384 53.6419 49.7618 54.3021ZM104.887 54.3021C107.327 55.0269 109.086 56.4385 109.766 58.2186C110.311 59.647 110.311 59.792 109.766 61.2203C107.514 67.1181 94.6112 67.1181 92.359 61.2203C91.8153 59.7969 91.815 59.643 92.3518 58.2373C93.0182 56.4923 94.497 55.253 96.9058 54.4205C99.0022 53.696 102.663 53.6419 104.887 54.3021ZM77.3243 68.0835C79.7649 68.8083 81.5236 70.2199 82.2035 72C82.7489 73.4284 82.7489 73.5734 82.2035 75.0018C81.1719 77.7029 77.805 79.4072 73.5 79.4072C69.195 79.4072 65.8281 77.7029 64.7965 75.0018C64.2528 73.5783 64.2525 73.4244 64.7893 72.0187C65.4557 70.2738 66.9345 69.0344 69.3433 68.202C71.4397 67.4774 75.1009 67.4233 77.3243 68.0835ZM0 85.1583V90.5708L30.9258 106C54.1656 117.596 62.5039 121.606 64.4766 122.136C66.7393 122.744 67.9846 122.842 73.5 122.842C79.0154 122.842 80.2607 122.744 82.5234 122.136C84.4961 121.606 92.8344 117.596 116.074 106L147 90.5708V85.1583V79.7459L120.176 93.1329C102.376 102.017 92.2799 106.873 90.1665 107.569C84.9457 109.287 80.1222 109.987 73.5 109.987C66.8985 109.987 62.308 109.321 56.9297 107.585C54.6164 106.838 45.7347 102.575 26.8242 93.1355L0 79.7459V85.1583ZM0 109.598V115.173L29.4604 129.904C45.6635 138.006 59.9409 144.95 61.1874 145.335C68.3757 147.555 78.6243 147.555 85.8126 145.335C87.0591 144.95 101.336 138.006 117.54 129.904L147 115.173V109.594V104.016L119.191 117.919C103.897 125.566 90.3098 132.208 88.9987 132.68C84.1667 134.419 80.4733 134.975 73.6641 134.989C66.9464 135.003 64.0516 134.613 58.9828 133.011C57.416 132.517 45.0079 126.511 28.1797 118.103L0 104.023V109.598Z" fill="url(#paint0_linear_10_20)"/>
<defs>
<linearGradient id="paint0_linear_10_20" x1="73.5" y1="0" x2="73.5" y2="147" gradientUnits="userSpaceOnUse">
<stop stop-color="#116856"/>
<stop offset="1" stop-color="#983C3C"/>
</linearGradient>
</defs>
</svg>
